<?xml version="1.0" encoding="UTF-8"?>
<svg id="_圖層_2" xmlns="http://www.w3.org/2000/svg" version="1.1" viewBox="0 0 300 14.5">
  <!-- Generator: Adobe Illustrator 30.0.0, SVG Export Plug-In . SVG Version: 2.1.1 Build 123)  -->
  <defs>
    <style>
      .st0 {
        isolation: isolate;
      }
    </style>
  </defs>
  <g id="_圖層_1-2">
    <g>
      <g class="st0">
        <g class="st0">
          <path d="M2.8,12c0,.4-.4.7-1,.7l-.2-.3c0-.1-.3-.2-.7-.3-.1,0-.2,0-.2-.2s0-.1.2-.1l1.1.2c0,0,.1,0,.2-.1v-3.5l-.9.4s0,.1,0,.2c0,.2-.1.3-.2.3s-.1,0-.2-.2l-.4-.7h.6c0,0,1.2-.5,1.2-.5v-3.1H.6v-.4c0,0,1.7,0,1.7,0V1.6h.7c.2.1.3.2.3.3s0,.2-.2.2c-.1,0-.2,0-.2.2v2h.5l.7-.6.6.6c0,0,0,.1,0,.2,0,.1-.1.3-.2.3h-1.6v2.8c.5-.2.9-.5,1.3-.8,0,0,0,0,0,0,0,0,.1,0,.1.1,0,.1-.9.9-1.6,1.2v4ZM10,8l.8-.6.8.6s0,.1,0,.2c0,.2-.1.2-.3.2h-1.9c0,.5-.2,1.1-.5,1.6-.1.3-.3.5-.5.7.6.2,2.3,1,2.3,1.6s-.2.4-.3.4-.2,0-.2,0c-.7-.6-1.4-1.1-2.2-1.5l-.5.4c-.6.4-1.2.7-1.9.9-.7.2-1.4.3-2.1.4,0,0-.1,0-.1-.1s0-.1,0-.1c.6,0,2.9-.5,4-1.7-.6-.3-1.3-.6-2-.7l-.3.5c0,.1-.2.2-.3.2h-.3c0,0,0-.1,0-.2s0-.1,0-.2c.4-.7.9-1.4,1.2-2.1h-2v-.4c0,0,2.2,0,2.2,0l.4-1,.2-.5.6.3c.1,0,.2.1.2.2s0,.2-.2.2h-.2c0,0-.4.8-.4.8h3.3ZM4,6.2v-.4c0,0,4.2,0,4.2,0,.2-.3.3-.6.4-.9l.3-.8v-.4s.7.2.7.2c.1,0,.2.1.2.2s0,.1-.2.1-.2,0-.2,0l-.5.9-.4.6h1.3l.8-.6.8.6c0,0,0,0,0,.2,0,.2,0,.3-.3.3H4ZM4.5,3.4v-.4c0,0,2.7,0,2.7,0v-1.4h.6c.2.1.3.2.3.3s0,.2-.1.2c0,0-.1.1-.1.2v.8h1.6l.8-.6.8.6s0,.1,0,.2,0,.2-.3.2h-6.2ZM6,5.4c0-.5-.2-1.1-.5-1.4,0,0,0,0,0,0,0,0,0,0,.1,0,.2,0,1,1,1,1.4s0,.5-.3.5-.3-.1-.3-.3ZM6.5,8.4l-.4.8-.4.7c.8.2,1.5.4,2.2.6.7-.9.9-1.7.9-2.1h-2.3Z"/>
          <path d="M20,7.3c-.5.7-1.3,1.4-1.4,1.4s0,0,0,0,0,0,0-.1c1.5-1.6,2.3-3.5,2.5-4.4l.7.2c.1,0,.2.1.2.2s0,.2-.2.2-.2,0-.2,0c-.3.6-.6,1.2-.9,1.8v6.3c0,.1,0,.1-.4.3,0,0-.2,0-.2-.3v-5.4ZM20.6,1.7l.6.2c.1,0,.2.1.2.2s0,.2-.2.2h-.2c-.6,1.5-2.3,3-2.4,3s0,0,0,0,0,0,0,0c1-.9,1.8-2.4,2-3v-.3ZM26.9,7.7v-1.4h.7c.2.1.3.2.3.3s0,.2-.2.2c-.1,0-.2,0-.2.2v.7h.6l.8-.6.8.6c0,0,0,0,0,.2,0,.3-.2.3-.3.3h-1.9v4c0,.4-.4.6-1,.7l-.3-.4c-.1-.1-.4-.3-.9-.3-.1,0-.2,0-.2-.2s0-.1.1-.1h0c.6,0,1,.2,1.4.2,0,0,.1,0,.2-.1v-3.8h-5.2v-.4c0,0,5.2,0,5.2,0ZM22.6,5.8v-.4c0,0,2.6,0,2.6,0v-1.7h-3.3v-.4c0,0,3.3,0,3.3,0v-1.6h.6c.2.1.3.2.3.3s0,.2-.2.2c0,0-.1,0-.1.2v.9h2.1l.8-.6.8.6c0,0,0,.1,0,.2,0,.2-.1.2-.3.2h-3.5v1.7h1.6l.8-.6.8.6c0,0,0,.1,0,.2,0,.2-.1.2-.3.2h-6.2ZM24.2,10.5c0-.4-.4-1.2-.9-1.7,0,0,0,0,0,0s0,0,0,0c.1,0,1.5,1,1.5,1.9s-.2.3-.3.3c-.2,0-.3-.1-.3-.4Z"/>
          <path d="M37.6,3.8l.5.3h3.9V1.5h.7c.2.1.3.2.3.3s0,.2-.2.2c-.1,0-.2.1-.2.2v1.9h3.7l.3-.3.6.4s0,0,0,.1,0,.2-.2.2c0,0-.2,0-.2.1v4.8c0,0,0,.1-.1.2-.4,0-.5.1-.5-.2v-.8h-3.7v4.1c0,.2-.4.3-.5.3s-.1,0-.1-.1v-4.3h-3.7v.7c0,0,0,.1-.1.2-.4,0-.5.1-.5-.2V3.8ZM41.9,4.5h-3.7v3.7h3.7v-3.7ZM42.5,8.2h3.7v-3.7h-3.7v3.7Z"/>
        </g>
        <g class="st0">
          <path d="M56.7,6.2c0,0,0,0,0,.2,0,2.1-1,3.7-1.5,3.7s-.3-.3-.3-.3c0,0,0-.2.2-.3.6-.5.9-1.1,1.1-1.6.2-.5.3-1,.3-1.6,0,0,0,0,0,0ZM58.2,4.6l.9.2c0,0,.1,0,.1.2s0,.2-.2.2-.2,0-.2.1v6.2h0c0,.1.2.2.2.2h3.7c.3,0,.5-.1.6-.8l.3-.9c0,0,0-.1.1-.1s0,0,0,.1v.8c-.2.1-.2.3-.2.4s0,.2,0,.3c.1,0,.2.2.2.3,0,.2-.1.5-.5.5h-4.9c0,0-.3-.2-.3-.5v-7.2ZM61.7,4c0,.2-.2.2-.3.2s0,0-.3-.1c-.9-1.3-1.8-1.9-2.2-2,0,0,0,0,0,0,0,0,0-.1.1-.1.4,0,2.1.9,2.6,1.8v.3ZM63.7,6.2c0,0,0-.1.1-.1.3,0,1.8,2,1.8,3s0,.4-.3.4-.3-.2-.3-.3c-.2-1.2-.7-2.4-1.3-3,0,0,0,0,0,0Z"/>
          <path d="M76.1,5.5c0,.3-.3.7-.7.7s-.7-.3-.7-.7.2-.7.7-.7.7.3.7.7ZM76.1,8.6c0,.3-.3.7-.7.7s-.7-.4-.7-.7.2-.7.7-.7.7.2.7.7Z"/>
        </g>
      </g>
      <g class="st0">
        <g class="st0">
          <path d="M102.5,12.6c0,.2-.4.3-.5.3s-.1,0-.1-.1v-7.5c-1.2,3.6-4.8,5.7-5.1,5.7s0,0,0,0c0,0,0,0,0,0,1.8-1,4-3.5,4.7-6.1h-4.6v-.4c0,0,4.9,0,4.9,0V1.6h.7c.2.1.3.2.3.3s0,.2-.2.2c-.1,0-.2.1-.2.2v1.9h3.5l.8-.6.8.6c0,0,0,0,0,.2,0,.2-.1.2-.3.2h-4.6c.3.9.7,1.7,1.2,2.4,1.1,1.6,2.5,2.5,3.6,3,0,0,0,0,0,0,0,0-.1.1-.3.1-.2,0-.3,0-.3.2,0,0,0,.1-.1.1s-.8-.5-1.7-1.4c-1.6-1.6-2.4-3.8-2.6-4.4v7.8Z"/>
          <path d="M124.2,5.5c0,.8-.3,1.5-.5,2.1-.4,1.2-1.1,2.2-1.3,2.2s0,0,0,0,0,0,0-.1c.6-1.2,1.3-3,1.6-5.1h-1.4v-.4c0,0,1.6,0,1.6,0V1.6h.7c.2.1.3.2.3.3s0,.2-.2.2c-.1,0-.2.1-.2.2v1.8h.3l.6-.6.6.6c0,0,0,.1,0,.2,0,.1,0,.3-.3.3h-1.4v.9c.2.2.5.4.8.7l.2.3h1V1.6l.5.4h4.6l.3-.4.5.4c0,0,.1.1.1.2,0,0,0,.2-.2.2,0,0-.1,0-.1.2v3.8h.1l.6-.6.5.5c0,0,0,.1,0,.2,0,.1-.1.2-.2.2h-1.1v5.3c0,.3-.3.6-.9.7,0-.2-.1-.4-.5-.6,0,0-.1,0-.1-.1s0-.1.1-.1.5,0,.6,0,.2,0,.2-.3v-4.9h-1.1v5.4c0,.2-.4.2-.5.2,0,0-.1,0-.1-.2v-5.4h-1.1v5.5c0,.2-.4.2-.5.2,0,0-.1,0-.1-.2v-5.5h-1.1v5.8c0,.1-.1.2-.5.3,0,0-.1,0-.1-.3v-5.8h-.8c.1.3.1.3.1.4s0,.4-.3.4-.3,0-.3-.2c-.1-.4-.3-.8-.5-1.2l-.3-.4v6.8c0,.2-.4.3-.5.3s-.1,0-.1-.1v-7.3ZM128.6,2.4h-1.1v4h1.1V2.4ZM130.2,2.4h-1.1v4h1.1V2.4ZM130.8,6.4h1.1V2.4h-1.1v4Z"/>
          <path d="M150.7,5.8h-1v.4s0,.1-.1.2c-.4,0-.5.1-.5-.2V2l.6.4h2.2l.3-.3.6.4s0,0,0,.1,0,.1-.2.2c0,0-.2,0-.2.1v3.3c0,.1-.1.2-.4.2-.2,0-.2,0-.2-.6h-.6v1.8h.6l.6-.6.5.5c0,0,0,.1,0,.2,0,.1,0,.3-.3.3h-1.6v3c.6-.2,1.1-.5,1.7-.7,0,0,0,0,0,0,0,0,.1,0,.1.1s0,0,0,.1c-1.1.8-2.4,1.3-3.8,1.7,0,0,0,0,0,.2,0,.1-.1.2-.2.2s-.2,0-.2-.3l-.3-.8h.6v-4.5h.6c.2.1.3.2.3.3s0,.2-.2.2c0,0-.1.1-.1.2v3.7l1-.2v-5.4ZM149.7,5.5h2.2v-2.7h-2.2v2.7ZM156.4,6.6c-1.2,1.3-2.9,2-4,2.2h0c0,0-.1,0-.1-.1s0,0,0,0c1.8-.5,2.9-1.5,3.7-2.4-.5-.6-1-1.6-1.2-2.2l-.4.7c-.6.8-1.3,1.4-1.4,1.4s0,0,0,0,0,0,0-.1c1-.9,1.5-2.1,1.7-2.7l.2-.9v-.4l.7.2c.2,0,.2,0,.2.2s0,.1-.2.2c-.1,0-.2,0-.2.1l-.3.8h2.4l.4-.2.5.4c0,0,0,.1,0,.2,0,.1-.1.2-.2.2s-.2,0-.2.1c-.3.6-.8,1.7-1.5,2.5l.6.5c.6.4,1.4.7,2.3.9h0c0,0-.2.1-.2.1-.1,0-.3.1-.3.3,0,.1,0,.2-.1.2h0c-.8-.3-1.5-.6-2.1-1.1l-.5-.5ZM154.1,8.4l.5.4h3l.3-.3.6.4s0,0,0,.1,0,.2-.2.2c0,0-.2,0-.2.1v3.4c0,0,0,.1-.1.2-.4,0-.5.1-.5-.2v-.6h-3v.5c0,0,0,.1-.1.2-.4,0-.5.1-.5-.2v-4.2ZM154.7,9.1v2.6h3v-2.6h-3ZM155.1,3.5v.3c.1.8.6,1.6,1.2,2.2,1-1.2,1.3-2.4,1.4-2.5h-2.5Z"/>
          <path d="M183.9,11.3l.8-.6.8.6c0,0,0,.1,0,.2,0,.2-.1.2-.3.2h-10.4v-.4c0,0,9.1,0,9.1,0ZM183,2.8l.8-.6.8.6s0,.1,0,.2,0,.2-.3.2h-8.8v-.4c0,0,7.5,0,7.5,0ZM182.3,7l.8-.6.8.6c0,0,0,.1,0,.2,0,.2-.1.2-.3.2h-7.3v-.4c0,0,6,0,6,0Z"/>
          <path d="M201.4,2.2l.6.5,1.1-.4c.5-.2.7-.4,1.1-.7l.4.4c0,0,0,0,0,.1s0,.1-.1.1h-.2c-.6.2-1.7.6-2.4.7v1.8h1.2l.7-.6.7.5c0,0,.1.2.1.2,0,.1,0,.2-.3.2h-2.6v2h1.1l.8-.6.7.5c0,0,.1.2.1.2,0,.1-.1.2-.2.2h-2.4v2.3h.4c0-.1,2.3-.9,2.3-.9,0,0,0,0,0,0s.1,0,.1.2,0,.1-.1.2c-.5.3-1.2.6-1.8.9l-.9.3v2.1c0,.2-.1.2-.5.3,0,0-.1,0-.1-.3v-1.9c-.3.1-.3.1-.3.2s0,.1,0,.2c0,.1-.1.1-.2.1-.1,0-.2,0-.3-.2l-.3-.6,1.1-.2V2.2ZM209.4,7.3l.3-.5.4.3c.2.1.3.2.3.3s0,.1-.3.2c-.3.9-.8,1.7-1.3,2.3l-.6.6.7.5c.7.4,1.5.8,2.6.9,0,0,0,0,0,0s0,0-.3,0c-.2,0-.3.1-.3.3,0,.1-.1.2-.2.2h0c-.9-.3-1.6-.7-2.2-1.2l-.6-.6c-.3.3-.7.5-1,.7-1.3.8-2.9,1.1-3,1.1s-.1,0-.1-.1,0-.1,0-.1c1.1-.4,2.1-.8,2.8-1.3l.9-.7c-.5-.7-1-1.4-1.4-2.9h-.8v-.4s4.1,0,4.1,0ZM206.9,3.1c0,.7,0,1.3-.2,1.8-.4,1.4-1.5,2-1.6,2s0,0,0,0,0,0,0,0c.8-.6,1.3-1.5,1.3-3.6v-1.4l.5.4h2l.3-.4.5.4c0,0,.1.1.1.2s0,.2-.2.2c0,0-.1.1-.1.2v2.4c0,.4.1.5.6.5s.8,0,.8-.6v-.8c.1,0,.2-.1.2-.1s.1,0,.1.1v.9c0,.4,0,.4.2.5,0,0,.1.1.1.3,0,.2-.3.4-.6.4h-.7c-.9,0-1.3-.2-1.3-1v-2.8h-1.9v.6ZM206.4,7.7c.3,1,.9,2,1.5,2.6l.6-.6c.4-.5.8-1.2,1-2h-3.1Z"/>
          <path d="M230.4,11.7h-1.1v-6.7c-.3.2-.6.5-1,.7s-.8.4-1.1.5v-1c.6-.3,1.1-.6,1.5-1s.8-.8.9-1.1h.7v8.6Z"/>
          <path d="M252.5,5.2h-1c0-.3-.2-.6-.4-.8-.3-.3-.6-.5-1.1-.5s-.6,0-.9.3c-.3.2-.6.6-.8,1.1s-.3,1.1-.3,2c.3-.4.6-.7.9-.9s.8-.3,1.2-.3c.7,0,1.3.3,1.8.8s.7,1.2.7,2-.1,1-.3,1.5-.6.8-1,1.1-.9.4-1.4.4c-.9,0-1.6-.3-2.2-1s-.8-1.7-.8-3.2.3-2.9.9-3.6c.5-.7,1.3-1,2.2-1s1.2.2,1.7.6.7.9.8,1.6ZM248.2,9c0,.4,0,.7.2,1s.4.6.6.8.6.3.9.3c.4,0,.8-.2,1.1-.5s.5-.8.5-1.5-.2-1.1-.5-1.4-.7-.5-1.2-.5-.9.2-1.2.5-.5.8-.5,1.3Z"/>
          <path d="M267.7,9.5h1.1c.1.5.3.9.6,1.2s.6.4,1.1.4.9-.2,1.3-.5.5-.8.5-1.3-.2-.9-.5-1.2-.7-.5-1.2-.5-.4,0-.7.1v-.9c.2,0,.2,0,.3,0,.4,0,.9-.1,1.2-.4s.5-.6.5-1.1-.1-.7-.4-1-.6-.4-1-.4-.8.1-1,.4-.4.6-.5,1.2l-1.1-.2c.1-.7.4-1.3.9-1.6s1-.6,1.7-.6.9.1,1.3.3.7.5.9.8.3.7.3,1.1,0,.7-.3,1-.5.5-.9.7c.5.1.9.4,1.2.7s.4.8.4,1.4-.3,1.4-.8,1.9-1.2.8-2.1.8-1.4-.2-1.9-.7-.8-1-.9-1.7Z"/>
          <path d="M291.3,6.3l.7-.6.6.6c0,0,0,.1,0,.2,0,.1,0,.3-.3.3h-2.6l-.4,1.4h1.7l.2-.4.5.3c.1,0,.2.2.2.3s0,.2-.2.2c0,0-.2,0-.2.2,0,.6-.1,1.2-.2,1.8-.2.9-.3,1.8-1.7,2.2,0-.3-.2-.6-.8-.8,0,0-.1,0-.1-.1s0-.1.1-.1,0,0,0,0c.4.1.7.2.9.2.2,0,.4-.2.6-.4.2-.2.3-.6.3-1.3v-1.4c.1,0,.2-.3.2-.3h-1.8l-.2.8c0,.1-.2.2-.3.2-.2,0-.3-.2-.3-.3l.7-2.5h-1.1v-.4c0,0,3.1,0,3.1,0ZM288.8,2l.5.3h2l.3-.4.5.3c0,0,0,.1,0,.2,0,0,0,.1-.1.2,0,0-.1,0-.1.1v2.8c0,.2,0,.2-.4.3,0,0-.1,0-.1-.3v-.4h-1.9v.5c0,0,0,.1-.1.2-.4,0-.5.1-.5-.2V2ZM289.3,4.8h1.9v-2.1h-1.9v2.1ZM293.5,4.3v1.5c0,2.3-.2,4.2-.9,5.6-.3.6-.9,1.4-1.1,1.4s0,0,0,0,0,0,0,0c.8-1.1,1.5-2.5,1.5-6.8v-2.2l.6.4h1.8V1.6h.6c.2.1.3.2.3.3s0,.2-.2.2c-.1,0-.1,0-.1.5h1.4l.6-.5.6.4c0,0,.1.2.1.2s0,.2-.3.2h-2.6v1h2.6l.4-.4.4.6c0,0,.1.2.1.2,0,.2-.2.2-.2.2s-.2,0-.2,0c0,0-.1,0-.2,0l-.8.8s0,0,0,0c0,0,0,0,0-.1s0,0,0,0c.2-.3.4-.6.5-.9h-4.8ZM295.4,8.1c.2,0,.3.1.3.2s0,.1-.2.1-.2,0-.2.1c0,1.4-.3,2.1-.6,2.7-.6,1-1.8,1.5-1.9,1.5s0,0,0-.1,0,0,0,0c1.6-.9,1.9-2.5,1.9-4.6h.6ZM295.6,6.1v.7h0c0,0,.1.1.1.1h2.5c0-.1.1-.3.2-.5v-.5c.1,0,.2,0,.2,0s0,0,0,.1v.5c0,.2,0,.3,0,.4,0,0,0,.1,0,.2s0,.3-.2.3h-3.3c-.2-.1-.3-.2-.3-.4v-.9h-1c0,0-.2-.3-.2-.3h1.2v-1.2l.7.2c0,0,.1,0,.1.1s0,.1-.1.1-.1,0-.1,0v.5h1.1c0,0,.4-.5.4-.5l.5.4c0,0,.1,0,.1.2,0,.1-.1.2-.3.2h-1.9ZM296.4,8.1l.7.2c0,0,.1,0,.1.2s0,.2-.2.2-.1,0-.1,0v3.2c0,0,0,0,.2.1h1.1c.2,0,.3,0,.4-.7v-.6c0,0,0-.1.1-.1,0,0,.1,0,.1.1v.7c0,.3.1.5.3.6,0,0,.1.1.1.2,0,.2-.1.4-.3.4h-2.3c-.3-.1-.3-.2-.3-.5v-4Z"/>
        </g>
      </g>
    </g>
  </g>
</svg>