<?xml version="1.0" encoding="UTF-8"?>
<svg id="_圖層_2" xmlns="http://www.w3.org/2000/svg" version="1.1" viewBox="0 0 300 14.5">
  <!-- Generator: Adobe Illustrator 30.0.0, SVG Export Plug-In . SVG Version: 2.1.1 Build 123)  -->
  <defs>
    <style>
      .st0 {
        isolation: isolate;
      }
    </style>
  </defs>
  <g id="_圖層_1-2">
    <g>
      <g class="st0">
        <g class="st0">
          <path d="M.5,5.6v-.4c0,0,5.1,0,5.1,0v-1h-2.7v.4s0,.1-.1.2c-.4,0-.5.1-.5-.2v-2.5l.5.3h2.9v-.8h.6c.2.1.3.2.3.3s0,.2-.2.2c-.1,0-.1.1-.1.3h2.7l.3-.4.5.3c0,0,0,.1,0,.2,0,0,0,.1-.1.2,0,0-.1,0-.1.1v1.9c0,.2,0,.2-.4.3,0,0-.1,0-.1-.3v-.5h-2.7v.9h3.8l.8-.6.8.6s0,0,0,.2c0,.1,0,.3-.3.3H.5ZM4.7,11.5c0,0,.1.1.1.2s0,.2-.2.2-.2,0-.2,0c-.5.3-1.2.5-2,.6-.8.2-1.4.3-1.9.3s-.1,0-.1,0,0-.1,0-.1c1.5,0,3.2-.9,3.7-1.3l.5.3ZM8.7,6.5l.3-.4.5.4s0,0,0,.1c0,.1,0,.2-.2.2,0,0-.1,0-.1.1v4c0,.1,0,.1-.4.2-.2,0-.2,0-.2-.4H3v.4c0,0,0,.1-.1.2-.4,0-.5,0-.5-.2v-4.9l.5.4h5.7ZM5.6,2.8h-2.7v1.1h2.7v-1.1ZM3,6.8v.9h5.7v-.9H3ZM3,8.1v.9h5.7v-.9H3ZM3,9.4v.9h5.7v-.9H3ZM6.2,3.9h2.7v-1.1h-2.7v1.1ZM7.8,11.4c1.4.1,2.7.7,2.7,1.1s0,.3-.3.3-.2,0-.3-.1c-.7-.4-1.7-.9-3-1.1,0,0-.1,0-.1-.1s0,0,.1,0h.9Z"/>
          <path d="M20.1,3.1v.6c-.3.5-.6,1-1,1s-.3-.2-.3-.3,0-.2.3-.3c.5-.4.9-.9.9-1.7,0,0,0,0,0,0s0,0,0,0v.4s3.6,0,3.6,0v-1.2h.6c.2.1.3.2.3.3s0,.2-.2.2c0,0-.1.1-.1.2v.5h3.9l.4-.4.5.5c0,0,.1.2.1.3,0,.2-.2.2-.3.2s-.2,0-.3,0l-.8,1.1s0,0,0,0c0,0-.1,0-.1-.1.2-.4.4-.9.5-1.3h-8ZM25.8,3.9l.7-.5.6.5c0,0,0,.1,0,.2,0,.1-.1.2-.3.2h-2.8v1.8c.5-.2,1.6-.8,2.1-1.3l.5.5c0,0,.1.1.1.2s0,.1-.2.1h-.3c-.8.5-1.8.9-2.2,1h2.6l.3-.3.6.4s0,0,0,.1c0,0,0,.2-.2.2,0,0-.2,0-.2.1v4.1c0,.1,0,.2-.4.2-.2,0-.2,0-.2-.6h-5.3v.5c0,.2-.4.2-.5.2,0,0-.1,0-.1-.2v-4.2c-.6,0-1.1,0-1.6,0s-.4,0-.4,0,0,0,0,0c1.5,0,3-.3,4.5-.8v-2h-2.9v-.4c0,0,5.2,0,5.2,0ZM23.3,11.5c0,0,.1.1.1.2s0,.2-.2.2-.2,0-.2,0c-1.1.6-3,.9-3.7.9s-.2,0-.2-.1,0-.1,0-.1c1.5-.1,3.2-.9,3.6-1.3l.5.3ZM22.5,5.1c0,0,.1.1.1.2,0,.2-.1.2-.5.2-.6.6-2.1,1-2.4,1s-.1,0-.1-.1,0,0,0,0c.4-.1.8-.3,1.2-.5.5-.3.8-.5,1-.9l.6.3ZM23.1,6.9l-1.3.2h-.2v.7h5.3v-.9h-3.8ZM21.6,8.2v.9h5.3v-.9h-5.3ZM21.6,9.5v.9h5.3v-.9h-5.3ZM26,11.5c1.1,0,2.8.6,2.8,1s0,.3-.3.3-.2,0-.3,0c-1-.6-2.3-.9-3.1-1,0,0-.1,0-.1-.1s0,0,.1,0h.9Z"/>
          <path d="M44.1,9.7v-1.1h.6c.2,0,.3.2.3.3s0,.2-.2.2c-.1,0-.2,0-.2.1v.4h1.4l.8-.6.8.6c0,0,0,0,0,.2,0,.1-.1.2-.3.2h-2.7v1.9c0,.1,0,.3-.3.5-.2.2-.5.3-.9.3,0-.4-.4-.6-.7-.7,0,0-.1,0-.1-.1s0,0,.1,0h.9c.3,0,.3,0,.3,0v-1.7h-7.2v-.4c0,0,7.2,0,7.2,0ZM41.8,2.5v-.9h.6c.2.1.3.2.3.3s0,.2-.2.2c-.1,0-.1,0-.1.4h3.5l.8-.6.8.6c0,0,0,.1,0,.2,0,.2-.1.2-.3.2h-4.8v1h2.9l.3-.3.6.4s0,0,0,.1,0,.2-.2.2c0,0-.2,0-.1.1v3.1c0,.2-.3.3-.4.3s-.2,0-.2-.6h-2.9v.9l2.3-.3c-.2-.1-.4-.2-.6-.3,0,0,0,0,0,0,0,0,0-.1.1-.1.3,0,2.2.7,2.2,1.5s-.1.3-.3.3-.2,0-.2-.1c-.3-.4-.5-.7-.8-.9-1,.3-2.2.5-3.4.6l-3.2.2c0,0,0,0,0,.2s0,.2-.2.2-.2-.1-.3-.3l-.2-.7c.4,0,.8,0,1.2,0,.8,0,1.5,0,2.3,0h.5v-1h-3v.3c0,.2-.3.2-.4.2s-.2,0-.2-.3v-3.9l.5.4h3v-1h-4.7v-.4c0,0,4.7,0,4.7,0ZM41.8,4.2h-3v1.1h3v-1.1ZM41.8,5.7h-3v1.1h3v-1.1ZM39,10.5s0-.1.1-.1c.2,0,1.6.9,1.6,1.5s-.2.3-.3.3-.2,0-.3-.2c-.4-.8-.9-1.3-1.1-1.4,0,0,0,0,0,0ZM42.4,5.3h2.9v-1.1h-2.9v1.1ZM42.4,6.7h2.9v-1.1h-2.9v1.1Z"/>
        </g>
        <g class="st0">
          <path d="M57.1,2c.1,0,.2.1.2.2s0,.2-.2.2-.2,0-.2,0c-.2.5-.7,1.4-1.1,1.8.6.6.6.7.6,1.1,0,.1,0,.1-.3.1h-.1c-.3-1-.8-1.5-1.1-1.7,0,0,0,0,0,0,0,0,0,0,0,0,.2,0,.5.3.7.4.2-.3.3-.6.5-.9l.4-1v-.4c0,0,.7.2.7.2ZM55.5,8.7l.6.2c.1,0,.2,0,.2.2,0,0,0,.1-.2.1s-.1,0-.1,0c-.1,1-.8,2.7-1,2.7s0,0,0,0,0,0,0,0c.1-.4.3-.8.4-1.3l.2-1.3v-.4ZM58.4,3.5c.1,0,.2.1.2.2,0,.1-.1.2-.2.2s-.1,0-.1,0c-.2.5-1,2-2.1,3.1h.4s1.6-.3,1.6-.3c0,0-.2-.5-.4-.7,0,0,0,0,0,0s0,0,0,0c.2,0,1.1,1.2,1.1,1.8s-.1.4-.3.4h-.2c0,0,0-.2,0-.2v-.7c-.5.1-.8.2-1.2.3v5.3c0,.2-.4.2-.5.2,0,0-.1,0-.1-.2v-5.1l-.9.2c0,0,0,0,0,.2s0,.1-.2.1c-.1,0-.2,0-.3-.3l-.2-.7h.9c1-1.2,1.9-3,2.1-3.5v-.4c.1,0,.7.3.7.3ZM58.2,10.7v-.2c0-.9-.3-1.6-.5-1.8,0,0,0,0,0,0,0,0,0,0,0,0,.2,0,.9,1.2.9,1.9s0,.4-.3.4h-.2ZM60.5,8.3l.3-.3.5.4c0,0,.1.1.1.2s0,.2-.2.2c0,0-.1,0-.2.1-.8,2.3-2.8,3.3-2.9,3.3s-.1,0-.1-.1,0,0,0,0c1.2-.9,2.1-2.1,2.3-3.3h-1.5v-.4c0,0,1.5,0,1.5,0ZM65.4,8.1c0,0,.1.1.1.2,0,.1-.1.1-.4.1-.4.5-1.1,1-1.6,1.1l.4.6c.3.4.9,1.1,1.9,1.5,0,0,.1,0,.1,0s0,0-.3.1c-.2,0-.3.1-.3.3,0,0,0,.2-.1.2-.1,0-.7-.5-.9-.7-.4-.4-1.2-1.3-1.7-2.9v-.4c-.1,0-.1,3.6-.1,3.6,0,.4-.3.8-1.1,1,0,0,0-.2-.1-.4,0-.1-.4-.3-1-.5,0,0,0,0,0-.1s0,0,.1,0c.6,0,1,.1,1.3.1s.3,0,.3-.2v-4.9h-1.6v.4c0,0,0,.1-.1.2-.4,0-.5.1-.5-.2V2.6l.5.4h1.2l.2-.5v-.5c0,0,0-.4,0-.4h.7c.1.1.2.2.2.3s0,.1-.3.3l-.3.5-.3.3h2.2l.3-.3.6.4s0,0,0,.1c0,0,0,.2-.2.2,0,0-.2,0-.2.1v3.7c0,0,0,.1-.1.2-.4,0-.5.1-.5-.2v-.4h-1.5c0,.5.4,1.7.6,2l.3.6c.3-.1.5-.4.8-.6.4-.4.5-.6.6-1l.6.4ZM60.4,3.3v1.3h3.7v-1.3h-3.7ZM60.4,5v1.3h3.7v-1.3h-3.7Z"/>
          <path d="M76.1,5.5c0,.3-.3.7-.7.7s-.7-.3-.7-.7.2-.7.7-.7.7.3.7.7ZM76.1,8.6c0,.3-.3.7-.7.7s-.7-.4-.7-.7.2-.7.7-.7.7.2.7.7Z"/>
        </g>
      </g>
      <g class="st0">
        <g class="st0">
          <path d="M96.7,7.5c0-1,.1-1.8.3-2.5s.5-1.1.9-1.4.9-.5,1.6-.5.9,0,1.2.3.6.5.9.8.4.8.5,1.3.2,1.2.2,2-.1,1.8-.3,2.4-.5,1.1-.9,1.4-.9.5-1.6.5-1.5-.3-2-.9c-.6-.7-.8-1.9-.8-3.5ZM97.8,7.5c0,1.4.2,2.3.5,2.8s.7.7,1.2.7.9-.2,1.2-.7.5-1.4.5-2.8-.2-2.4-.5-2.8-.7-.7-1.2-.7-.9.2-1.2.6c-.4.5-.5,1.5-.5,2.9Z"/>
          <path d="M120.6,10.7v1h-5.7c0-.3,0-.5.1-.7.1-.4.4-.8.7-1.1s.8-.8,1.4-1.3c.9-.8,1.6-1.4,1.9-1.8s.5-.9.5-1.3-.1-.8-.4-1.1-.7-.4-1.2-.4-.9.2-1.2.5-.5.7-.5,1.3h-1.1c0-.9.4-1.5.8-2s1.1-.6,2-.6,1.5.2,2,.7.7,1,.7,1.7,0,.7-.2,1-.4.7-.7,1-.9.9-1.6,1.5c-.6.5-1,.9-1.2,1.1s-.3.4-.4.6h4.2Z"/>
          <path d="M133.3,9.2v-1.1h3.2v1.1h-3.2Z"/>
          <path d="M150.8,7.1c-.4-.2-.8-.4-1-.7-.2-.3-.3-.7-.3-1.1,0-.6.2-1.2.7-1.6.4-.4,1-.6,1.8-.6s1.4.2,1.8.7.7,1,.7,1.6-.1.7-.3,1-.5.5-1,.7c.5.2.9.4,1.2.8s.4.8.4,1.4-.3,1.4-.8,1.9-1.2.8-2.1.8-1.5-.3-2.1-.8c-.5-.5-.8-1.1-.8-1.9s.1-1,.4-1.4c.3-.4.7-.6,1.2-.8ZM150.2,9.3c0,.3,0,.6.2.9s.4.5.6.7.6.2.9.2c.5,0,.9-.2,1.2-.5s.5-.7.5-1.2-.2-.9-.5-1.3-.8-.5-1.3-.5-.9.2-1.2.5-.5.7-.5,1.2ZM150.6,5.3c0,.4.1.7.4,1s.6.4,1,.4.7-.1,1-.4.4-.6.4-.9-.1-.7-.4-1-.6-.4-1-.4-.7.1-1,.4-.4.6-.4.9Z"/>
          <path d="M173,5.3h-1c0-.3-.2-.6-.4-.8-.3-.3-.6-.5-1.1-.5s-.6,0-.9.3c-.3.2-.6.6-.8,1.1s-.3,1.1-.3,2c.3-.4.6-.7.9-.9s.8-.3,1.2-.3c.7,0,1.3.3,1.8.8s.7,1.2.7,2-.1,1-.3,1.5-.6.8-1,1.1-.9.4-1.4.4c-.9,0-1.6-.3-2.2-1s-.8-1.7-.8-3.2.3-2.9.9-3.6c.5-.7,1.3-1,2.2-1s1.2.2,1.7.6.7.9.8,1.6ZM168.7,9c0,.4,0,.7.2,1s.4.6.6.8.6.3.9.3c.4,0,.8-.2,1.1-.5s.5-.8.5-1.5-.2-1.1-.5-1.4-.7-.5-1.2-.5-.9.2-1.2.5-.5.8-.5,1.3Z"/>
          <path d="M191.4,5.3h-1c0-.3-.2-.6-.4-.8-.3-.3-.6-.5-1.1-.5s-.6,0-.9.3c-.3.2-.6.6-.8,1.1s-.3,1.1-.3,2c.3-.4.6-.7.9-.9s.8-.3,1.2-.3c.7,0,1.3.3,1.8.8s.7,1.2.7,2-.1,1-.3,1.5-.6.8-1,1.1-.9.4-1.4.4c-.9,0-1.6-.3-2.2-1s-.8-1.7-.8-3.2.3-2.9.9-3.6c.5-.7,1.3-1,2.2-1s1.2.2,1.7.6.7.9.8,1.6ZM187.1,9c0,.4,0,.7.2,1s.4.6.6.8.6.3.9.3c.4,0,.8-.2,1.1-.5s.5-.8.5-1.5-.2-1.1-.5-1.4-.7-.5-1.2-.5-.9.2-1.2.5-.5.8-.5,1.3Z"/>
          <path d="M208.2,11.8h-1.1v-6.7c-.3.2-.6.5-1,.7s-.8.4-1.1.5v-1c.6-.3,1.1-.6,1.5-1s.8-.8.9-1.1h.7v8.6Z"/>
          <path d="M222.5,9.2v-1.1h3.2v1.1h-3.2Z"/>
          <path d="M238.3,7.5c0-1,.1-1.8.3-2.5s.5-1.1.9-1.4.9-.5,1.6-.5.9,0,1.2.3.6.5.9.8.4.8.5,1.3.2,1.2.2,2-.1,1.8-.3,2.4-.5,1.1-.9,1.4-.9.5-1.6.5-1.5-.3-2-.9c-.6-.7-.8-1.9-.8-3.5ZM239.4,7.5c0,1.4.2,2.3.5,2.8s.7.7,1.2.7.9-.2,1.2-.7.5-1.4.5-2.8-.2-2.4-.5-2.8-.7-.7-1.2-.7-.9.2-1.2.6c-.4.5-.5,1.5-.5,2.9Z"/>
          <path d="M262.2,5.3h-1c0-.3-.2-.6-.4-.8-.3-.3-.6-.5-1.1-.5s-.6,0-.9.3c-.3.2-.6.6-.8,1.1s-.3,1.1-.3,2c.3-.4.6-.7.9-.9s.8-.3,1.2-.3c.7,0,1.3.3,1.8.8s.7,1.2.7,2-.1,1-.3,1.5-.6.8-1,1.1-.9.4-1.4.4c-.9,0-1.6-.3-2.2-1s-.8-1.7-.8-3.2.3-2.9.9-3.6c.5-.7,1.3-1,2.2-1s1.2.2,1.7.6.7.9.8,1.6ZM257.9,9c0,.4,0,.7.2,1s.4.6.6.8.6.3.9.3c.4,0,.8-.2,1.1-.5s.5-.8.5-1.5-.2-1.1-.5-1.4-.7-.5-1.2-.5-.9.2-1.2.5-.5.8-.5,1.3Z"/>
          <path d="M276.7,7.1c-.4-.2-.8-.4-1-.7s-.3-.7-.3-1.1c0-.6.2-1.2.7-1.6s1-.6,1.8-.6,1.4.2,1.8.7.7,1,.7,1.6-.1.7-.3,1-.5.5-1,.7c.5.2.9.4,1.2.8s.4.8.4,1.4-.3,1.4-.8,1.9-1.2.8-2.1.8-1.5-.3-2.1-.8-.8-1.1-.8-1.9.1-1,.4-1.4.7-.6,1.2-.8ZM276.2,9.3c0,.3,0,.6.2.9s.4.5.6.7.6.2.9.2c.5,0,.9-.2,1.2-.5s.5-.7.5-1.2-.2-.9-.5-1.3-.8-.5-1.3-.5-.9.2-1.2.5-.5.7-.5,1.2ZM276.5,5.3c0,.4.1.7.4,1s.6.4,1,.4.7-.1,1-.4.4-.6.4-.9-.1-.7-.4-1-.6-.4-1-.4-.7.1-1,.4-.4.6-.4.9Z"/>
          <path d="M295.1,7.1c-.4-.2-.8-.4-1-.7s-.3-.7-.3-1.1c0-.6.2-1.2.7-1.6s1-.6,1.8-.6,1.4.2,1.8.7.7,1,.7,1.6-.1.7-.3,1-.5.5-1,.7c.5.2.9.4,1.2.8s.4.8.4,1.4-.3,1.4-.8,1.9-1.2.8-2.1.8-1.5-.3-2.1-.8-.8-1.1-.8-1.9.1-1,.4-1.4.7-.6,1.2-.8ZM294.5,9.3c0,.3,0,.6.2.9s.4.5.6.7.6.2.9.2c.5,0,.9-.2,1.2-.5s.5-.7.5-1.2-.2-.9-.5-1.3-.8-.5-1.3-.5-.9.2-1.2.5-.5.7-.5,1.2ZM294.9,5.3c0,.4.1.7.4,1s.6.4,1,.4.7-.1,1-.4.4-.6.4-.9-.1-.7-.4-1-.6-.4-1-.4-.7.1-1,.4-.4.6-.4.9Z"/>
        </g>
      </g>
    </g>
  </g>
</svg>