<?xml version="1.0" encoding="UTF-8"?>
<svg id="_圖層_2" xmlns="http://www.w3.org/2000/svg" version="1.1" viewBox="0 0 300 60.7">
  <!-- Generator: Adobe Illustrator 30.0.0, SVG Export Plug-In . SVG Version: 2.1.1 Build 123)  -->
  <defs>
    <style>
      .st0 {
        letter-spacing: .7em;
      }

      .st0, .st1 {
        font-family: NotoSansTC-Regular, 'Noto Sans TC';
        font-size: 20px;
      }

      .st1 {
        letter-spacing: .3em;
      }

      .st2 {
        font-family: NotoSansTC-Light, 'Noto Sans TC';
        font-size: 10px;
        font-weight: 300;
        letter-spacing: 0em;
      }

      .st3 {
        display: none;
      }
    </style>
  </defs>
  <g id="_圖層_1-2">
    <g>
      <g>
        <path d="M260.5,19.6c0-.6,0-1.2.2-1.8.2-.6.4-1.1.7-1.6.3-.5.7-1,1.1-1.4l.4.2c-.4.4-.8.9-1,1.3-.3.5-.5,1-.6,1.5s-.2,1.1-.2,1.6,0,1.1.2,1.6c.1.5.4,1,.6,1.5.3.5.6.9,1,1.3l-.4.2c-.4-.4-.8-.9-1.1-1.4-.3-.5-.5-1-.7-1.6s-.2-1.1-.2-1.8Z"/>
        <path d="M264.5,21.3h9v.5h-9v-.5ZM267.4,22l.5.3c-.3.2-.6.4-.9.7-.3.2-.7.4-1,.6-.4.2-.7.4-1,.5,0,0,0-.1-.1-.2,0,0-.1-.1-.2-.2.3-.1.7-.3,1-.5.4-.2.7-.4,1-.6.3-.2.6-.4.8-.6ZM266.9,15.2l.3.4c-.3.1-.6.2-.9.3s-.7.2-1,.3c0,0,0-.1,0-.2s0-.1,0-.2c.3,0,.6-.2.9-.3.3-.1.6-.2.8-.3ZM265.2,15.8h.4c0,.1.2,5.6.2,5.6h-.5l-.2-5.6ZM265.5,17.5h1.5v.4h-1.5v-.4ZM265.5,19.4h1.5v.4h-1.5v-.4ZM267.3,15.6h3.3v6h-.4v-5.5h-2.5v5.5h-.4v-6ZM268,16.8h1.9v.4h-1.9v-.4ZM268.2,18h1.6v2.3h-1.6v-2.3ZM268.5,18.4v1.6h.9v-1.6h-.9ZM270.1,22.3l.3-.3c.4.2.7.4,1.1.6s.7.4,1,.6c.3.2.6.4.8.6l-.3.4c-.2-.2-.5-.4-.8-.6-.3-.2-.6-.4-1-.6-.4-.2-.7-.4-1.1-.6ZM271,15.5h1.7v.4h-1.7v-.4ZM271,19.4h1.5v.4h-1.5v-.4ZM271,17.5h1.5v.4h-1.5v-.4ZM272.4,15.5h.4c0,.5,0,1,0,1.5,0,.6,0,1.1,0,1.7s0,1.1,0,1.6c0,.5,0,.9,0,1.3h-.4c0-.4,0-.8,0-1.3s0-1,0-1.6,0-1.1,0-1.7c0-.5,0-1.1,0-1.5Z"/>
        <path d="M277.8,18.6h.2s.3,0,.3,0c-.2,1.4-.5,2.5-.9,3.4-.4.9-.9,1.6-1.6,2.1,0,0,0,0,0-.1s0,0-.1-.1c0,0,0,0-.1-.1.6-.4,1.1-1.1,1.5-1.9s.7-1.9.8-3.2h0ZM275.7,15.7h2.3v.5h-2.3v-.5ZM276,19.3s0,0,0-.1c0,0,0-.1,0-.2s0,0,0-.1c0,0,.2,0,.3-.2s.2-.2.3-.4c0,0,.2-.3.4-.5.2-.3.3-.6.5-.9s.4-.7.5-1.1h0s.2-.1.2-.1l.3.2c-.3.6-.6,1.2-.9,1.7-.3.6-.6,1-1,1.4h0c0,0-.1,0-.2.1s-.1,0-.1,0c0,0,0,0,0,0ZM276.3,20c.2.7.5,1.3.8,1.8.3.4.7.8,1.2,1,.5.2,1,.4,1.5.5.6,0,1.2.1,1.8.1h2.5c.2,0,.3,0,.4,0,0,0,0,0,0,.1,0,0,0,.1,0,.2s0,.1,0,.2h-2.7c-.7,0-1.4,0-2-.2-.6,0-1.1-.3-1.6-.5-.5-.3-.9-.6-1.2-1.1-.4-.5-.6-1.1-.9-1.9l.4-.2ZM276.3,18.6h1.6v.4h-1.7v-.4ZM278.3,17.3h6.2v.4h-6.2v-.4ZM278.4,21.4h6v.4h-6v-.4ZM278.8,20h5.2v.4h-5.2v-.4ZM279,16h4.7v3.1h-4.8v-.4h4.3v-2.3h-4.2v-.4ZM281,15h.5v8h-.5v-8Z"/>
        <path d="M287,16.9h7.9v4.5h-.5v-4.1h-7v4.1h-.5v-4.6ZM287.3,20.3h7.5v.5h-7.5v-.5ZM290.7,15h.5v9.1h-.5v-9.1Z"/>
        <path d="M299.5,19.6c0,.6,0,1.2-.2,1.8s-.4,1.1-.7,1.6c-.3.5-.7,1-1.1,1.4l-.4-.2c.4-.4.8-.9,1-1.3.3-.5.5-1,.6-1.5.1-.5.2-1.1.2-1.6s0-1.1-.2-1.6c-.1-.5-.4-1-.6-1.5-.3-.5-.6-.9-1-1.3l.4-.2c.4.4.8.9,1.1,1.4.3.5.5,1,.7,1.6.2.6.2,1.1.2,1.8Z"/>
      </g>
      <g>
        <path d="M.8,17.8c.8-.2,1.7-.5,2.8-.9s2.2-.7,3.4-1l.2,1.4c-1,.3-2.1.7-3.1,1s-2,.7-2.9.9l-.4-1.4ZM1.1,11.5h6.1v1.4H1.1v-1.4ZM3.6,7.5h1.4v16.6c0,.4,0,.7-.2.9,0,.2-.3.4-.5.5-.2.1-.6.2-1,.2s-.9,0-1.6,0c0-.2,0-.4-.1-.7,0-.3-.2-.5-.3-.7.4,0,.8,0,1.2,0,.4,0,.6,0,.7,0,.1,0,.2,0,.3,0s0-.1,0-.3V7.5ZM8.6,18.9l1.4.2c-.2,1.5-.6,2.8-1.1,3.9-.5,1.2-1.1,2.1-1.9,2.9,0,0-.2-.2-.3-.3-.1-.1-.3-.2-.4-.3-.1-.1-.3-.2-.4-.2.8-.7,1.4-1.6,1.9-2.6.4-1,.8-2.2.9-3.5ZM7.2,14.5h12.4v1.2H7.2v-1.2ZM7.5,9.2h11.7v1.2H7.5v-1.2ZM9.4,20.7c.4,1,.8,1.7,1.4,2.3.6.5,1.3.9,2.1,1.1.8.2,1.7.3,2.7.3h3.1c.4,0,.7,0,.8,0,0,.1-.1.2-.2.4,0,.2-.1.3-.2.5,0,.2,0,.3,0,.4h-3.5c-1.2,0-2.3-.1-3.2-.4-.9-.2-1.7-.7-2.4-1.3-.7-.7-1.2-1.6-1.7-2.8l1.1-.4ZM8.3,11.8h9.9v6.8h-9.9v-1.2h8.5v-4.4h-8.5v-1.2ZM12.4,7.4h1.4v17.4l-1.4-.7V7.4ZM13.2,20.3h5.2v1.2h-5.2v-1.2Z"/>
        <path d="M38.6,17h.7s.7.2.7.2c-.3,2.1-.8,3.9-1.6,5.3-.7,1.4-1.6,2.5-2.7,3.3,0-.1-.2-.2-.3-.4l-.4-.4c-.1-.1-.2-.2-.4-.3,1-.7,1.8-1.7,2.5-2.9.7-1.3,1.1-2.8,1.4-4.6v-.3ZM35.3,18.6c0-.1,0-.3-.2-.4,0-.2-.1-.3-.2-.5,0-.2-.1-.3-.2-.4.2,0,.3-.1.5-.2.2,0,.3-.2.5-.4.2-.1.4-.4.6-.8.3-.4.6-.8.9-1.2.3-.5.6-.9.9-1.3s.5-.8.7-1h0s.4-.2.4-.2l1,.5c-.2.3-.5.7-.8,1.2-.3.5-.7.9-1,1.4-.4.5-.7,1-1,1.4s-.6.8-.9,1.2c-.2.1-.4.2-.6.3s-.3.2-.4.3c-.1.1-.2.2-.2.3ZM35,12.1h4.2v1.3h-4.2v-1.3ZM35.3,18.6v-1.2l.7-.4h3.2v1.2h-2.7c-.2,0-.5,0-.7,0s-.4.1-.5.2ZM35.7,8.1l1.1-.7c.5.5.9,1,1.4,1.6.5.6.8,1.1,1,1.5l-1.2.8c-.2-.3-.4-.6-.6-1-.3-.4-.5-.8-.9-1.1-.3-.4-.6-.8-.9-1.1ZM38.6,21.2c.4.9,1,1.5,1.7,2,.7.4,1.6.7,2.6.8,1,.1,2.2.2,3.5.2.7,0,1.5,0,2.3,0,.8,0,1.7,0,2.5,0,.8,0,1.6,0,2.3-.1,0,.1-.1.2-.2.4s-.1.3-.2.5c0,.2,0,.3-.1.5-.6,0-1.3,0-2,0-.7,0-1.5,0-2.3,0-.8,0-1.5,0-2.3,0-1.2,0-2.2,0-3.1-.1-.9,0-1.7-.3-2.5-.5-.7-.3-1.3-.7-1.9-1.2-.5-.5-1-1.2-1.4-2l1-.5ZM40.3,8.1h12.2v3.6h-1.4v-2.4h-9.3v2.4h-1.4v-3.6ZM40.4,20.5h12.3v1.2h-12.3v-1.2ZM41.5,13.5h10.1v5.7h-10.1v-5.7ZM41.9,11.2h9.2v1.1h-9.2v-1.1ZM42.7,14.5v1.3h7.5v-1.3h-7.5ZM42.7,16.8v1.4h7.5v-1.4h-7.5ZM45.7,10.1h1.5v13.2h-1.5v-13.2Z"/>
        <path d="M72.2,24.2v-5.7l-4.4-9h2l1.9,4.1c.2.5.5,1.1.7,1.6.2.5.5,1.1.7,1.6h0c.3-.6.5-1.1.8-1.6.2-.5.5-1.1.7-1.6l1.9-4.1h1.9l-4.4,9v5.7h-1.8Z"/>
        <path d="M93.2,24.2v-1.1c1.4-1.4,2.7-2.7,3.7-3.8,1-1.1,1.8-2.1,2.3-2.9.5-.9.8-1.7.8-2.5s0-1-.3-1.5-.5-.7-.9-1-.9-.4-1.5-.4-1.2.2-1.7.5c-.5.3-1,.7-1.4,1.2l-1.1-1c.6-.7,1.2-1.2,1.9-1.6.7-.4,1.5-.6,2.4-.6s1.6.2,2.3.5c.6.3,1.1.8,1.5,1.5.4.6.5,1.4.5,2.2s-.3,1.8-.8,2.7-1.2,1.9-2.1,2.9c-.9,1-1.9,2.1-3,3.3.4,0,.8,0,1.2,0s.8,0,1.2,0h4.1v1.6h-9.2Z"/>
        <path d="M117.3,24.2l5-14.7h2.1l5,14.7h-2l-2.6-8.2c-.3-.8-.5-1.7-.8-2.5s-.5-1.6-.7-2.5h0c-.2.9-.5,1.7-.7,2.5-.2.8-.5,1.6-.8,2.5l-2.6,8.2h-1.9ZM119.8,19.8v-1.5h6.8v1.5h-6.8Z"/>
        <path d="M144.1,22.3c.7-.1,1.4-.3,2.2-.5.8-.2,1.7-.4,2.7-.6.9-.2,1.9-.5,2.8-.7v1.4c-1.2.3-2.5.7-3.8,1-1.3.3-2.5.6-3.6.9l-.4-1.5ZM144.3,11.2h7.8v1.4h-7.8v-1.4ZM145.1,13.7l1.2-.2c.2.8.3,1.6.5,2.4.1.9.3,1.7.4,2.5.1.8.2,1.6.2,2.2l-1.3.2c0-.7,0-1.4-.2-2.2,0-.8-.2-1.7-.3-2.5-.1-.9-.3-1.7-.4-2.4ZM146.6,7.9l1.3-.4c.3.5.6,1,.8,1.5s.5,1,.6,1.4l-1.4.5c-.1-.4-.3-.9-.6-1.5s-.5-1.1-.8-1.6ZM149.7,13.3l1.4.3c-.1.7-.2,1.4-.3,2.1-.1.7-.3,1.5-.4,2.2-.1.7-.3,1.4-.4,2.1-.1.7-.3,1.3-.4,1.8l-1.1-.3c.1-.5.3-1.1.4-1.8.1-.7.2-1.4.4-2.1.1-.7.2-1.5.3-2.2.1-.7.2-1.4.2-2ZM152.5,17h9v8.7h-1.5v-7.3h-6v7.4h-1.5v-8.8ZM153.2,23.5h7.6v1.4h-7.6v-1.4ZM155.7,7.4h1.5v10.2h-1.5V7.4ZM156.6,11.6h5.7v1.4h-5.7v-1.4Z"/>
        <path d="M182.2,24.5c-.8,0-1.4,0-2-.3s-1.1-.4-1.5-.7c-.4-.3-.8-.6-1.1-1l.9-1.2c.4.4.9.8,1.5,1.2s1.3.5,2.1.5,1.1-.1,1.6-.3c.4-.2.8-.5,1-.9.3-.4.4-.9.4-1.5s-.1-1.1-.4-1.5c-.3-.4-.8-.8-1.4-1s-1.6-.4-2.7-.4v-1.4c1,0,1.8-.1,2.4-.4s1-.6,1.3-1c.3-.4.4-.9.4-1.4s-.2-1.3-.7-1.7-1-.6-1.8-.6-1.1.1-1.6.4c-.5.3-1,.6-1.4,1l-1-1.2c.6-.5,1.2-.9,1.8-1.2.7-.3,1.4-.5,2.2-.5s1.6.1,2.2.4c.6.3,1.2.7,1.5,1.2.4.5.6,1.2.6,2s-.2,1.6-.7,2.2c-.5.6-1.1,1-1.9,1.3h0c.6.2,1.1.5,1.6.8.5.3.8.8,1.1,1.3.3.5.4,1.1.4,1.8s-.2,1.6-.6,2.2c-.4.6-1,1.1-1.7,1.4-.7.3-1.5.5-2.4.5Z"/>
        <path d="M207.7,8.1l1.5.4c-.4,1.1-.8,2.2-1.4,3.2-.6,1-1.2,1.9-1.9,2.8-.7.8-1.4,1.6-2.2,2.2,0-.1-.2-.2-.4-.4-.2-.1-.3-.3-.5-.4s-.3-.2-.4-.3c1.2-.8,2.2-1.9,3.1-3.2s1.6-2.7,2.1-4.3ZM209.8,15.4h1.6c-.1,1.1-.3,2.2-.5,3.2-.2,1-.6,2-1.1,2.9-.5.9-1.2,1.8-2,2.5-.9.7-2,1.4-3.4,1.9,0-.1-.2-.3-.3-.5-.1-.2-.2-.3-.4-.5s-.2-.3-.4-.4c1.3-.4,2.4-1,3.2-1.6.8-.7,1.4-1.4,1.9-2.2.4-.8.8-1.7,1-2.6.2-.9.3-1.8.4-2.8ZM205.6,15h11.5v1.5h-11.5v-1.5ZM210.9,7.8h4.4v1.4h-4.4v-1.4ZM216.5,15h1.6v.5c0,.1,0,.2,0,.3,0,1.6-.2,2.9-.2,4s-.2,2-.3,2.7c-.1.7-.2,1.3-.3,1.7-.1.4-.3.7-.5.9-.2.3-.4.4-.7.5-.2.1-.5.2-.9.2-.3,0-.8,0-1.4,0s-1.2,0-1.8,0c0-.2,0-.5-.1-.8,0-.3-.2-.5-.4-.7.7,0,1.3,0,1.8.1s1,0,1.2,0,.4,0,.5,0c.1,0,.2-.1.3-.2.2-.2.4-.6.5-1.2.1-.6.2-1.5.3-2.8,0-1.2.2-2.8.3-4.8v-.3ZM213.8,7.8h1.7c.3,1.1.8,2.1,1.4,3s1.2,1.8,2,2.6c.7.8,1.5,1.4,2.4,1.9-.1.1-.2.2-.4.4-.1.2-.3.3-.4.5-.1.2-.2.3-.3.5-.9-.6-1.7-1.3-2.5-2.1-.8-.8-1.4-1.8-2-2.8-.6-1-1.1-2-1.5-3.1h-.4v-.8Z"/>
        <path d="M240.1,7.3l1.1.5c-.3.8-.7,1.5-1.2,2.3-.5.7-1,1.4-1.5,2.1-.5.6-1.1,1.2-1.6,1.7,0-.1,0-.3-.1-.5,0-.2-.2-.4-.2-.6,0-.2-.1-.3-.2-.5.7-.6,1.4-1.3,2.1-2.2s1.3-1.8,1.7-2.8ZM236.5,23.8c.8-.2,1.8-.4,3-.7,1.2-.3,2.4-.5,3.7-.8v1.2c-1.1.3-2.2.6-3.4.9s-2.2.5-3.1.8l-.3-1.4ZM236.8,16h6.5v1.3h-6.5v-1.3ZM237.1,18.7l.9-.3c.2.6.3,1.2.5,1.9.1.7.2,1.3.3,1.8l-1,.3c0-.5-.1-1.1-.2-1.8-.1-.7-.3-1.3-.5-1.9ZM237.8,12.5h5v1.3h-5v-1.3ZM239.6,13.1h1.2v10.7l-1.2.2v-10.9ZM239.6,9.4l.6-1.1c.5.3.9.6,1.3,1,.4.4.9.7,1.3,1.1.4.4.7.7,1,1l-.6,1.2c-.3-.3-.6-.6-1-1-.4-.4-.8-.7-1.2-1.1-.4-.4-.9-.7-1.3-1ZM242.1,18.2l1.1.4c-.2.6-.4,1.3-.5,1.9-.2.7-.4,1.2-.5,1.7l-.9-.3c.1-.3.2-.7.3-1.1.1-.4.2-.9.3-1.3,0-.4.2-.9.2-1.2ZM243.6,24.2h11.3v1.2h-11.3v-1.2ZM243.6,12.7h11.4v1.2h-11.4v-1.2ZM244.2,9.3h10.3v1.2h-10.3v-1.2ZM244.5,21.7h9.7v1.1h-9.7v-1.1ZM244.8,14.9h9.2v5.7h-9.2v-5.7ZM245.9,10.8l1.2-.3c.2.3.4.7.5,1.1.1.4.3.7.3,1l-1.3.3c0-.3-.2-.6-.3-1s-.3-.8-.5-1.1ZM246.1,15.9v1.4h6.5v-1.4h-6.5ZM246.1,18.2v1.4h6.5v-1.4h-6.5ZM247.9,7.7l1.4-.4c.2.3.5.7.6,1.1.2.4.3.7.4,1.1l-1.5.4c0-.3-.1-.7-.3-1.1-.2-.4-.4-.8-.6-1.1ZM248.6,15.4h1.3v4.5h0v4.9h-1.4v-4.9h0v-4.5ZM251.4,10.5l1.5.3c-.2.5-.5.9-.7,1.4-.3.5-.5.9-.7,1.2l-1.2-.3c.1-.2.3-.5.4-.8.1-.3.3-.6.4-.9.1-.3.2-.6.3-.9Z"/>
      </g>
      <g>
        <path d="M1.7,52.7v-1.1c1.5-1.3,2.8-2.6,3.8-3.7,1-1.1,1.7-2.1,2.2-3.1.5-1,.7-1.8.7-2.7s0-1.1-.3-1.5c-.2-.4-.5-.8-.9-1-.4-.2-.9-.4-1.5-.4s-1.2.2-1.7.5c-.5.3-1,.7-1.4,1.2l-1.1-1c.6-.7,1.2-1.2,1.9-1.6.7-.4,1.5-.6,2.4-.6s1.6.2,2.3.5c.6.4,1.1.9,1.5,1.5.4.6.5,1.4.5,2.3s-.2,2-.7,3-1.2,2-2,3-1.9,2.1-3,3.2c.4,0,.8,0,1.2,0s.8,0,1.2,0h4.1v1.6H1.7Z"/>
        <path d="M22.3,52.7c0-1.4.2-2.7.4-3.8.2-1.2.4-2.3.7-3.3s.7-2,1.2-3c.5-1,1.1-2,1.8-3h-7.1v-1.6h9.2v1.1c-.9,1.1-1.6,2.2-2.1,3.2-.5,1-1,2-1.3,3.1-.3,1.1-.5,2.2-.7,3.3-.1,1.2-.2,2.5-.3,3.9h-1.9Z"/>
        <path d="M36.8,47.8v-1.4h5.1v1.4h-5.1Z"/>
        <path d="M54.5,52.9c-.8,0-1.4,0-2-.3s-1.1-.4-1.5-.7c-.4-.3-.8-.6-1.1-1l.9-1.2c.4.4.9.8,1.5,1.2.6.3,1.3.5,2.1.5s1.1-.1,1.5-.3c.4-.2.8-.5,1.1-.9.3-.4.4-.9.4-1.5s-.1-1.1-.4-1.5c-.3-.4-.8-.8-1.4-1-.7-.2-1.6-.4-2.7-.4v-1.4c1,0,1.8-.1,2.4-.4.6-.2,1-.6,1.3-1,.3-.4.4-.9.4-1.4s-.2-1.3-.7-1.7-1-.6-1.8-.6-1.1.1-1.6.4c-.5.3-1,.6-1.4,1l-1-1.2c.6-.5,1.2-.9,1.8-1.2.7-.3,1.4-.5,2.2-.5s1.6.1,2.2.4c.6.3,1.2.7,1.5,1.2.4.5.5,1.2.5,2s-.2,1.6-.7,2.2c-.5.6-1.1,1-1.9,1.3h0c.6.2,1.1.5,1.6.8.5.3.8.8,1.1,1.3.3.5.4,1.1.4,1.8s-.2,1.6-.6,2.2c-.4.6-1,1.1-1.7,1.4-.7.3-1.5.5-2.4.5Z"/>
        <path d="M72.8,52.9c-.7,0-1.3-.2-1.9-.5s-1.1-.8-1.6-1.4c-.4-.6-.8-1.4-1-2.3-.2-.9-.4-2-.4-3.2s.1-2.6.4-3.7c.3-1,.7-1.8,1.2-2.5s1.1-1.1,1.7-1.4c.7-.3,1.3-.4,2-.4s1.4.1,2,.4c.6.3,1,.6,1.5,1.1l-1,1.1c-.3-.3-.6-.6-1-.8-.4-.2-.8-.3-1.3-.3-.7,0-1.3.2-1.9.6-.6.4-1,1.1-1.4,2-.3.9-.5,2.2-.5,3.8s.1,2.3.4,3.2c.2.9.6,1.5,1.1,2,.5.4,1,.7,1.7.7s.9-.1,1.3-.4c.4-.3.7-.7.9-1.2.2-.5.3-1.1.3-1.7s0-1.2-.3-1.7c-.2-.5-.5-.9-.9-1.1-.4-.3-.9-.4-1.5-.4s-1,.2-1.5.5-1.1.8-1.6,1.5v-1.4c.2-.4.6-.7,1-1,.4-.3.8-.5,1.2-.7.4-.2.8-.2,1.2-.2.8,0,1.5.2,2.1.5.6.3,1.1.8,1.4,1.5.3.7.5,1.5.5,2.6s-.2,1.8-.6,2.5c-.4.7-.9,1.3-1.5,1.7-.6.4-1.3.6-2.1.6Z"/>
        <path d="M85.1,49.6c.5-.2,1.1-.4,1.7-.6s1.4-.5,2.1-.8c.7-.3,1.5-.5,2.2-.8l.2,1.3c-1,.4-2,.8-3,1.2-1,.4-1.9.8-2.7,1.1l-.5-1.5ZM85.4,40.7h5.5v1.4h-5.5v-1.4ZM87.6,36.1h1.4v13h-1.4v-13ZM91.1,45.7h12.5v1.4h-12.5v-1.4ZM91.7,36.9h11.3v1.4h-11.3v-1.4ZM92.4,39.8l1.2-.3c.2.5.4,1.1.6,1.7.2.6.3,1.2.4,1.7.1.6.2,1.1.3,1.5l-1.3.3c0-.5,0-1-.2-1.5-.1-.6-.2-1.2-.4-1.8-.2-.6-.3-1.1-.5-1.7ZM96.6,37.2h1.5v17h-1.5v-17ZM101,39.3l1.4.3c-.2.6-.3,1.2-.5,1.8-.2.6-.4,1.2-.6,1.8s-.4,1.1-.6,1.5l-1.1-.3c.2-.5.3-1,.5-1.6s.3-1.2.5-1.8c.2-.6.3-1.2.4-1.7Z"/>
        <path d="M112.9,58.2v-22.3h1.3v22.3h-1.3Z"/>
        <path d="M131.5,41.5l1.3.5c-.5,1-1,2.1-1.6,3-.6,1-1.3,1.9-2,2.8-.7.9-1.5,1.7-2.3,2.4-.8.7-1.6,1.3-2.5,1.9,0-.1-.2-.3-.3-.4-.1-.2-.3-.3-.4-.4-.1-.1-.3-.3-.4-.4.8-.5,1.6-1,2.5-1.7.8-.7,1.6-1.4,2.3-2.2.7-.8,1.4-1.7,2-2.6.6-.9,1.1-1.8,1.6-2.8ZM124,40.8h17.4v1.5h-17.4v-1.5ZM131.8,35.9h1.6v18.4h-1.6v-18.4ZM133.7,41.6c.4.9,1,1.8,1.6,2.7.6.9,1.3,1.8,2,2.6.7.8,1.5,1.6,2.3,2.2.8.7,1.6,1.2,2.4,1.7-.1,0-.3.2-.4.4s-.3.3-.4.5c-.1.2-.2.3-.3.5-.8-.5-1.6-1.1-2.4-1.9s-1.6-1.5-2.3-2.4c-.7-.9-1.4-1.8-2.1-2.8-.6-1-1.2-2-1.7-3l1.3-.5Z"/>
        <path d="M152.9,41l.9.3c-.2.8-.4,1.6-.6,2.5-.2.9-.5,1.7-.8,2.5-.3.8-.6,1.6-.9,2.3-.3.7-.7,1.3-1,1.8,0-.2-.2-.4-.3-.7s-.3-.5-.4-.6c.3-.5.7-1,1-1.6.3-.6.6-1.3.9-2s.5-1.5.8-2.2.4-1.5.5-2.2ZM150.1,40.2h6.4v1.4h-6.4v-1.4ZM152.9,35.9h1.4v18.4h-1.4v-18.4ZM154.2,42.9c.1.1.3.4.5.7.2.3.5.7.8,1.1.3.4.5.8.8,1.1s.4.6.5.7l-.8,1.1c-.1-.3-.3-.6-.5-1-.2-.4-.4-.8-.7-1.2-.2-.4-.5-.8-.7-1.1-.2-.4-.4-.6-.5-.8l.7-.6ZM156.3,44.2h12.3v1.4h-12.3v-1.4ZM157.6,36.9h9.3v1.3h-8v16h-1.3v-17.3ZM160.5,37.5h1.1v16.5h-1.1v-16.5ZM163.2,37.5h1.1v16.5h-1.1v-16.5ZM166.1,36.9h1.4v15.8c0,.3,0,.6-.1.8,0,.2-.2.4-.4.5-.2.1-.4.2-.7.2s-.6,0-1,0c0-.1,0-.3,0-.4,0-.2-.1-.3-.2-.5,0-.2-.1-.3-.2-.4.3,0,.5,0,.7,0s.3,0,.4,0c.1,0,.2,0,.2-.2v-15.8Z"/>
        <path d="M177.2,36.8h16.7v17.5h-1.5v-16.2h-13.8v16.2h-1.4v-17.5ZM178,52h15.2v1.4h-15.2v-1.4ZM179.5,49c.8-.1,1.7-.3,2.8-.5s2.2-.4,3.3-.6v1.1c-1,.2-2,.4-3,.6-1,.2-1.9.4-2.8.5l-.2-1.2ZM179.7,40.8h11.7v1.1h-11.7v-1.1ZM180.4,43.2h4.5v3.9h-4.5v-3.9ZM181.5,44.1v2h2.3v-2h-2.3ZM189.4,42.9l1.2.2c-.5,1.9-1.2,3.5-2.2,4.9-1,1.4-2.2,2.5-3.5,3.4,0,0-.1-.2-.2-.3s-.2-.2-.3-.4-.2-.2-.3-.3c1.4-.8,2.5-1.8,3.4-3.1.9-1.3,1.6-2.8,2-4.5ZM185.6,38.6h1.3c0,1.4.2,2.8.3,4.1.1,1.3.3,2.5.6,3.5.2,1,.6,1.9.9,2.5.4.6.8,1,1.3,1.1.1,0,.3-.2.4-.5,0-.4.2-.9.2-1.6,0,0,.2.2.3.3.1,0,.2.2.4.3.1,0,.2.1.3.2-.1,1.1-.4,1.8-.7,2.3s-.8.5-1.3.3c-.7-.1-1.3-.6-1.7-1.3s-.8-1.7-1.1-2.8c-.3-1.2-.5-2.4-.7-3.9-.2-1.4-.3-2.9-.4-4.5ZM188,39.1l.7-.7c.4.2.8.4,1.2.6.4.3.7.5,1,.7l-.7.8c-.2-.2-.5-.5-1-.8-.4-.3-.8-.5-1.2-.7Z"/>
        <path d="M206,40.8l1.7.3c-.2,1-.5,2-.8,3.1-.3,1.1-.7,2.1-1.2,3.1s-1,1.9-1.6,2.6c-.1,0-.3-.2-.4-.3-.2-.1-.3-.2-.5-.3-.2,0-.3-.2-.5-.2.6-.7,1.1-1.5,1.6-2.5.4-.9.8-1.9,1.1-2.9.3-1,.5-2,.7-2.8ZM211.2,36.1h1.6v16c0,.5,0,1-.2,1.2-.2.3-.4.5-.8.6-.4.1-.9.2-1.5.2-.6,0-1.4,0-2.4,0,0-.1,0-.3-.1-.5s-.2-.4-.2-.6c0-.2-.2-.4-.2-.5.5,0,1,0,1.4,0,.5,0,.8,0,1.2,0s.6,0,.7,0c.2,0,.3,0,.4-.1,0,0,.1-.2.1-.4v-16ZM216.1,41.2l1.4-.5c.6.9,1.2,1.9,1.7,3s1,2.1,1.4,3.1c.4,1,.7,1.9.9,2.7l-1.6.7c-.1-.8-.4-1.7-.8-2.8s-.8-2.1-1.4-3.2c-.5-1.1-1.1-2.1-1.7-3.1Z"/>
        <path d="M233.2,36.2l1.5.3c-.3,1-.6,2-1,3-.4,1-.8,1.9-1.3,2.7-.5.8-1,1.6-1.5,2.2,0,0-.2-.2-.4-.3-.2-.1-.3-.2-.5-.3-.2-.1-.3-.2-.5-.3.5-.6,1-1.3,1.5-2.1.5-.8.9-1.6,1.2-2.6.4-.9.7-1.8.9-2.8ZM229.5,52.2h17.9v1.5h-17.9v-1.5ZM231.7,45.6h14v1.4h-14v-1.4ZM232.6,39.7h13.8v1.5h-13.8v-1.5ZM237.7,35.9h1.6v17h-1.6v-17Z"/>
        <path d="M255.7,42.7l.8-1.1c.4.2.8.4,1.3.7.5.3.9.5,1.3.7.4.2.8.5,1.1.6l-.8,1.2c-.3-.2-.6-.4-1-.7s-.9-.5-1.3-.8-.9-.5-1.3-.7ZM256.1,53c.4-.5.8-1.1,1.2-1.8.4-.7.9-1.5,1.4-2.3.5-.8.9-1.6,1.3-2.3l1.1,1c-.3.7-.7,1.4-1.1,2.2s-.8,1.5-1.3,2.2-.8,1.4-1.2,2l-1.3-1ZM256.7,37.2l.8-1.1c.4.2.9.4,1.3.7.5.3.9.5,1.4.8.4.2.8.5,1.1.6l-.9,1.2c-.3-.2-.6-.5-1.1-.7-.4-.3-.9-.5-1.4-.8s-.9-.5-1.3-.7ZM261.2,41.7h12.7v1.4h-12.7v-1.4ZM271.9,35.9l1.2,1.2c-.9.3-2,.6-3.2.8-1.2.2-2.4.4-3.7.6-1.3.2-2.5.3-3.7.4,0-.2-.1-.4-.2-.6,0-.3-.2-.5-.2-.6.9,0,1.7-.2,2.7-.3.9-.1,1.8-.3,2.7-.4.9-.2,1.7-.3,2.4-.5.8-.2,1.4-.4,2-.6ZM262.7,46.5h10v7.7h-1.4v-6.3h-7.1v6.4h-1.4v-7.8ZM263.6,52h8.2v1.4h-8.2v-1.4ZM267,37.7h1.4v9.6h-1.4v-9.6Z"/>
        <path d="M282.9,36.7h16.8v17.6h-1.5v-16.3h-13.9v16.3h-1.4v-17.6ZM283.8,52.2h15.2v1.3h-15.2v-1.3ZM290.8,38.4l1.3.2c-.5,2.3-1.3,4.2-2.3,5.7-1.1,1.5-2.5,2.7-4.2,3.6,0,0-.1-.2-.2-.3,0-.1-.2-.3-.3-.4-.1-.1-.2-.2-.3-.3,1.7-.8,3-1.9,4-3.3,1-1.4,1.7-3.1,2.1-5.2ZM285.2,43.4h12.2v1h-12.2v-1ZM286.1,41.1h10.5v1h-10.5v-1ZM286.8,39.2l1-.4c.2.3.5.6.7.9s.4.6.5.9l-1,.4c0-.3-.2-.6-.4-.9-.2-.3-.4-.6-.7-.9ZM287.9,45.8h1.2v3.9c0,.3,0,.4.2.5s.5.1.9.1h3.5c.2,0,.4,0,.6-.1.1,0,.2-.2.3-.5,0-.2,0-.6.1-1,.1,0,.3.2.5.2s.4.1.5.2c0,.6-.1,1-.2,1.4s-.3.5-.6.7-.6.2-1.1.2h-3.7c-.6,0-1.1,0-1.4-.1-.3,0-.6-.2-.7-.5-.1-.2-.2-.6-.2-1v-3.9ZM288.5,45.8h4.8v1h-4.8v-1ZM292.9,45.8h1.1v.4c0,.8,0,1.3-.1,1.7,0,.4-.1.6-.3.8-.2.2-.5.3-.9.3-.1,0-.4,0-.7,0s-.6,0-.9,0c0-.1,0-.3-.1-.5,0-.2-.1-.3-.2-.5.3,0,.6,0,.9,0,.3,0,.4,0,.5,0,.2,0,.4,0,.4-.1,0,0,.1-.3.2-.6,0-.3,0-.8,0-1.5v-.2ZM292.4,44.3l.8-.7c.5.3,1,.7,1.6,1.1.5.4,1,.8,1.5,1.2s.8.8,1.1,1.1l-.9.8c-.3-.3-.7-.7-1.1-1.1s-.9-.8-1.5-1.2-1-.8-1.5-1.1ZM294.5,38.8l1.2.3c-.2.5-.5.9-.7,1.3-.2.4-.5.8-.7,1.2l-1-.3c.2-.3.4-.8.6-1.2.2-.5.4-.9.6-1.3Z"/>
      </g>
      <g class="st3">
        <text class="st2" transform="translate(258 23.4)"><tspan x="0" y="0">（興建中）</tspan></text>
        <text class="st0" transform="translate(.3 24.2)"><tspan x="0" y="0">捷運Y2A站3分鐘</tspan></text>
        <text class="st1" transform="translate(.8 52.7)"><tspan x="0" y="0">27-36坪|木柵國小生活圈</tspan></text>
      </g>
    </g>
  </g>
</svg>