<?xml version="1.0" encoding="UTF-8"?>
<svg id="_圖層_2" xmlns="http://www.w3.org/2000/svg" version="1.1" viewBox="0 0 300 14.5">
  <!-- Generator: Adobe Illustrator 30.0.0, SVG Export Plug-In . SVG Version: 2.1.1 Build 123)  -->
  <defs>
    <style>
      .st0 {
        isolation: isolate;
      }
    </style>
  </defs>
  <g id="_圖層_1-2">
    <g>
      <g class="st0">
        <g class="st0">
          <path d="M1,7c0,0,0,0,0-.1s0,0,0-.1c.7-1.2,1.4-2.6,1.9-3.9H.8v-.4c0,0,2.1,0,2.1,0l.3-.3.4.4c0,0,0,.1,0,.2s0,.2-.2.2c0,0-.2,0-.2.2-.4,1-.8,1.9-1.2,2.6h1.2l.4-.4.6.6s0,0,0,.1c0,.1-.1.2-.3.2,0,0-.2,0-.2.1-.3,2-.5,2.8-1,3.7.7.9,1.8,1.6,5.2,1.6s2.1,0,3.3-.2c0,0,0,0,0,0s0,.1-.2.2c-.1,0-.2.2-.2.3,0,.1,0,.2,0,.2-.8,0-1.5,0-2.1,0-1,0-1.8,0-2.4-.1-2-.3-3-.8-3.7-1.7-.3.6-.5.9-1,1.3-.5.5-1.3.9-1.3.9s-.1,0-.1-.1,0,0,0,0c.9-.6,1.6-1.5,2-2.5-.3-.5-.6-1.2-.7-1.9-.2.5-.4.9-.6,1.2,0,.3,0,.4-.2.4s-.2,0-.2-.2l-.2-.4c.4-.3.8-.8,1.2-1.4,0,0,0-.1.1-.1s0,0,.1.1c.2.8.4,1.5.7,1.9l.4-1.1c.2-.6.3-1.4.4-2.2v-.2s-1.3,0-1.3,0l-.4.7s-.1,0-.2.1h-.4ZM7.1,9.4v-1.3h-2.5v-.4c0,0,2.5,0,2.5,0v-1.3h-2.1v-.4c0,0,2.1,0,2.1,0v-1.3h-3v-.4c0,0,3,0,3,0v-1.3h-2.4v-.4c0,0,2.4,0,2.4,0v-1h.7c.2.1.3.2.3.3s0,.2-.2.2c-.2,0-.2,0-.2.5h1.7l.3-.3.6.4s0,0,0,.1,0,.2-.2.2c0,0-.2,0-.2.1v1.2h.2l.7-.6.6.6c0,0,0,.1,0,.2,0,.1,0,.2-.2.2h-1.4v2.2c0,0,0,.1,0,.2-.4,0-.5.1-.5-.2v-.5h-1.8v1.3h1.4l.7-.5.6.5s0,0,0,.2c0,.2-.2.2-.3.2h-2.5v1.3h1.9l.8-.6.8.6c0,0,0,.1,0,.2,0,.2-.1.2-.3.2h-3.3v1.5c0,.2-.4.3-.5.3s-.1,0-.1-.1v-1.7h-3.1v-.4c0,0,3.1,0,3.1,0ZM7.7,3.1v1.3h1.8v-1.3h-1.8ZM7.7,4.7v1.3h1.8v-1.3h-1.8Z"/>
          <path d="M19.1,11.9c.6-.3,1.1-.8,1.4-1.8,0,0,0,0,.1,0s0,0,0,.1c0,.5-.2,1-.5,1.4-.3.7-.8,1-1,1s-.3-.2-.3-.3,0-.2.3-.4ZM19.3,1.7l.6.5h1.9l.3-.4.6.4s0,0,0,.1c0,.1,0,.2-.2.2,0,0-.1,0-.1.1v6.8c0,0,0,.1-.1.2-.4,0-.5.1-.5-.1v-.5h-1.9v.6c0,.1-.1.2-.5.3,0,0-.1,0-.1-.3V1.7ZM19.9,5.3h1.9v-2.8h-1.9v2.8ZM19.9,8.6h1.9v-2.9h-1.9v2.9ZM22.3,10.3s0,0,0,0c0,0,0,0,.1,0,.2,0,.9,1.2.9,1.9s-.2.5-.3.5-.3-.3-.3-.3c0-.1,0-.3,0-.4,0-.4,0-1.1-.4-1.5ZM28.4,2.2l.2-.4.5.3c.1,0,.2.1.2.2s0,.2-.2.3c0,0-.2,0-.2.1,0,.4,0,.9-.1,1.3-.2.9-.3,1.3-1.3,1.6,0-.4-.4-.6-1-.9,0,0-.1,0-.1-.1s0-.1.1-.1,0,0,0,0c.5.2.9.3,1.1.3.1,0,.3-.1.4-.3,0-.1.2-.4.2-.9v-.9c0,0,.1-.3.1-.3h-2.7c0,.6-.3,1.6-.9,2.3-.6.8-1.9,1.3-2,1.3s-.1,0-.1-.1,0,0,0-.1c1.7-.7,2.2-2,2.3-3.3h-1.8v-.4c0,0,5.1,0,5.1,0ZM23.7,5.9l.5.4h3.7l.3-.3.6.4s0,0,0,.1,0,.2-.2.2c0,0-.1,0-.1.1v3c0,0,0,.1-.1.2-.4,0-.5.1-.5-.2v-.6h-3.7v.6s0,.1-.1.2c-.4,0-.5.1-.5-.2v-3.7ZM24.3,6.7v2.1h3.7v-2.1h-3.7ZM25.6,12.3c-.1-.7-.5-1.6-.9-2,0,0,0,0,0,0,0,0,0,0,.1,0,.3,0,1.4,1.3,1.4,2s0,.4-.2.4-.3,0-.3-.3ZM29.2,12.4c0,.1-.1.2-.3.2s-.2,0-.3-.2c-.3-1-.9-1.8-1.4-2.1,0,0,0,0,0,0s0-.1.1-.1c.3,0,1.7,1.2,1.9,2v.3Z"/>
          <path d="M39.7,6.3l.7-.6.6.6c0,0,0,.1,0,.2,0,.1,0,.3-.3.3h-2.6l-.4,1.4h1.7l.2-.4.5.3c.1,0,.2.2.2.3s0,.2-.2.2c0,0-.2,0-.2.2,0,.6-.1,1.2-.2,1.8-.2.9-.3,1.8-1.7,2.2,0-.3-.2-.6-.8-.8,0,0-.1,0-.1-.1s0-.1.1-.1,0,0,0,0c.4.1.7.2.9.2.2,0,.4-.2.6-.4.2-.2.3-.6.3-1.3v-1.4c.1,0,.2-.3.2-.3h-1.8l-.2.8c0,.1-.2.2-.3.2-.2,0-.3-.2-.3-.3l.7-2.5h-1.1v-.4c0,0,3.1,0,3.1,0ZM37.2,2l.5.3h2l.3-.4.5.3c0,0,0,.1,0,.2,0,0,0,.1-.1.2,0,0-.1,0-.1.1v2.8c0,.2,0,.2-.4.3,0,0-.1,0-.1-.3v-.4h-1.9v.5c0,0,0,.1-.1.2-.4,0-.5.1-.5-.2V2ZM37.8,4.8h1.9v-2.1h-1.9v2.1ZM41.9,4.4v1.5c0,2.3-.2,4.2-.9,5.6-.3.6-.9,1.4-1.1,1.4s0,0,0,0,0,0,0,0c.8-1.1,1.5-2.5,1.5-6.8v-2.2l.6.4h1.8V1.6h.6c.2.1.3.2.3.3s0,.2-.2.2c-.1,0-.1,0-.1.5h1.4l.6-.5.6.4c0,0,.1.2.1.2s0,.2-.3.2h-2.6v1h2.6l.4-.4.4.6c0,0,.1.2.1.2,0,.2-.2.2-.2.2s-.2,0-.2,0c0,0-.1,0-.2,0l-.8.8s0,0,0,0c0,0,0,0,0-.1s0,0,0,0c.2-.3.4-.6.5-.9h-4.8ZM43.9,8.1c.2,0,.3.1.3.2s0,.1-.2.1-.2,0-.2.1c0,1.4-.3,2.1-.6,2.7-.6,1-1.8,1.5-1.9,1.5s0,0,0-.1,0,0,0,0c1.6-.9,1.9-2.5,1.9-4.6h.6ZM44,6.2v.7h0c0,0,.1.1.1.1h2.5c0-.1.1-.3.2-.5v-.5c.1,0,.2,0,.2,0s0,0,0,.1v.5c0,.2,0,.3,0,.4,0,0,0,.1,0,.2s0,.3-.2.3h-3.3c-.2-.1-.3-.2-.3-.4v-.9h-1c0,0-.2-.3-.2-.3h1.2v-1.2l.7.2c0,0,.1,0,.1.1s0,.1-.1.1-.1,0-.1,0v.5h1.1c0,0,.4-.5.4-.5l.5.4c0,0,.1,0,.1.2,0,.1-.1.2-.3.2h-1.9ZM44.8,8.1l.7.2c0,0,.1,0,.1.2s0,.2-.2.2-.1,0-.1,0v3.2c0,0,0,0,.2.1h1.1c.2,0,.3,0,.4-.7v-.6c0,0,0-.1.1-.1,0,0,.1,0,.1.1v.7c0,.3.1.5.3.6,0,0,.1.1.1.2,0,.2-.1.4-.3.4h-2.3c-.3-.1-.3-.2-.3-.5v-4Z"/>
        </g>
        <g class="st0">
          <path d="M58.1,11.7s0,.1-.1.2c-.4,0-.5.1-.5-.2v-.9h-1.4v1.4c0,0,0,.1-.1.2-.4.1-.5.2-.5-.2v-4.7c-.3.6-.7,1-.8,1s0,0,0-.1,0,0,0,0c1-1.6,1.4-3.3,1.5-5.2h-1.2v-.4c0,0,2.5,0,2.5,0l.7-.5.6.5s0,0,0,.2c0,.1,0,.3-.3.3h-1.8c0,1.2-.3,2.2-.6,3.1h1.3l.3-.3.5.4s0,0,0,.1,0,.2-.2.2c0,0-.2,0-.2.1v4.9ZM56.2,10.5h1.4v-3.9h-1.4v3.9ZM58.9,11.5c.7-.9.8-1.7.8-2s0-.2,0-.2.1,0,.1.1c0,.1,0,.3,0,.5,0,1-.3,2-.8,2s-.3,0-.3-.3,0-.1,0-.2ZM59.5,1.8l.6.5h3.9l.7-.6.7.5c0,0,.1.2.1.2,0,.1-.1.2-.2.2h-2.6v1.5h1l.7-.5.6.4c0,0,.1.2.1.2,0,.1-.1.2-.2.2h-2.1v1.5h1l.6-.5.6.4c0,0,.1.2.1.2,0,.1-.1.2-.3.2h-2.1v1.5h2.2l.3-.4.5.3c.1,0,.2.2.2.3s0,.2-.2.2c-.1,0-.2,0-.2.2,0,.7,0,1.3-.2,1.9-.2,1-.3,1.8-1.6,2.3,0-.6-.7-.8-1.1-.9,0,0-.1,0-.1-.1,0,0,0-.1.1-.1s0,0,0,0c.5.2.9.3,1.1.3.2,0,.5-.2.6-.4.2-.2.3-.6.3-1.4v-1.4c0,0,.1-.3.1-.3h-4.8v.6c0,.2-.1.2-.5.3,0,0-.1,0-.1-.3V1.8ZM62.1,4.1v-1.5h-2v1.5h2ZM62.1,6v-1.5h-2v1.5h2ZM60.1,6.4v1.5h2v-1.5h-2ZM60.9,11.1c0-.3,0-.6,0-.8s0-.6-.2-.9c0,0,0,0,0,0,0,0,0,0,0,0,.2,0,.5.9.5,1.6s0,.6-.3.6,0,0-.2-.1v-.2ZM62.4,10.8v-.2c0-.9-.3-1.3-.4-1.5,0,0,0,0,0,0,0,0,0,0,0,0,.2,0,.8.9.8,1.5v.2c-.1,0-.2.1-.3.1h-.2ZM63.7,10.2c0-.3-.3-1-.6-1.3,0,0,0,0,0,0,0,0,0,0,0,0,.2,0,1.1.9,1.1,1.3s0,.4-.2.4h-.2s-.1-.2-.1-.2Z"/>
          <path d="M76.1,5.5c0,.3-.3.7-.7.7s-.7-.3-.7-.7.2-.7.7-.7.7.3.7.7ZM76.1,8.6c0,.3-.3.7-.7.7s-.7-.4-.7-.7.2-.7.7-.7.7.2.7.7Z"/>
        </g>
      </g>
      <g class="st0">
        <g class="st0">
          <path d="M100.7,11.8h-1.1v-6.7c-.3.2-.6.5-1,.7s-.8.4-1.1.5v-1c.6-.3,1.1-.6,1.5-1s.8-.8.9-1.1h.7v8.6Z"/>
          <path d="M117.5,11.8h-1.1v-6.7c-.3.2-.6.5-1,.7s-.8.4-1.1.5v-1c.6-.3,1.1-.6,1.5-1s.8-.8.9-1.1h.7v8.6Z"/>
          <path d="M136.7,10.8v1h-5.7c0-.3,0-.5.1-.7.1-.4.4-.8.7-1.1s.8-.8,1.4-1.3c.9-.8,1.6-1.4,1.9-1.8s.5-.9.5-1.3-.1-.8-.4-1.1-.7-.4-1.2-.4-.9.2-1.2.5-.5.7-.5,1.3h-1.1c0-.9.4-1.5.8-2s1.1-.6,2-.6,1.5.2,2,.7.7,1,.7,1.7,0,.7-.2,1-.4.7-.7,1-.9.9-1.6,1.5c-.6.5-1,.9-1.2,1.1s-.3.4-.4.6h4.2Z"/>
          <path d="M149.3,7c0,0,0,0,0-.1s0,0,0-.1c.7-1.2,1.4-2.6,1.9-3.9h-2.1v-.4c0,0,2.1,0,2.1,0l.3-.3.4.4c0,0,0,.1,0,.2s0,.2-.2.2c0,0-.2,0-.2.2-.4,1-.8,1.9-1.2,2.6h1.2l.4-.4.6.6s0,0,0,.1c0,.1-.1.2-.3.2,0,0-.2,0-.2.1-.3,2-.5,2.8-1,3.7.7.9,1.8,1.6,5.2,1.6s2.1,0,3.3-.2c0,0,0,0,0,0s0,.1-.2.2-.2.2-.2.3c0,.1,0,.2,0,.2-.8,0-1.5,0-2.1,0-1,0-1.8,0-2.4-.1-2-.3-3-.8-3.7-1.7-.3.6-.5.9-1,1.3-.5.5-1.3.9-1.3.9s-.1,0-.1-.1,0,0,0,0c.9-.6,1.6-1.5,2-2.5-.3-.5-.6-1.2-.7-1.9-.2.5-.4.9-.6,1.2,0,.3,0,.4-.2.4s-.2,0-.2-.2l-.2-.4c.4-.3.8-.8,1.2-1.4,0,0,0-.1.1-.1s0,0,.1.1c.2.8.4,1.5.7,1.9l.4-1.1c.2-.6.3-1.4.4-2.2v-.2s-1.3,0-1.3,0l-.4.7s-.1,0-.2.1h-.4ZM155.5,9.4v-1.3h-2.5v-.4c0,0,2.5,0,2.5,0v-1.3h-2.1v-.4c0,0,2.1,0,2.1,0v-1.3h-3v-.4c0,0,3,0,3,0v-1.3h-2.4v-.4c0,0,2.4,0,2.4,0v-1h.7c.2.1.3.2.3.3s0,.2-.2.2c-.2,0-.2,0-.2.5h1.7l.3-.3.6.4s0,0,0,.1,0,.2-.2.2c0,0-.2,0-.2.1v1.2h.2l.7-.6.6.6c0,0,0,.1,0,.2,0,.1,0,.2-.2.2h-1.4v2.2c0,0,0,.1,0,.2-.4,0-.5.1-.5-.2v-.5h-1.8v1.3h1.4l.7-.5.6.5s0,0,0,.2c0,.2-.2.2-.3.2h-2.5v1.3h1.9l.8-.6.8.6c0,0,0,.1,0,.2,0,.2-.1.2-.3.2h-3.3v1.5c0,.2-.4.3-.5.3s-.1,0-.1-.1v-1.7h-3.1v-.4c0,0,3.1,0,3.1,0ZM156.1,3.1v1.3h1.8v-1.3h-1.8ZM156.1,4.7v1.3h1.8v-1.3h-1.8Z"/>
          <path d="M179.5,5.2l.7-.3.4.5s0,0,0,.1c0,.1-.2.1-.3.1h-.3c-.7.6-1.4,1-2.1,1.3,0,.1,0,.2-.2.2-.1,0-.2,0-.2.1v1.1h3.5l.8-.6.8.6c0,0,0,.1,0,.2,0,.2-.1.2-.3.2h-4.9v3.2c0,.1,0,.3-.3.5s-.5.3-.9.3c0-.5-.5-.7-.9-.8,0,0-.1,0-.1-.1,0-.1,0-.1.2,0l1.1.2h.2s0-.2,0-.2v-2.9h-5v-.4c0,0,5,0,5,0v-1.7h.6c.7-.3,1.4-.7,1.9-1.2h-5.7l-.2-.4h5.8ZM173.3,3.6v.6c-.2.3-.5,1.1-1,1.1s-.3-.1-.3-.3,0-.2.3-.3c.4-.4.9-.9.9-1.9,0,0,0,0,0,0s0,0,0,0v.5h3.7v-1.5h.6c.2.1.3.2.3.3s0,.2-.1.2c0,0-.1,0-.1.2v.9h4l.4-.4.4.6c0,0,.1.1.1.2s0,.2-.2.2-.2,0-.2,0c0,0-.2,0-.2,0-.2.3-1,1.1-1.1,1.1s-.1,0-.1-.1,0,0,0,0c.3-.4.6-.8.8-1.2h-8.3Z"/>
          <path d="M198.9,2.8l.7-.5.6.4c0,0,.1.1.1.2,0,.1-.1.2-.2.2h-2.1l.3.5c.2.3.2.6.2.7s-.1.4-.3.4-.2,0-.3-.3c0-.3,0-.6,0-.9l-.2-.5h-1.1l-.4.6c-.6.8-1.3,1.3-1.4,1.3s0,0,0,0,0,0,0,0c.5-.4.9-.9,1.2-1.4.4-.7.6-1.2.7-1.8h.6c.1.2.2.2.2.3,0,0,0,.1-.1.1h-.1c0,0-.3.6-.3.6h2.1ZM203.7,5.1l.3-.4.5.3c0,0,0,.1,0,.2,0,0,0,.1-.1.2,0,0-.1,0-.1.1v2.2c0,.1,0,.2-.5.3,0,0-.1,0-.1-.3v-.5h-3.1v1.5h3.9l.3-.4.5.4c.1,0,.2.2.2.2s0,.3-.2.3c-.1,0-.2,0-.2.1,0,.5-.1.9-.2,1.3-.2.8-.4,1.3-1.5,1.6,0-.4-.3-.6-.8-.8,0,0-.1,0-.1-.1s0-.1.1-.1,0,0,0,0c.4.1.7.2.9.2.2,0,.3-.1.4-.2.1-.1.2-.4.3-.9l.2-.9v-.2c0,0-3.8,0-3.8,0v3.5c0,.2-.4.2-.5.2,0,0-.1,0-.1-.2v-3.2c-1.3,2.1-4.8,3.1-5,3.1s-.1,0-.1-.1,0,0,0-.1c1.6-.5,3.8-1.8,4.6-3.2h-3l-.2.5c0,.2,0,.2-.4.2h-.2v-.3c.3-.8.6-1.5.7-2l.2-1.1.5.5h2.9v-1.4h-3.7v-.4c0,0,7.4,0,7.4,0ZM199.9,8.7v-1.5h-3l-.4,1.5h3.4ZM204.3,2.8l.7-.5.6.4c0,0,.1.2.1.2,0,.1,0,.2-.3.2h-2.4l.3.4c.2.3.3.5.3.7,0,.2,0,.5-.3.5s-.3-.2-.3-.3c0-.3,0-.6-.2-.8l-.2-.5h-1.3l-.3.4c-.6.7-1.1,1.1-1.2,1.1s0,0,0,0,0,0,0,0c.4-.3.7-.8,1-1.2.4-.6.5-1,.6-1.6h.6c.1.2.2.2.2.3,0,0,0,.1-.1.1h-.1c0,0-.3.6-.3.6h2.7ZM200.5,5.5v1.4h3.1v-1.4h-3.1Z"/>
          <path d="M217.8,7.5c0-1,.1-1.8.3-2.5s.5-1.1.9-1.4.9-.5,1.6-.5.9,0,1.2.3.6.5.9.8.4.8.5,1.3.2,1.2.2,2-.1,1.8-.3,2.4-.5,1.1-.9,1.4-.9.5-1.6.5-1.5-.3-2-.9c-.6-.7-.8-1.9-.8-3.5ZM218.9,7.5c0,1.4.2,2.3.5,2.8s.7.7,1.2.7.9-.2,1.2-.7.5-1.4.5-2.8-.2-2.4-.5-2.8-.7-.7-1.2-.7-.9.2-1.2.6c-.4.5-.5,1.5-.5,2.9Z"/>
          <path d="M241,10.8v1h-5.7c0-.3,0-.5.1-.7.1-.4.4-.8.7-1.1s.8-.8,1.4-1.3c.9-.8,1.6-1.4,1.9-1.8s.5-.9.5-1.3-.1-.8-.4-1.1-.7-.4-1.2-.4-.9.2-1.2.5-.5.7-.5,1.3h-1.1c0-.9.4-1.5.8-2s1.1-.6,2-.6,1.5.2,2,.7.7,1,.7,1.7,0,.7-.2,1-.4.7-.7,1-.9.9-1.6,1.5c-.6.5-1,.9-1.2,1.1s-.3.4-.4.6h4.2Z"/>
          <path d="M258.6,5.3h-1c0-.3-.2-.6-.4-.8-.3-.3-.6-.5-1.1-.5s-.6,0-.9.3c-.3.2-.6.6-.8,1.1s-.3,1.1-.3,2c.3-.4.6-.7.9-.9s.8-.3,1.2-.3c.7,0,1.3.3,1.8.8s.7,1.2.7,2-.1,1-.3,1.5-.6.8-1,1.1-.9.4-1.4.4c-.9,0-1.6-.3-2.2-1s-.8-1.7-.8-3.2.3-2.9.9-3.6c.5-.7,1.3-1,2.2-1s1.2.2,1.7.6.7.9.8,1.6ZM254.3,9c0,.4,0,.7.2,1s.4.6.6.8.6.3.9.3c.4,0,.8-.2,1.1-.5s.5-.8.5-1.5-.2-1.1-.5-1.4-.7-.5-1.2-.5-.9.2-1.2.5-.5.8-.5,1.3Z"/>
          <path d="M276.3,10.8v1h-5.7c0-.3,0-.5.1-.7.1-.4.4-.8.7-1.1s.8-.8,1.4-1.3c.9-.8,1.6-1.4,1.9-1.8s.5-.9.5-1.3-.1-.8-.4-1.1-.7-.4-1.2-.4-.9.2-1.2.5-.5.7-.5,1.3h-1.1c0-.9.4-1.5.8-2s1.1-.6,2-.6,1.5.2,2,.7.7,1,.7,1.7,0,.7-.2,1-.4.7-.7,1-.9.9-1.6,1.5c-.6.5-1,.9-1.2,1.1s-.3.4-.4.6h4.2Z"/>
          <path d="M291.5,6.3l.7-.6.6.6c0,0,0,.1,0,.2,0,.1,0,.3-.3.3h-2.6l-.4,1.4h1.7l.2-.4.5.3c.1,0,.2.2.2.3s0,.2-.2.2c0,0-.2,0-.2.2,0,.6-.1,1.2-.2,1.8-.2.9-.3,1.8-1.7,2.2,0-.3-.2-.6-.8-.8,0,0-.1,0-.1-.1s0-.1.1-.1,0,0,0,0c.4.1.7.2.9.2.2,0,.4-.2.6-.4.2-.2.3-.6.3-1.3v-1.4c.1,0,.2-.3.2-.3h-1.8l-.2.8c0,.1-.2.2-.3.2-.2,0-.3-.2-.3-.3l.7-2.5h-1.1v-.4c0,0,3.1,0,3.1,0ZM288.9,2l.5.3h2l.3-.4.5.3c0,0,0,.1,0,.2,0,0,0,.1-.1.2,0,0-.1,0-.1.1v2.8c0,.2,0,.2-.4.3,0,0-.1,0-.1-.3v-.4h-1.9v.5c0,0,0,.1-.1.2-.4,0-.5.1-.5-.2V2ZM289.5,4.8h1.9v-2.1h-1.9v2.1ZM293.6,4.4v1.5c0,2.3-.2,4.2-.9,5.6-.3.6-.9,1.4-1.1,1.4s0,0,0,0,0,0,0,0c.8-1.1,1.5-2.5,1.5-6.8v-2.2l.6.4h1.8V1.6h.6c.2.1.3.2.3.3s0,.2-.2.2c-.1,0-.1,0-.1.5h1.4l.6-.5.6.4c0,0,.1.2.1.2s0,.2-.3.2h-2.6v1h2.6l.4-.4.4.6c0,0,.1.2.1.2,0,.2-.2.2-.2.2s-.2,0-.2,0c0,0-.1,0-.2,0l-.8.8s0,0,0,0c0,0,0,0,0-.1s0,0,0,0c.2-.3.4-.6.5-.9h-4.8ZM295.6,8.1c.2,0,.3.1.3.2s0,.1-.2.1-.2,0-.2.1c0,1.4-.3,2.1-.6,2.7-.6,1-1.8,1.5-1.9,1.5s0,0,0-.1,0,0,0,0c1.6-.9,1.9-2.5,1.9-4.6h.6ZM295.8,6.2v.7h0c0,0,.1.1.1.1h2.5c0-.1.1-.3.2-.5v-.5c.1,0,.2,0,.2,0s0,0,0,.1v.5c0,.2,0,.3,0,.4s0,.1,0,.2,0,.3-.2.3h-3.3c-.2-.1-.3-.2-.3-.4v-.9h-1c0,0-.2-.3-.2-.3h1.2v-1.2l.7.2c0,0,.1,0,.1.1s0,.1-.1.1-.1,0-.1,0v.5h1.1c0,0,.4-.5.4-.5l.5.4c0,0,.1,0,.1.2,0,.1-.1.2-.3.2h-1.9ZM296.6,8.1l.7.2c0,0,.1,0,.1.2s0,.2-.2.2-.1,0-.1,0v3.2c0,0,0,0,.2.1h1.1c.2,0,.3,0,.4-.7v-.6c0,0,0-.1.1-.1,0,0,.1,0,.1.1v.7c0,.3.1.5.3.6,0,0,.1.1.1.2,0,.2-.1.4-.3.4h-2.3c-.3-.1-.3-.2-.3-.5v-4Z"/>
        </g>
      </g>
    </g>
  </g>
</svg>