<?xml version="1.0" encoding="UTF-8"?>
<svg id="_圖層_2" xmlns="http://www.w3.org/2000/svg" version="1.1" viewBox="0 0 300 14.5">
  <!-- Generator: Adobe Illustrator 30.0.0, SVG Export Plug-In . SVG Version: 2.1.1 Build 123)  -->
  <defs>
    <style>
      .st0 {
        isolation: isolate;
      }
    </style>
  </defs>
  <g id="_圖層_1-2">
    <g>
      <g class="st0">
        <g class="st0">
          <path d="M9.9,1.7l.8-.6.8.6c0,0,0,0,0,.2,0,.2-.2.3-.3.3h-4.3c-.3.5-.5,1-.9,1.5.2,0,.3,0,.3.2s0,.1-.1.1c0,0-.1.1-.1.2v8c0,0,0,.1-.1.1-.4,0-.5.1-.5-.1v-7.6C3.5,7.1.5,8.1.5,8.1s0,0,0,0c0,0,0,0,0,0,1.6-.8,3.5-2.2,4.7-3.9.5-.8.9-1.4,1.1-2H.6v-.4c0,0,9.3,0,9.3,0ZM10.7,7.8c-.9-1.2-2-2.2-3.5-2.9,0,0,0,0,0-.1s0-.1.1-.1c.2,0,4,1.9,4,3s0,.3-.3.3,0,0-.3-.1Z"/>
          <path d="M15.8,10.7c.8-.1,1.5-.3,2.1-.5,0,0,0,0,0,0,.2,0,.2.2.2.2,0,0,0,0,0,.1-2,.7-4.1,1.1-4.8,1.2,0,0,0,0-.1.2,0,.1,0,.2-.2.2s-.2,0-.2-.2v-.5c-.1,0-.3-.4-.3-.4h.5c.5,0,1.5,0,2.2-.1v-1.3h-2.4v-.4c0,0,2.4,0,2.4,0v-1.2h-1.6v.6c0,0,0,.1-.1.2-.4,0-.5.1-.5-.2v-4.3l.5.4h1.7v-1h-2.5v-.4c0,0,2.5,0,2.5,0v-1h0c-.8,0-1.5.1-2.1.1s-.4,0-.4-.1,0-.1.1-.1c1.7-.1,3.5-.4,4.5-1l.6.3c0,0,.1.1.1.2s0,.2-.2.2-.2,0-.3,0,0,0,0,0c-.5.2-1.1.3-1.7.4v1.1h1.3l.8-.6.8.6c0,0,0,.1,0,.2,0,.2-.1.2-.3.2h-2.7v1h1.6l.3-.3.6.4s0,0,0,.1,0,.2-.2.2c0,0-.2,0-.2.1v3.3c0,0,0,.1-.1.2h-.2s.6.5.6.5c0,0,0,.1,0,.2,0,.2-.1.2-.3.2h-2.3v1.2ZM15.2,4.9h-1.6v1.1h1.6v-1.1ZM15.2,6.4h-1.6v1.2h1.6v-1.2ZM15.8,6h1.6v-1.1h-1.6v1.1ZM15.8,7.5h1.6v-1.2h-1.6v1.2ZM15.8,9.1h1.2l.7-.5c-.2,0-.3,0-.3-.2v-.5h-1.6v1.2ZM23.1,4.2c0,0,0,.1,0,.2,0,0,0,.1-.2.1,0,0-.1.1-.1.2,0,.3,0,.6,0,.8,0,2.6-.2,4.5-.5,5.2-.4.9-.7,1.1-1.4,1.2,0-.5-.5-.6-.8-.7,0,0,0,0,0-.1s0-.1.1-.1h0c.5.1.9.2,1.1.2s.4-.4.5-.6c.1-.3.5-2,.5-6.1h-1.8v1.4c-.1,1.1-.4,3.5-1.7,5-.7.8-1.5,1.1-1.5,1.1s-.1,0-.1-.1,0,0,0,0c1.9-1.3,2.5-3.9,2.7-6v-1.3s-1.3,0-1.3,0l-.2-.4h1.5V1.2s.7.1.7.1c.2,0,.3,0,.3.2s0,.2-.2.2h-.2c0,0,0,2.5,0,2.5h1.7l.3-.3.5.4Z"/>
          <path d="M33.8,5.2l.7-.6.7.5c0,0,.1.2.1.2,0,.1,0,.2-.3.2h-8.9c0,1.6,0,3.5-.7,4.9-.2.6-.9,1.5-1.1,1.5s-.1,0-.1-.1,0,0,0,0c.8-1.2,1.2-2.4,1.2-5.9v-1l.6.3h7.6ZM25.1,2.7v-.4c0,0,4.4,0,4.4,0v-1.2h.6c.2.1.3.2.3.3s0,.2-.2.2c0,0-.1,0-.1.2v.6h3l.8-.6.8.6c0,0,0,.1,0,.2,0,.2-.1.2-.3.2h-9.4ZM26.4,11.7v-.4c0,0,4,0,4,0v-1.5h-2.5v-.4c0,0,2.5,0,2.5,0v-1.6h-2.4l-.3.6c-.6,1-1.2,1.5-1.3,1.5s0,0,0-.1,0,0,0-.1c.4-.5.8-1.1,1.1-1.7.3-.6.4-1.1.5-1.6v-.3s.7.2.7.2c.1,0,.2,0,.2.2s0,.2-.2.2-.2,0-.2,0l-.4.9h2.2v-1.7h.6c.2.1.3.2.3.3s0,.2-.2.2c0,0-.1.1-.1.2v1h2l.7-.6.7.5c0,0,.1.1.1.2s0,.2-.2.2h-3.4v1.6h1.7l.8-.6.8.6c0,0,0,0,0,.2,0,.2-.1.2-.3.2h-3v1.5h2.9l.8-.6.8.6c0,0,0,.1,0,.2,0,.1,0,.2-.3.2h-8.8ZM29.4,4.5c-1.1.3-2,.4-2.7.5,0,0-.2,0-.2-.1s0-.1,0-.1c.8,0,1.8-.3,2.8-.6h.3c0-.1,0-.1,0-.1-.8-.3-1.6-.4-2.4-.5,0,0-.1,0-.1-.1s0,0,.1,0h1.3c.7.1,1.4.2,2,.4.3-.1,1.2-.6,1.4-.8l.5.3c0,0,.1.1.1.2s0,.2-.2.2h-.3s-.8.3-.8.3c.5.2.8.3,1,.5,0,0,.2.2.2.3s-.1.3-.2.3-.2,0-.3-.1c-.5-.3-1.1-.5-1.6-.7l-1,.3Z"/>
          <path d="M37.1,8h.6c.1.1.2.2.2.3,0,.2-.1.2-.2.2,0,0-.1,0-.1,0-.2,1.3-.8,2.8-1,2.8s0,0,0,0,0,0,0,0c.3-.9.5-1.9.6-2.8v-.4ZM40.2,5.9c0-.3-.3-.6-.5-.8,0,0,0,0,0,0s0,0,0,0c.2,0,1.2,1.3,1.2,1.8s-.2.4-.2.4c-.2,0-.3-.1-.3-.2v-.7c-.5.1-1,.3-1.4.3v5.4c0,.1-.3.2-.5.2s-.1,0-.1-.2v-5.3l-1.2.2c0,0,0,0,0,.2s0,.2-.2.2-.2,0-.3-.3l-.2-.7h1.2c1.1-1.6,1.7-3.2,1.7-3.5v-.4c0,0,.8.3.8.3.1,0,.2.1.2.2,0,.1-.1.2-.4.2-.5,1-1.4,2.4-1.9,3.1h.3s1.8-.3,1.8-.3ZM37.4,3.1c.4-.6.7-1.3.8-1.7v-.4c0,0,.8.2.8.2.1,0,.2.1.2.2s0,.1-.2.1h-.2c0,0-.6,1-.6,1l-.6.8.2.2c.5.6.5.7.5,1.1,0,.2-.2.2-.3.2-.2,0-.3-.1-.3-.2-.3-1.1-.8-1.5-1-1.6,0,0,0,0,0,0,0,0,0-.1.1-.1s0,0,0,0l.5.3ZM39.6,7.9s0,0,.1,0c.2,0,1.1,1.4,1.1,2.1s-.2.5-.3.5-.3-.2-.3-.3c0-.9-.2-1.8-.5-2.1,0,0,0,0,0,0ZM40.5,11.6v-.4c0,0,3.2,0,3.2,0v-2.7h-2.3v-.4c0,0,4.2,0,4.2,0l.7-.5.6.5s0,.1,0,.2c0,.1,0,.3-.3.3h-2.5v2.7h1.8l.7-.5.6.5c0,0,0,0,0,.2,0,.2,0,.3-.3.3h-6.7ZM42.7,2.8c-.4.8-.7,1.5-1.3,2.2.4.4,1.3,1.5,1.3,2.2s0,.4-.3.4-.3,0-.3-.2c-.3-1.2-.8-2.1-1.3-2.5,0,0,0,0,0,0s0-.1.1-.1,0,0,.3.2c.4-.7.8-1.8.9-2.3v-.4s.8.2.8.2c.1,0,.2,0,.2.2,0,.2-.1.2-.1.2h-.2ZM45.9,1.5l.7-.5.6.5c0,0,0,0,0,.2,0,.1-.1.2-.3.2h-6v-.4c0,0,4.9,0,4.9,0ZM43.2,5c.2-.4.4-.8.5-1.3l.3-1v-.4h.7c.1.2.2.2.2.3s0,.1-.2.2h-.2c-.3.8-1,2.2-1.2,2.3.4.4,1.2,1.5,1.2,2.1s0,.4-.2.4-.3,0-.4-.2c-.3-1.2-.8-2.1-1.3-2.5,0,0,0,0,0,0s0-.1.1-.1,0,0,.1,0l.3.3ZM45.2,4.9c.4-.8.8-1.9.8-2.2v-.4s.7.2.7.2c.1,0,.2,0,.2.2,0,.1-.1.2-.2.2h-.2c-.1.4-.3.8-.6,1.2l-.6,1,.7.7c.7.8.7,1.2.7,1.4,0,.2,0,.4-.3.4s-.3-.2-.3-.2c-.3-1.2-1-2.1-1.5-2.4,0,0,0,0,0,0,0,0,0-.1.1-.1s0,0,0,0l.3.2Z"/>
          <path d="M52.2,3c-.3.6-.8,1.3-1.2,1.9l-1.1,1.3h.4s1.9-.3,1.9-.3c0-.1-.2-.5-.5-.7,0,0,0,0,0,0,0,0,0,0,.1,0,.3,0,1.3,1.3,1.3,1.7s0,.5-.3.5-.3-.2-.3-.3c0-.3,0-.5-.2-.7-.4.1-.8.3-1.3.3v5.4c0,.2-.5.2-.5.2,0,0-.1,0-.1-.2v-5.3l-1.3.3c0,0,0,0,0,.2s0,.2-.2.2-.2,0-.3-.3l-.2-.7h1.1c1.2-1.5,2-3.3,2.1-3.7v-.3c.1,0,.8.3.8.3.1,0,.2.1.2.2s0,.2-.2.2h-.2ZM50.8,1.3c.1,0,.2.1.2.2s0,.2-.2.2-.2,0-.2,0c-.1.4-.6,1.2-1.1,1.7.4.4.6.6.7.9,0,.3,0,.5-.2.5s-.3,0-.3-.2c-.2-.7-.7-1.4-1.1-1.6,0,0,0,0,0,0s0-.1.1-.1.5.2.8.5c.2-.3.3-.5.5-.8l.4-1v-.4c.1,0,.7.2.7.2ZM49.1,7.9l.7.2c.1,0,.2,0,.2.2s0,.2-.2.2c0,0-.2,0-.2,0,0,.4-.2.9-.3,1.4-.1.3-.5,1.5-.7,1.5s0,0,0-.1,0,0,0,0c.1-.4.3-.9.4-1.4l.2-1.5v-.5ZM51.6,7.8s0,0,.1,0c.3,0,1.2,1.6,1.2,2.4s-.2.5-.3.5-.2,0-.3-.3c0-1-.3-2-.7-2.4,0,0,0,0,0,0ZM53.9,5.1l.6.4h3.3v-3.3h-4.3v-.4c0,0,4.3,0,4.3,0l.3-.3.6.4s0,0,0,.1c0,0,0,.2-.2.2,0,0-.1,0-.1.1v4.4c0,0,0,.1-.1.2-.4,0-.5.1-.5-.2v-.8h-3.3v5.2c0,.1,0,.2.2.2h3.5c.1,0,.3-.2.3-.5l.2-1c0,0,0,0,.1,0s0,0,0,.1v.8c0,.3,0,.5,0,.5,0,0,.1.1.1.2,0,.2-.1.5-.4.5h-4.5s-.4,0-.4-.6v-6.2Z"/>
        </g>
        <g class="st0">
          <path d="M66.2,2.5c0,.2.2,2.2.7,3.6.3.9.7,1.8,1.1,2.5,1,1.4,2.2,2.3,3.4,2.7,0,0,0,0,0,0s-.1,0-.3,0c-.2,0-.3,0-.4.2,0,0-.1.1-.2.1,0,0-1.8-1.1-3.1-3.3-.8-1.3-1.2-3.4-1.4-4.8l-.3,1.6c-.6,2.8-1.4,3.9-2.6,5-1.1,1-2.4,1.6-2.5,1.6s-.1,0-.1,0,0,0,0,0c1-.5,2.9-1.9,3.8-3.6,1.1-2.2,1.2-4.9,1.3-7.3h.7c.2.1.3.2.3.3s0,.1-.2.1-.2,0-.2.1v1Z"/>
          <path d="M75.7,4.8c0,.3-.3.7-.7.7s-.7-.3-.7-.7.2-.7.7-.7.7.3.7.7ZM75.7,7.9c0,.3-.3.7-.7.7s-.7-.4-.7-.7.2-.7.7-.7.7.2.7.7Z"/>
        </g>
      </g>
      <g class="st0">
        <g class="st0">
          <path d="M94.2,11.5v-.4c0,0,5,0,5,0v-4.3h-3.8v-.4c0,0,3.8,0,3.8,0v-3.9h-4.3v-.4c0,0,8,0,8,0l.8-.6.8.6c0,0,0,.1,0,.2,0,.2-.1.2-.3.2h-4.4v3.9h2.5l.8-.6.8.6c0,0,0,.1,0,.2,0,.1,0,.2-.3.2h-3.9v4.3h3.6l.8-.6.8.6c0,0,0,0,0,.2,0,.2-.1.2-.3.2h-10.5Z"/>
          <path d="M108.9,5.5c-.7,1.2-1.4,1.9-1.5,1.9s0,0,0-.1,0,0,0,0c.7-.9,1.3-1.8,1.8-3l.5-1.2h-1.9v-.4c0,0,2,0,2,0,.3-1,.3-1.3.3-1.7h.7c.2,0,.2.1.2.2s0,.2-.1.2c0,0-.2,0-.2,0l-.4,1.2h2.1l.8-.6.8.6c0,0,0,0,0,.2,0,.2,0,.3-.3.3h-3.6l-.7,1.5h0c0,.1,3,.1,3,.1l.3-.3.5.4c0,0,.2.2.2.3s0,.2-.2.2c0,0-.1,0-.1.1v6.1c0,.4-.5.6-1.1.7v-.3c-.2-.1-.5-.2-.9-.4,0,0-.1,0-.1-.1,0,0,0,0,.1,0h0c.4,0,.7,0,1,0s.4,0,.4-.3v-2.2h-2.9v3.2c0,.1-.3.2-.5.2s-.1,0-.1-.2v-6.5ZM109.5,5.1v1.5h2.9v-1.5h-2.9ZM109.5,6.9v1.5h2.9v-1.5h-2.9ZM114.6,1l.6.6h2.1v-.5c.1,0,.8.4.8.4,0,0,.1.1.2.2,0,0-.1.2-.3.3s-.2.1-.2.3l-.4,1.2c-.2.6-.5,1.4-.8,2.2,0,0,0,0,0,0s0,0,0,.1c1.3,1.2,1.6,2.5,1.6,3.1s-.3,1.9-1.3,1.9-.2,0-.2-.2c0-.1-.3-.5-.8-.6,0,0,0,0,0-.1s0-.1.1-.1l.7.2c0,0,.2,0,.2,0,.6,0,.8-.6.8-1.1s-.2-1.4-.6-2.2l-.6-.9c0,0,0,0,0-.1s0,0,0,0c0-.1.2-.5.4-1.2.2-.7.4-1.5.5-2.5h-2.1v10.1c0,.1-.2.2-.5.3,0,0-.1,0-.1-.3V1Z"/>
          <path d="M121.5,8.8c0,.1-.2.3-.4.3s-.2,0-.2-.2,0-.1,0-.2c.4-1.5.7-2.8.9-3.9v-.8c.1,0-1.1,0-1.1,0v-.4c0,0,1.3,0,1.3,0l.2-2v-.5h.7c.1.1.2.2.2.3s0,.2-.2.2c0,0-.2.1-.2.2l-.2,1.9h1.2l.3-.4.6.5s0,0,0,.2c0,.1,0,.2-.2.2-.1,0-.2,0-.2.1-.2,1.9-.4,3.4-1,4.7.4.4,1,1,1,1.4s-.1.3-.3.3-.3,0-.3-.2l-.7-1.1c-.3.5-.6.9-.9,1.3-.6.7-1.4,1.2-1.5,1.2s-.1,0-.1-.1,0,0,0,0c.9-.7,1.6-1.5,2.1-2.7-.4-.4-.7-.7-1.1-.9l-.2.7ZM121.7,7.8c.4.2.8.4,1.2.7.6-1.5.8-2.9.9-4.4v-.2s-1.3,0-1.3,0l-.2,1.2-.6,2.7ZM130.7,6.6l.4-.4.4.6c0,0,.1.1.1.2s0,.2-.2.2h-.2c0,0-.2,0-.2,0l-.4.4.5.4c0,0,0,.1,0,.2,0,.2-.2.2-.3.2h-2.5v2.6c0,.5-.4.9-1.1,1,0-.5-.5-.7-1-.9,0,0,0,0,0-.1s0,0,.1,0c.6,0,1,.1,1.2.1s.3,0,.3-.2v-2.4h-2.4v-.4c0,0,4.4,0,4.4,0l.4-.3c0-.1.3-.5.4-.9h-5.3c-.1.9-.5,1.3-.7,1.3s-.3-.2-.3-.3,0-.2.2-.3c.3-.3.7-.7.7-1.5s0,0,0,0,0,0,0,0v.6h5.4ZM125,2.7v-.4c0,0,2.8,0,2.8,0v-1.3h.6c.2.1.3.2.3.3s0,.2-.2.2c0,0-.1.1-.1.2v.6h1.5l.8-.6.8.6c0,0,0,.1,0,.2,0,.2-.1.2-.3.2h-6.3ZM129.8,3.6l.3-.4.5.3c0,0,0,.1,0,.2,0,0,0,.1-.1.2,0,0-.1,0-.1.1v1.9c0,.1,0,.2-.4.3,0,0-.2,0-.2-.3v-.4h-3.4c0,.4,0,.4-.1.5-.4,0-.5,0-.5-.2v-2.5l.5.3h3.5ZM126.4,4v1.1h3.4v-1.1h-3.4Z"/>
          <path d="M136.4,13.6c-.6-.7-1.1-1.6-1.5-2.6s-.6-2-.6-3.1.2-1.8.5-2.7c.4-1,.9-2,1.6-3h.8c-.5.8-.8,1.4-.9,1.7-.2.5-.4,1.1-.6,1.7-.2.7-.3,1.5-.3,2.2,0,1.9.6,3.8,1.8,5.6h-.8Z"/>
          <path d="M143.3,11.1h-1.1v-6.7c-.3.2-.6.5-1,.7s-.8.4-1.1.5v-1c.6-.3,1.1-.6,1.5-1s.8-.8.9-1.1h.7v8.6Z"/>
          <path d="M147.3,6.9c0-1,.1-1.8.3-2.5s.5-1.1.9-1.4.9-.5,1.6-.5.9,0,1.2.3.6.5.9.8.4.8.5,1.3.2,1.2.2,2-.1,1.8-.3,2.4-.5,1.1-.9,1.4-.9.5-1.6.5-1.5-.3-2-.9c-.6-.7-.8-1.9-.8-3.5ZM148.4,6.9c0,1.4.2,2.3.5,2.8s.7.7,1.2.7.9-.2,1.2-.7.5-1.4.5-2.8-.2-2.4-.5-2.8-.7-.7-1.2-.7-.9.2-1.2.6c-.4.5-.5,1.5-.5,2.9Z"/>
          <path d="M155.5,9.1h1c0,.4.2.7.5.9s.6.3.9.3.6,0,.9-.2.4-.3.6-.6.3-.6.4-1c.1-.4.2-.9.2-1.3s0-.1,0-.2c-.2.3-.5.6-.9.8s-.8.3-1.2.3c-.7,0-1.3-.3-1.8-.8s-.7-1.2-.7-2,.3-1.6.8-2.1,1.2-.8,1.9-.8,1.1.2,1.5.5.8.7,1.1,1.3.4,1.4.4,2.4-.1,2-.4,2.6-.6,1.1-1.1,1.5-1,.5-1.7.5-1.2-.2-1.6-.6-.7-.9-.8-1.6ZM159.8,5.3c0-.6-.2-1.1-.5-1.4s-.7-.5-1.2-.5-.9.2-1.2.6-.5.9-.5,1.5.2,1,.5,1.3.7.5,1.2.5.9-.2,1.2-.5.5-.8.5-1.4Z"/>
          <path d="M164.3,13.6h-.8c1.2-1.9,1.8-3.8,1.8-5.6s0-1.5-.3-2.2c-.1-.6-.3-1.1-.6-1.7-.2-.4-.5-.9-.9-1.8h.8c.7,1,1.3,2,1.6,3,.3.9.5,1.7.5,2.7s-.2,2.1-.6,3.1-.9,1.8-1.5,2.6Z"/>
          <path d="M169.4,3.1l.5.3h3.8V.8h.7c.2.1.3.2.3.3s0,.2-.2.2c-.1,0-.2.1-.2.2v1.9h3.7l.3-.3.6.4s0,0,0,.1,0,.2-.2.2c0,0-.2,0-.2.1v4.8c0,0,0,.1-.1.2-.4,0-.5.1-.5-.2v-.8h-3.7v4.1c0,.2-.4.3-.5.3s-.1,0-.1-.1v-4.3h-3.7v.7c0,0,0,.1-.1.2-.4,0-.5.1-.5-.2V3.1ZM173.7,3.8h-3.7v3.7h3.7v-3.7ZM174.3,7.6h3.7v-3.7h-3.7v3.7Z"/>
          <path d="M182.2,3.1v-.4c0,0,4.9,0,4.9,0V.9h.6c.2.1.3.2.3.3s0,.2-.1.2c0,0-.1.1-.1.2v1.2h3.5l.8-.6.8.6c0,0,0,.1,0,.2,0,.2-.1.2-.3.2h-10.4ZM183.2,4.8l.6.5h3.3v-1.9h.7c.2.1.3.2.3.3s0,.2-.2.2c-.1,0-.2.1-.2.2v1.2h3.3l.3-.3.5.4c0,0,.2.2.2.3s0,.2-.2.2c0,0-.1,0-.1.1v4.4c0,.6-.8.7-1.1.7,0,0,0-.2-.2-.3,0,0-.4-.2-1-.3,0,0-.1,0-.1-.1,0,0,0,0,0,0,.2,0,.9,0,1,0,.4,0,.6,0,.6-.3v-4.3h-3.3v6.3c0,.2-.4.3-.5.3s-.1,0-.1-.1v-6.5h-3.3v5.3c0,.1-.1.2-.5.3,0,0-.1,0-.1-.3v-6.2Z"/>
          <path d="M195.8,8h.6c.1.1.2.2.2.3,0,.2-.1.2-.2.2,0,0-.1,0-.1,0-.2,1.3-.8,2.8-1,2.8s0,0,0,0,0,0,0,0c.3-.9.5-1.9.6-2.8v-.4ZM199,5.9c0-.3-.3-.6-.5-.8,0,0,0,0,0,0s0,0,0,0c.2,0,1.2,1.3,1.2,1.8s-.2.4-.2.4c-.2,0-.3-.1-.3-.2v-.7c-.5.1-1,.3-1.4.3v5.4c0,.1-.3.2-.5.2s-.1,0-.1-.2v-5.3l-1.2.2c0,0,0,0,0,.2s0,.2-.2.2-.2,0-.3-.3l-.2-.7h1.2c1.1-1.6,1.7-3.2,1.7-3.5v-.4c0,0,.8.3.8.3.1,0,.2.1.2.2,0,.1-.1.2-.4.2-.5,1-1.4,2.4-1.9,3.1h.3s1.8-.3,1.8-.3ZM196.1,3.1c.4-.6.7-1.3.8-1.7v-.4c0,0,.8.2.8.2.1,0,.2.1.2.2s0,.1-.2.1h-.2c0,0-.6,1-.6,1l-.6.8.2.2c.5.6.5.7.5,1.1,0,.2-.2.2-.3.2-.2,0-.3-.1-.3-.2-.3-1.1-.8-1.5-1-1.6,0,0,0,0,0,0,0,0,0-.1.1-.1s0,0,0,0l.5.3ZM198.3,7.9s0,0,.1,0c.2,0,1.1,1.4,1.1,2.1s-.2.5-.3.5-.3-.2-.3-.3c0-.9-.2-1.8-.5-2.1,0,0,0,0,0,0ZM199.3,11.6v-.4c0,0,3.2,0,3.2,0v-2.7h-2.3v-.4c0,0,4.2,0,4.2,0l.7-.5.6.5s0,.1,0,.2c0,.1,0,.3-.3.3h-2.5v2.7h1.8l.7-.5.6.5c0,0,0,0,0,.2,0,.2,0,.3-.3.3h-6.7ZM201.4,2.8c-.4.8-.7,1.5-1.3,2.2.4.4,1.3,1.5,1.3,2.2s0,.4-.3.4-.3,0-.3-.2c-.3-1.2-.8-2.1-1.3-2.5,0,0,0,0,0,0s0-.1.1-.1,0,0,.3.2c.4-.7.8-1.8.9-2.3v-.4s.8.2.8.2c.1,0,.2,0,.2.2,0,.2-.1.2-.1.2h-.2ZM204.6,1.5l.7-.5.6.5c0,0,0,0,0,.2,0,.1-.1.2-.3.2h-6v-.4c0,0,4.9,0,4.9,0ZM201.9,5c.2-.4.4-.8.5-1.3l.3-1v-.4h.7c.1.2.2.2.2.3s0,.1-.2.2h-.2c-.3.8-1,2.2-1.2,2.3.4.4,1.2,1.5,1.2,2.1s0,.4-.2.4-.3,0-.4-.2c-.3-1.2-.8-2.1-1.3-2.5,0,0,0,0,0,0s0-.1.1-.1,0,0,.1,0l.3.3ZM203.9,4.9c.4-.8.8-1.9.8-2.2v-.4s.7.2.7.2c.1,0,.2,0,.2.2,0,.1-.1.2-.2.2h-.2c-.1.4-.3.8-.6,1.2l-.6,1,.7.7c.7.8.7,1.2.7,1.4,0,.2,0,.4-.3.4s-.3-.2-.3-.2c-.3-1.2-1-2.1-1.5-2.4,0,0,0,0,0,0,0,0,0-.1.1-.1s0,0,0,0l.3.2Z"/>
          <path d="M212.2,3c-.3.6-.8,1.3-1.2,1.9l-1.1,1.3h.4s1.9-.3,1.9-.3c0-.1-.2-.5-.5-.7,0,0,0,0,0,0,0,0,0,0,.1,0,.3,0,1.3,1.3,1.3,1.7s0,.5-.3.5-.3-.2-.3-.3c0-.3,0-.5-.2-.7-.4.1-.8.3-1.3.3v5.4c0,.2-.5.2-.5.2,0,0-.1,0-.1-.2v-5.3l-1.3.3c0,0,0,0,0,.2s0,.2-.2.2-.2,0-.3-.3l-.2-.7h1.1c1.2-1.5,2-3.3,2.1-3.7v-.3c.1,0,.8.3.8.3.1,0,.2.1.2.2s0,.2-.2.2h-.2ZM210.8,1.3c.1,0,.2.1.2.2s0,.2-.2.2-.2,0-.2,0c-.1.4-.6,1.2-1.1,1.7.4.4.6.6.7.9,0,.3,0,.5-.2.5s-.3,0-.3-.2c-.2-.7-.7-1.4-1.1-1.6,0,0,0,0,0,0s0-.1.1-.1.5.2.8.5c.2-.3.3-.5.5-.8l.4-1v-.4c.1,0,.7.2.7.2ZM209.1,7.9l.7.2c.1,0,.2,0,.2.2s0,.2-.2.2c0,0-.2,0-.2,0,0,.4-.2.9-.3,1.4-.1.3-.5,1.5-.7,1.5s0,0,0-.1,0,0,0,0c.1-.4.3-.9.4-1.4l.2-1.5v-.5ZM211.6,7.8s0,0,.1,0c.3,0,1.2,1.6,1.2,2.4s-.2.5-.3.5-.2,0-.3-.3c0-1-.3-2-.7-2.4,0,0,0,0,0,0ZM214,5.1l.6.4h3.3v-3.3h-4.3v-.4c0,0,4.3,0,4.3,0l.3-.3.6.4s0,0,0,.1c0,0,0,.2-.2.2,0,0-.1,0-.1.1v4.4c0,0,0,.1-.1.2-.4,0-.5.1-.5-.2v-.8h-3.3v5.2c0,.1,0,.2.2.2h3.5c.1,0,.3-.2.3-.5l.2-1c0,0,0,0,.1,0s0,0,0,.1v.8c0,.3,0,.5,0,.5,0,0,.1.1.1.2,0,.2-.1.5-.4.5h-4.5s-.4,0-.4-.6v-6.2Z"/>
          <path d="M229.5,4.5l.7-.3.4.5s0,0,0,.1c0,.1-.2.1-.3.1h-.3c-.7.6-1.4,1-2.1,1.3,0,.1,0,.2-.2.2-.1,0-.2,0-.2.1v1.1h3.5l.8-.6.8.6c0,0,0,.1,0,.2,0,.2-.1.2-.3.2h-4.9v3.2c0,.1,0,.3-.3.5s-.5.3-.9.3c0-.5-.5-.7-.9-.8,0,0-.1,0-.1-.1,0-.1,0-.1.2,0l1.1.2h.2s0-.2,0-.2v-2.9h-5v-.4c0,0,5,0,5,0v-1.7h.6c.7-.3,1.4-.7,1.9-1.2h-5.7l-.2-.4h5.8ZM223.3,2.9v.6c-.2.3-.5,1.1-1,1.1s-.3-.1-.3-.3,0-.2.3-.3c.4-.4.9-.9.9-1.9,0,0,0,0,0,0s0,0,0,0v.5h3.7V1h.6c.2.1.3.2.3.3s0,.2-.1.2c0,0-.1,0-.1.2v.9h4l.4-.4.4.6c0,0,.1.1.1.2s0,.2-.2.2-.2,0-.2,0c0,0-.2,0-.2,0-.2.3-1,1.1-1.1,1.1s-.1,0-.1-.1,0,0,0,0c.3-.4.6-.8.8-1.2h-8.3Z"/>
          <path d="M239.3,2.1l.7-.5.6.4c0,0,.1.1.1.2,0,.1-.1.2-.2.2h-2.1l.3.5c.2.3.2.6.2.7s-.1.4-.3.4-.2,0-.3-.3c0-.3,0-.6,0-.9l-.2-.5h-1.1l-.4.6c-.6.8-1.3,1.3-1.4,1.3s0,0,0,0,0,0,0,0c.5-.4.9-.9,1.2-1.4.4-.7.6-1.2.7-1.8h.6c.1.2.2.2.2.3,0,0,0,.1-.1.1h-.1c0,0-.3.6-.3.6h2.1ZM244,4.4l.3-.4.5.3c0,0,0,.1,0,.2,0,0,0,.1-.1.2,0,0-.1,0-.1.1v2.2c0,.1,0,.2-.5.3,0,0-.1,0-.1-.3v-.5h-3.1v1.5h3.9l.3-.4.5.4c.1,0,.2.2.2.2s0,.3-.2.3c-.1,0-.2,0-.2.1,0,.5-.1.9-.2,1.3-.2.8-.4,1.3-1.5,1.6,0-.4-.3-.6-.8-.8,0,0-.1,0-.1-.1s0-.1.1-.1,0,0,0,0c.4.1.7.2.9.2.2,0,.3-.1.4-.2s.2-.4.3-.9l.2-.9v-.2c0,0-3.8,0-3.8,0v3.5c0,.2-.4.2-.5.2,0,0-.1,0-.1-.2v-3.2c-1.3,2.1-4.8,3.1-5,3.1s-.1,0-.1-.1,0,0,0-.1c1.6-.5,3.8-1.8,4.6-3.2h-3l-.2.5c0,.2,0,.2-.4.2h-.2v-.3c.3-.8.6-1.5.7-2l.2-1.1.5.5h2.9v-1.4h-3.7v-.4c0,0,7.4,0,7.4,0ZM240.3,8.1v-1.5h-3l-.4,1.5h3.4ZM244.7,2.1l.7-.5.6.4c0,0,.1.2.1.2,0,.1,0,.2-.3.2h-2.4l.3.4c.2.3.3.5.3.7,0,.2,0,.5-.3.5s-.3-.2-.3-.3c0-.3,0-.6-.2-.8l-.2-.5h-1.3l-.3.4c-.6.7-1.1,1.1-1.2,1.1s0,0,0,0,0,0,0,0c.4-.3.7-.8,1-1.2.4-.6.5-1,.6-1.6h.6c.1.2.2.2.2.3,0,0,0,.1-.1.1h-.1c0,0-.3.6-.3.6h2.7ZM240.9,4.8v1.4h3.1v-1.4h-3.1Z"/>
          <path d="M248.4,6.9c0-1,.1-1.8.3-2.5s.5-1.1.9-1.4.9-.5,1.6-.5.9,0,1.2.3.6.5.9.8.4.8.5,1.3.2,1.2.2,2-.1,1.8-.3,2.4-.5,1.1-.9,1.4-.9.5-1.6.5-1.5-.3-2-.9c-.6-.7-.8-1.9-.8-3.5ZM249.5,6.9c0,1.4.2,2.3.5,2.8s.7.7,1.2.7.9-.2,1.2-.7.5-1.4.5-2.8-.2-2.4-.5-2.8-.7-.7-1.2-.7-.9.2-1.2.6c-.4.5-.5,1.5-.5,2.9Z"/>
          <path d="M260.4,11.1h-1.1v-6.7c-.3.2-.6.5-1,.7s-.8.4-1.1.5v-1c.6-.3,1.1-.6,1.5-1s.8-.8.9-1.1h.7v8.6Z"/>
          <path d="M266,6.4c-.4-.2-.8-.4-1-.7s-.3-.7-.3-1.1c0-.6.2-1.2.7-1.6s1-.6,1.8-.6,1.4.2,1.8.7.7,1,.7,1.6-.1.7-.3,1-.5.5-1,.7c.5.2.9.4,1.2.8s.4.8.4,1.4-.3,1.4-.8,1.9-1.2.8-2.1.8-1.5-.3-2.1-.8-.8-1.1-.8-1.9.1-1,.4-1.4.7-.6,1.2-.8ZM265.5,8.6c0,.3,0,.6.2.9s.4.5.6.7.6.2.9.2c.5,0,.9-.2,1.2-.5s.5-.7.5-1.2-.2-.9-.5-1.3-.8-.5-1.3-.5-.9.2-1.2.5-.5.7-.5,1.2ZM265.8,4.6c0,.4.1.7.4,1s.6.4,1,.4.7-.1,1-.4.4-.6.4-.9-.1-.7-.4-1-.6-.4-1-.4-.7.1-1,.4-.4.6-.4.9Z"/>
          <path d="M277.9,4.6h-1c0-.3-.2-.6-.4-.8-.3-.3-.6-.5-1.1-.5s-.6,0-.9.3c-.3.2-.6.6-.8,1.1s-.3,1.1-.3,2c.3-.4.6-.7.9-.9s.8-.3,1.2-.3c.7,0,1.3.3,1.8.8s.7,1.2.7,2-.1,1-.3,1.5-.6.8-1,1.1-.9.4-1.4.4c-.9,0-1.6-.3-2.2-1s-.8-1.7-.8-3.2.3-2.9.9-3.6c.5-.7,1.3-1,2.2-1s1.2.2,1.7.6.7.9.8,1.6ZM273.6,8.3c0,.4,0,.7.2,1s.4.6.6.8.6.3.9.3c.4,0,.8-.2,1.1-.5s.5-.8.5-1.5-.2-1.1-.5-1.4-.7-.5-1.2-.5-.9.2-1.2.5-.5.8-.5,1.3Z"/>
          <path d="M280.5,9.1h1c0,.4.2.7.5.9s.6.3.9.3.6,0,.9-.2.4-.3.6-.6.3-.6.4-1c.1-.4.2-.9.2-1.3s0-.1,0-.2c-.2.3-.5.6-.9.8s-.8.3-1.2.3c-.7,0-1.3-.3-1.8-.8s-.7-1.2-.7-2,.3-1.6.8-2.1,1.2-.8,1.9-.8,1.1.2,1.5.5.8.7,1.1,1.3.4,1.4.4,2.4-.1,2-.4,2.6-.6,1.1-1.1,1.5-1,.5-1.7.5-1.2-.2-1.6-.6-.7-.9-.8-1.6ZM284.8,5.3c0-.6-.2-1.1-.5-1.4s-.7-.5-1.2-.5-.9.2-1.2.6-.5.9-.5,1.5.2,1,.5,1.3.7.5,1.2.5.9-.2,1.2-.5.5-.8.5-1.4Z"/>
          <path d="M291.4,5.7l.7-.6.6.6c0,0,0,.1,0,.2,0,.1,0,.3-.3.3h-2.6l-.4,1.4h1.7l.2-.4.5.3c.1,0,.2.2.2.3s0,.2-.2.2c0,0-.2,0-.2.2,0,.6-.1,1.2-.2,1.8-.2.9-.3,1.8-1.7,2.2,0-.3-.2-.6-.8-.8,0,0-.1,0-.1-.1s0-.1.1-.1,0,0,0,0c.4.1.7.2.9.2.2,0,.4-.2.6-.4.2-.2.3-.6.3-1.3v-1.4c.1,0,.2-.3.2-.3h-1.8l-.2.8c0,.1-.2.2-.3.2-.2,0-.3-.2-.3-.3l.7-2.5h-1.1v-.4c0,0,3.1,0,3.1,0ZM288.8,1.3l.5.3h2l.3-.4.5.3c0,0,0,.1,0,.2,0,0,0,.1-.1.2,0,0-.1,0-.1.1v2.8c0,.2,0,.2-.4.3,0,0-.1,0-.1-.3v-.4h-1.9v.5c0,0,0,.1-.1.2-.4,0-.5.1-.5-.2V1.3ZM289.4,4.1h1.9v-2.1h-1.9v2.1ZM293.5,3.7v1.5c0,2.3-.2,4.2-.9,5.6-.3.6-.9,1.4-1.1,1.4s0,0,0,0,0,0,0,0c.8-1.1,1.5-2.5,1.5-6.8v-2.2l.6.4h1.8V.9h.6c.2.1.3.2.3.3s0,.2-.2.2c-.1,0-.1,0-.1.5h1.4l.6-.5.6.4c0,0,.1.2.1.2s0,.2-.3.2h-2.6v1h2.6l.4-.4.4.6c0,0,.1.2.1.2,0,.2-.2.2-.2.2s-.2,0-.2,0c0,0-.1,0-.2,0l-.8.8s0,0,0,0c0,0,0,0,0-.1s0,0,0,0c.2-.3.4-.6.5-.9h-4.8ZM295.5,7.4c.2,0,.3.1.3.2s0,.1-.2.1-.2,0-.2.1c0,1.4-.3,2.1-.6,2.7-.6,1-1.8,1.5-1.9,1.5s0,0,0-.1,0,0,0,0c1.6-.9,1.9-2.5,1.9-4.6h.6ZM295.7,5.5v.7h0c0,0,.1.1.1.1h2.5c0-.1.1-.3.2-.5v-.5c.1,0,.2,0,.2,0s0,0,0,.1v.5c0,.2,0,.3,0,.4s0,.1,0,.2,0,.3-.2.3h-3.3c-.2-.1-.3-.2-.3-.4v-.9h-1c0,0-.2-.3-.2-.3h1.2v-1.2l.7.2c0,0,.1,0,.1.1s0,.1-.1.1-.1,0-.1,0v.5h1.1c0,0,.4-.5.4-.5l.5.4c0,0,.1,0,.1.2,0,.1-.1.2-.3.2h-1.9ZM296.5,7.5l.7.2c0,0,.1,0,.1.2s0,.2-.2.2-.1,0-.1,0v3.2c0,0,0,0,.2.1h1.1c.2,0,.3,0,.4-.7v-.6c0,0,0-.1.1-.1,0,0,.1,0,.1.1v.7c0,.3.1.5.3.6,0,0,.1.1.1.2,0,.2-.1.4-.3.4h-2.3c-.3-.1-.3-.2-.3-.5v-4Z"/>
        </g>
      </g>
    </g>
  </g>
</svg>