<?xml version="1.0" encoding="UTF-8"?>
<svg id="_圖層_2" xmlns="http://www.w3.org/2000/svg" version="1.1" viewBox="0 0 300 14.5">
  <!-- Generator: Adobe Illustrator 30.0.0, SVG Export Plug-In . SVG Version: 2.1.1 Build 123)  -->
  <defs>
    <style>
      .st0 {
        isolation: isolate;
      }
    </style>
  </defs>
  <g id="_圖層_1-2">
    <g>
      <g class="st0">
        <g class="st0">
          <path d="M1,6.3c0,0,0,0,0-.1s0,0,0-.1c.7-1.2,1.4-2.6,1.9-3.9H.8v-.4c0,0,2.1,0,2.1,0l.3-.3.4.4c0,0,0,.1,0,.2s0,.2-.2.2c0,0-.2,0-.2.2-.4,1-.8,1.9-1.2,2.6h1.2l.4-.4.6.6s0,0,0,.1c0,.1-.1.2-.3.2,0,0-.2,0-.2.1-.3,2-.5,2.8-1,3.7.7.9,1.8,1.6,5.2,1.6s2.1,0,3.3-.2c0,0,0,0,0,0s0,.1-.2.2c-.1,0-.2.2-.2.3,0,.1,0,.2,0,.2-.8,0-1.5,0-2.1,0-1,0-1.8,0-2.4-.1-2-.3-3-.8-3.7-1.7-.3.6-.5.9-1,1.3-.5.5-1.3.9-1.3.9s-.1,0-.1-.1,0,0,0,0c.9-.6,1.6-1.5,2-2.5-.3-.5-.6-1.2-.7-1.9-.2.5-.4.9-.6,1.2,0,.3,0,.4-.2.4s-.2,0-.2-.2l-.2-.4c.4-.3.8-.8,1.2-1.4,0,0,0-.1.1-.1s0,0,.1.1c.2.8.4,1.5.7,1.9l.4-1.1c.2-.6.3-1.4.4-2.2v-.2s-1.3,0-1.3,0l-.4.7s-.1,0-.2.1h-.4ZM7.1,8.7v-1.3h-2.5v-.4c0,0,2.5,0,2.5,0v-1.3h-2.1v-.4c0,0,2.1,0,2.1,0v-1.3h-3v-.4c0,0,3,0,3,0v-1.3h-2.4v-.4c0,0,2.4,0,2.4,0v-1h.7c.2.1.3.2.3.3s0,.2-.2.2c-.2,0-.2,0-.2.5h1.7l.3-.3.6.4s0,0,0,.1,0,.2-.2.2c0,0-.2,0-.2.1v1.2h.2l.7-.6.6.6c0,0,0,.1,0,.2,0,.1,0,.2-.2.2h-1.4v2.2c0,0,0,.1,0,.2-.4,0-.5.1-.5-.2v-.5h-1.8v1.3h1.4l.7-.5.6.5s0,0,0,.2c0,.2-.2.2-.3.2h-2.5v1.3h1.9l.8-.6.8.6c0,0,0,.1,0,.2,0,.2-.1.2-.3.2h-3.3v1.5c0,.2-.4.3-.5.3s-.1,0-.1-.1v-1.7h-3.1v-.4c0,0,3.1,0,3.1,0ZM7.7,2.4v1.3h1.8v-1.3h-1.8ZM7.7,4v1.3h1.8v-1.3h-1.8Z"/>
          <path d="M22.7,2.1l.7-.5.6.4c0,0,.1.2.1.2,0,.1,0,.2-.3.2h-2.1l.3.2c.4.4.4.4.4.9,0,.2-.2.2-.3.2-.2,0-.3-.1-.3-.2,0-.3-.2-.5-.3-.7l-.3-.4h-.7l-.5.5c-.7.7-1.3,1-1.4,1s0,0,0,0,0,0,0,0c1.1-.7,1.8-1.9,2-2.4v-.3c0,0,.7.3.7.3.1,0,.2.1.2.2s0,.2-.2.2-.2,0-.2,0l-.3.3h1.8ZM23.8,8.5v-1.1h.7c.2.1.3.2.3.3s0,.2-.2.2c-.1,0-.2.1-.2.2v.4h3.2l.8-.6.8.6s0,0,0,.2,0,.2-.3.2h-4.3c1.6,1.5,3.7,2,4.7,2.1,0,0,0,0,0,0s0,.1-.2.2c-.1,0-.2.2-.2.3,0,0,0,.1-.1.1s0,0,0,0c-1-.2-2.8-.9-4.4-2.7v3c0,.2-.4.3-.5.3s-.1,0-.1-.1v-2.9c-1.5,1.7-4.8,2.4-5,2.4s-.1,0-.1-.1,0,0,0-.1c1.5-.4,3.8-1.4,4.7-2.6h-4.4v-.4c0,0,4.8,0,4.8,0ZM22.2,4.4l.7-.5.6.5c0,0,0,.1,0,.2,0,.1,0,.2-.3.2h-1.7v1.5l1.7-.5c.2,0,.2,0,.2.1,0,0,0,.2-.1.2-.5.3-1.2.5-1.8.7l-1.8.6s0,0,0,0,0,.1,0,.1c0,.1-.1.1-.2.1-.1,0-.2,0-.3-.2l-.3-.6c.6,0,1.3-.2,2-.4v-1.7h-1.8v-.4c0,0,2.9,0,2.9,0ZM24.9,4.9c0,1.3-.6,2-1.3,2.3-.6.3-1.3.6-1.4.6s-.1,0-.1-.1,0,0,0,0c1-.4,2.1-.9,2.1-2.7v-1.2l.5.4h2l.3-.4.5.4c0,0,.1.1.1.2,0,.1-.1.2-.2.2,0,0-.1.1-.1.2v1.5c0,.4.2.5.6.5s.7-.1.8-.5v-.7c.1,0,.2-.1.2-.1s.1,0,.1.1v1c0,0,.2.1.2.1,0,0,.1.1.1.3,0,.2-.3.4-.6.4h-.7c-.7,0-1.3-.2-1.3-1v-1.9h-2v.4ZM27.8,2.1l.7-.6.7.5c0,0,.1.2.1.2,0,.1,0,.2-.3.2h-2.2c.3.2.6.5.6.7v.3c0,.1-.2.2-.3.2-.2,0-.3-.2-.3-.2,0-.3-.2-.5-.3-.7l-.3-.3h-1.3l-.4.4c-.6.6-1.2.9-1.3.9s0,0,0-.1c0,0,0,0,0,0,.4-.3.7-.6,1-1.1.5-.7.6-1,.7-1.5l.6.3c.1,0,.2.1.2.2s0,.2-.2.2h-.2s-.3.4-.3.4h2.2ZM26.3,6.7c0,.1,0,.1-.3.1h-.1c0-.3-.3-.9-.7-1.2,0,0,0,0,0,0s0,0,0,0c.2,0,1,.6,1.1,1v.3Z"/>
          <path d="M38.5,4.9c-.7,1.1-1.5,2-1.7,2s0,0,0-.1,0,0,0-.1c1.8-2.2,2.6-4.8,2.7-5.8h.7c.1.2.2.2.2.3s0,.2-.2.2-.2,0-.2,0c-.3.9-.6,1.7-1.1,2.5.3.1.4.1.4.2s0,.1-.1.1c0,0-.1.1-.1.1v7.3c0,0,0,.1-.1.1-.4,0-.5.1-.5-.1v-7ZM43.7,4.9v.7c.2,1,.6,2.9,1.6,4.2.8,1,1.4,1.2,1.5,1.2,0,0,.1-.2.2-.5l.3-1.2c0,0,0,0,.1,0,.1,0,.1,0,.1.1l-.2,1.3c0,0,0,.2,0,.3,0,.2,0,.3.1.4,0,0,0,.2,0,.2,0,.1-.1.3-.3.3s-.6-.2-.9-.3c-2-1.3-2.7-3.5-3.1-5.4l-.2-1.2-3,.4-.2-.3,3.2-.5c0-.8-.1-1.8-.2-2.9v-.6h.7c.2.1.3.2.3.3s0,.2-.2.2c-.1,0-.2,0-.2.1,0,1.1,0,2.1,0,2.9l2.9-.4.4-.6.7.4c0,0,.1,0,.1.2,0,.2-.2.2-.2.2l-3.8.5ZM44.7,1.6s0-.1,0-.1c.3,0,1.7.9,1.7,1.5s0,.3-.3.3-.3-.1-.3-.2c-.3-.7-.8-1.2-1.1-1.4,0,0,0,0,0,0Z"/>
        </g>
        <g class="st0">
          <path d="M57.6,1.8c-.8,1.7-2.4,3.2-2.6,3.2s0,0,0-.1,0,0,0,0c.5-.5,1-1,1.4-1.7.7-1.1.8-1.6.8-2.1l.7.2c.1,0,.2.1.2.2,0,.1,0,.2-.3.2.3.2,1.6,1.1,1.6,1.7s-.1.3-.3.3-.3-.1-.3-.2c-.2-.5-.5-.9-.7-1.2l-.5-.4ZM57,6.7h-1.9v-.4c0,0,1.9,0,1.9,0v-1.7h-.8v-.4c0,0,1.5,0,1.5,0l.7-.6.6.6c0,0,0,.1,0,.2,0,.1-.1.2-.2.2h-1.2v1.7h.6l.7-.6.6.6c0,0,0,.1,0,.2,0,.1-.1.2-.2.2h-1.7v3.6c.6-.2,1.2-.4,1.7-.7,0,0,0,0,0,0,0,0,.1,0,.1.1s0,0,0,.1c-.9.6-2.4,1.3-3.8,1.6,0,0,0,0,0,.2,0,.2-.1.2-.2.2,0,0-.2,0-.2-.3l-.2-.8h.6c.3,0,.8-.1,1.5-.3v-3.8ZM55.8,9.8c0-.2,0-.2,0-.5,0-.6-.1-1.3-.4-1.7,0,0,0,0,0,0,0,0,0,0,0,0,.2,0,.9,1.3.9,2s0,.4-.3.4h-.2ZM58.7,7.5h.6c.1.2.2.2.2.3,0,0,0,.2-.1.2s-.2,0-.2,0l-.3.9c-.2.4-.5.8-.6.8s-.1,0-.1-.1,0,0,0,0c.1-.3.2-.5.3-.8l.2-.8v-.4ZM60.1,1.5s0-.1.1-.1c.3,0,1.4,1.3,1.4,1.9s0,.4-.3.4-.3-.2-.3-.2c-.2-1-.6-1.7-.9-1.9,0,0,0,0,0,0ZM60.2,3.9l.6.5h1.7V.8h.6c.2.1.3.2.3.3s0,.2-.1.2c0,0-.1.1-.1.2v2.9h1.6l.3-.3.5.4c0,0,.2.1.2.2s0,.2-.2.2c0,0-.1,0-.1.1v6.3c0,.4-.5.6-1.1.7-.1-.5-.1-.5-.6-.7,0,0-.1,0-.1-.1s0-.1,0-.1.7,0,.8,0,.3,0,.3-.3v-2.2h-3.9v3.2c0,.1-.1.2-.5.3,0,0-.1,0-.1-.3V3.9ZM60.8,4.8v1.7h3.9v-1.7h-3.9ZM60.8,6.8v1.6h3.9v-1.6h-3.9ZM64.9,1.3l.7.2c.1,0,.2,0,.2.2s0,.2-.2.2h-.2c0,0-.6,1-.6,1l-.7.9s0,0-.1,0-.1,0-.1-.1,0,0,0,0c.4-.6.9-1.8.9-2v-.4Z"/>
          <path d="M76.1,4.8c0,.3-.3.7-.7.7s-.7-.3-.7-.7.2-.7.7-.7.7.3.7.7ZM76.1,7.9c0,.3-.3.7-.7.7s-.7-.4-.7-.7.2-.7.7-.7.7.2.7.7Z"/>
        </g>
      </g>
      <g class="st0">
        <g class="st0">
          <path d="M107,5.4l.8-.6.8.6c0,0,0,.1,0,.2,0,.1,0,.2-.3.2h-3.3c1,1.5,2.1,2.1,3.6,2.5,0,0,0,0,0,0s0,0-.2.1c-.2,0-.3.1-.3.3,0,.1,0,.2-.1.2s-.6-.2-1.2-.6c-.5-.4-1.4-1.2-2.1-2.5h-3.4c-1.4,2.2-3.5,3.1-3.6,3.1s0,0,0-.1c0,0,0,0,0,0,1.2-.7,2.3-1.7,3-2.9h-2.9v-.4c0,0,3.1,0,3.1,0,.3-.5.5-.8.6-1.3h-2.4v-.4c0,0,2.6,0,2.6,0l.4-1.1h-3.8v-.4c0,0,3.9,0,3.9,0v-.8c.1,0,.2-.4.2-.4l.8.2c.1,0,.2,0,.2.2s0,.2-.2.2h-.2s-.2.6-.2.6h3.4l.8-.6.8.6c0,0,0,.1,0,.2,0,.2-.1.2-.3.2h-4.9l-.4,1.1h3.2l.8-.6.8.6c0,0,0,.1,0,.2,0,.2-.1.2-.3.2h-4.7l-.2.5-.4.8h5.4ZM99.3,10.5c.3,0,1.4-.3,2.7-1.1,0,0,0,0,0,0,0,0,.1,0,.1.1s0,0,0,0c-1.1.9-2.4,1.5-2.6,1.5,0,0,0,0,0,.2,0,.2-.1.3-.2.3,0,0-.1,0-.2-.2l-.3-.7h.6ZM101.4,8.8c-.1-.2-.5-.9-1-1.2,0,0,0,0,0,0,0,0,0,0,.1,0,0,0,.4.1.8.4.4.3.6.5.6.8s-.4.3-.5,0ZM102.7,6.2h.7c.2.1.3.2.3.3s0,.2-.2.2c-.1,0-.2,0-.2.2v4.5c0,.3-.3.6-1,.7l-.2-.4c0-.1-.4-.3-.8-.4-.1,0-.2,0-.2-.1s0-.2.2-.1l1.2.2c0,0,.1,0,.1-.1v-5ZM105,7.2l.6.4c0,0,.1.1.1.2s0,.2-.2.2h-.3s-.6.5-.6.5l-.6.5s0,0-.1,0c0,0-.1,0-.1-.1s0,0,0,0c.2-.2.4-.4.5-.7l.3-.6.2-.3ZM104,9.8c0,0,0-.1.1-.1.1,0,3,.7,3,1.5s0,.3-.3.3,0,0-.2,0c-.6-.6-1.5-1.2-2.5-1.5,0,0,0,0,0-.1Z"/>
          <path d="M125.1,5.7h-1.2v-.4c0,0,1.2,0,1.2,0v-3h-1.3v-.4c0,0,2.3,0,2.3,0l.6-.6.6.6c0,0,0,.1,0,.2,0,.1,0,.3-.3.3h-1.5v3h.3l.6-.6.6.6c0,0,0,.1,0,.2,0,.1-.1.2-.2.2h-1.4v3.4c.5-.2,1-.4,1.4-.7,0,0,0,0,0,0,0,0,.1,0,.1.1,0,0-.8.7-1.6,1.1l-1.2.5s0,.1,0,.2c0,.2-.1.2-.2.2s-.2,0-.2-.2l-.3-.8h.6c0,0,.8-.3.8-.3v-3.6ZM127.6,6.7l.6.4h2.4v-1.4h-2v.5c0,0,0,.1-.1.2-.4,0-.5.1-.5-.2v-3.2l.6.4h2v-1.3c-.8,0-1.6.1-2.3.1s-.6,0-.6-.2,0-.1.1-.1c1,0,3.8-.3,5.2-1l.6.3c0,0,.1.1.1.2s0,.1-.2.1-.3,0-.3,0c-.6.2-1.4.4-2.1.5v1.3h2l.3-.4.5.3c0,0,0,.1,0,.2,0,0,0,.1-.1.2,0,0-.1,0-.1.1v2.3c0,.2,0,.2-.4.3,0,0-.2,0-.2-.3v-.4h-2v1.4h2.4l.3-.3.5.4c0,0,.1.1.1.2,0,0,0,.2-.2.2,0,0-.1,0-.1.2v3.7c0,.5-.6.6-.9.7,0-.4-.5-.5-.9-.6,0,0-.1,0-.1-.2s0-.1.1-.1,0,0,0,0c.4,0,.7.1.9.1s.3,0,.3-.3v-3.6h-2.4v1.9l1.2-.3c-.1-.4-.3-.6-.5-.8s0,0,0,0c0,0,0-.1.1-.1.2,0,1.2,1.3,1.2,1.9s0,.4-.3.4-.2,0-.3-.3v-.7c-.6.2-1.1.3-1.6.5l-1.6.4s0,0,0,.1h0c0,.2,0,.3-.2.3s-.2,0-.3-.3l-.2-.7c.6,0,1.3-.1,1.9-.2h0v-2.1h-2.4v4.4c0,0,0,.1-.1.2-.4,0-.5.1-.5-.2v-5.1ZM130.6,3.8h-2v1.6h2v-1.6ZM131.2,5.4h2v-1.6h-2v1.6Z"/>
          <path d="M151.4,5.9c-.8.9-1.7,1.5-1.8,1.5s0,0,0,0,0,0,0-.1c1.5-1.3,2.6-3,2.9-4l.6.3c.1,0,.2.1.2.2s0,.2-.2.2-.1,0-.1,0c0,0,0,0,0,0-.3.5-.6.9-.9,1.3v6.8c0,0,0,.1-.1.2-.3.1-.5.2-.5-.2v-6.1ZM152.4,1.7c-.7,1.3-2.5,2.5-2.7,2.5s0,0,0,0,0,0,0,0c.5-.3.9-.7,1.4-1.3.6-.7.8-1.1,1-1.8l.6.3c0,0,.2.1.2.2s0,.1-.2.1h-.2ZM157.8,11.4c0,.3-.2.7-.9.7,0-.4-.6-.6-1.2-.7,0,0-.1,0-.1-.1s0-.1.1-.1h0c.6,0,1,.2,1.2.2s.2,0,.2-.3v-5.9h-3.8v-.4c0,0,5.5,0,5.5,0l.8-.6.8.6c0,0,0,.1,0,.2,0,.2-.1.2-.3.2h-2.4v6.2ZM158.4,1.8l.8-.6.8.6c0,0,0,.1,0,.2,0,.2-.2.2-.3.2h-5.5v-.4c0,0,4.1,0,4.1,0Z"/>
          <path d="M178.2,1.8c-.8,1.7-2.4,3.2-2.6,3.2s0,0,0-.1,0,0,0,0c.5-.5,1-1,1.4-1.7.7-1.1.8-1.6.8-2.1l.7.2c.1,0,.2.1.2.2,0,.1,0,.2-.3.2.3.2,1.6,1.1,1.6,1.7s-.1.3-.3.3-.3-.1-.3-.2c-.2-.5-.5-.9-.7-1.2l-.5-.4ZM177.6,6.7h-1.9v-.4c0,0,1.9,0,1.9,0v-1.7h-.8v-.4c0,0,1.5,0,1.5,0l.7-.6.6.6c0,0,0,.1,0,.2,0,.1-.1.2-.2.2h-1.2v1.7h.6l.7-.6.6.6c0,0,0,.1,0,.2,0,.1-.1.2-.2.2h-1.7v3.6c.6-.2,1.2-.4,1.7-.7,0,0,0,0,0,0,0,0,.1,0,.1.1s0,0,0,.1c-.9.6-2.4,1.3-3.8,1.6,0,0,0,0,0,.2,0,.2-.1.2-.2.2,0,0-.2,0-.2-.3l-.2-.8h.6c.3,0,.8-.1,1.5-.3v-3.8ZM176.4,9.8c0-.2,0-.2,0-.5,0-.6-.1-1.3-.4-1.7,0,0,0,0,0,0,0,0,0,0,0,0,.2,0,.9,1.3.9,2s0,.4-.3.4h-.2ZM179.3,7.5h.6c.1.2.2.2.2.3,0,0,0,.2-.1.2s-.2,0-.2,0l-.3.9c-.2.4-.5.8-.6.8s-.1,0-.1-.1,0,0,0,0c.1-.3.2-.5.3-.8l.2-.8v-.4ZM180.7,1.5s0-.1.1-.1c.3,0,1.4,1.3,1.4,1.9s0,.4-.3.4-.3-.2-.3-.2c-.2-1-.6-1.7-.9-1.9,0,0,0,0,0,0ZM180.9,3.9l.6.5h1.7V.8h.6c.2.1.3.2.3.3s0,.2-.1.2c0,0-.1.1-.1.2v2.9h1.6l.3-.3.5.4c0,0,.2.1.2.2s0,.2-.2.2c0,0-.1,0-.1.1v6.3c0,.4-.5.6-1.1.7-.1-.5-.1-.5-.6-.7,0,0-.1,0-.1-.1s0-.1,0-.1.7,0,.8,0,.3,0,.3-.3v-2.2h-3.9v3.2c0,.1-.1.2-.5.3,0,0-.1,0-.1-.3V3.9ZM181.5,4.8v1.7h3.9v-1.7h-3.9ZM181.5,6.8v1.6h3.9v-1.6h-3.9ZM185.5,1.3l.7.2c.1,0,.2,0,.2.2s0,.2-.2.2h-.2c0,0-.6,1-.6,1l-.7.9s0,0-.1,0-.1,0-.1-.1,0,0,0,0c.4-.6.9-1.8.9-2v-.4Z"/>
          <path d="M203.7,13.6c-.6-.7-1.1-1.6-1.5-2.6s-.6-2-.6-3.1.2-1.8.5-2.7c.4-1,.9-2,1.6-3h.8c-.5.8-.8,1.4-.9,1.7-.2.5-.4,1.1-.6,1.7-.2.7-.3,1.5-.3,2.2,0,1.9.6,3.8,1.8,5.6h-.8Z"/>
          <path d="M223.1,11.1c0,.5-.6.7-1.1.7l-.2-.4c0-.1-.4-.3-.9-.4,0,0-.1,0-.1-.1s0-.1.1-.1h0c.6.1,1,.2,1.2.2s.3,0,.3-.3v-3.1h-1.8c-.1,1-.4,2.9-1.2,4.3,0,0,0,0,0,0,0,0,0,0,0-.1s0,0,0,0c.2-.6.4-1.2.5-1.8.4-1.8.4-4.3.4-6.4V1.1l.5.4h1.7l.3-.3.5.4c0,0,.1.2.1.3s0,.2-.1.2c0,0-.1,0-.1.1v9ZM220.8,4.8c0,.9,0,1.8-.1,2.5h1.8v-2.5h-1.7ZM222.5,1.9h-1.7v2.5h1.7V1.9ZM228.1,6.5l.3-.5.4.3c.2.1.3.2.3.3s0,.1-.3.2c-.3.9-.6,1.6-1.1,2.3l-.6.7.6.5c.7.4,1.6.8,2.6.9,0,0,.1.1-.2.2-.2,0-.3.1-.3.3,0,.2-.1.2-.2.2h0c-.9-.3-1.7-.7-2.3-1.2l-.6-.6-.8.6c-1.1.8-2.7,1.2-2.8,1.2s-.1,0-.1-.1c0,0,0,0,0-.1,1-.4,1.9-.9,2.6-1.4l.7-.6c-.7-.9-1.3-1.9-1.6-3h-.9v-.4s4.2,0,4.2,0ZM225.5,1.9c0,.6,0,1.4-.2,2.1-.4,1.5-1.8,2.1-1.8,2.1s-.1,0-.1-.1,0,0,0,0c1-.8,1.5-1.6,1.5-3.8v-1l.5.3h2l.3-.4.5.4c0,0,.1.1.1.2s0,.2-.2.2c0,0-.1,0-.1.2v2.2c0,.4.2.5.6.5s.7,0,.8-.5l.2-.7c0,0,0,0,.1,0s0,0,0,.1v.7s0,.3,0,.3v.2c.2,0,.2.1.2.3,0,.2-.3.4-.6.4h-.7c-.7,0-1.3-.2-1.3-1V1.9h-1.9ZM225,6.9c.4,1,1,2,1.7,2.7.5-.5,1-1.2,1.4-2.7h-3.1Z"/>
          <path d="M246.2,13.6h-.8c1.2-1.9,1.8-3.8,1.8-5.6s0-1.5-.3-2.2c-.1-.6-.3-1.1-.6-1.7-.2-.4-.5-.9-.9-1.8h.8c.7,1,1.3,2,1.6,3,.3.9.5,1.7.5,2.7s-.2,2.1-.6,3.1-.9,1.8-1.5,2.6Z"/>
          <path d="M266.3,1.6h.7c.1.2.2.2.2.3s0,.2-.1.2c0,0-.1,0-.2,0-.8,2.5-3.2,5.2-3.5,5.2s-.1,0-.1-.1,0,0,0,0c1.7-1.7,2.7-4.1,2.9-5.2v-.3ZM267.6,11c1.7-.2,3.1-.4,4.4-.7l-.3-.6c-.4-.6-.8-1.1-1.2-1.5,0,0,0,0,0,0s0,0,0,0h.1l.9.8c1.4,1.2,1.9,2.4,1.9,2.8s0,.4-.3.4-.3,0-.4-.5l-.4-1c-1.2.3-2.5.6-3.9.8-1.4.2-2.7.3-3.8.3,0,0,0,0-.1.2,0,.1,0,.2-.2.2s-.2,0-.2-.2v-.5c0,0-.2-.5-.2-.5h.8c0,.1.9.2.9.2,1.3-2.1,2.2-4.8,2.3-5.4v-.4s.7.2.7.2c.1,0,.2,0,.2.2s0,.2-.2.2c0,0-.2,0-.2,0-.3.9-.8,1.8-1.2,2.8-.4.9-.9,1.7-1.4,2.4h1.8ZM270.3,1.3l.3-.3.4.4c0,0,.1.1.1.2s0,.2-.3.2-.2,0-.2,0c.1.7.4,1.3.7,2,.9,1.7,2.5,2.5,2.9,2.7h0c0,.1-.1.2-.3.2-.2,0-.3.1-.4.3,0,.1,0,.2-.1.2s0,0,0,0c-2.4-1.8-3-3.9-3.3-5.5h-1.9v-.4c0,0,1.9,0,1.9,0Z"/>
          <path d="M298.9,11.3c0,.3-.2.6-1.1.7,0-.4-.4-.6-1-.7,0,0-.1,0-.1-.1,0,0,0,0,.1,0h0c.4,0,.8,0,1,0s.5,0,.5-.3V1.9h-8.8v-.4c0,0,8.8,0,8.8,0l.3-.3.5.4c0,0,.2.2.2.3s0,.2-.2.2c0,0-.1,0-.1.1v9.1ZM295.4,3.7l.8-.6.8.6c0,0,0,.1,0,.2,0,.2-.1.2-.3.2h-6.6v-.4c0,0,5.3,0,5.3,0ZM290.9,5.2l.6.4h3.6l.3-.3.6.4s0,0,0,.1,0,.2-.2.2c0,0-.2,0-.2.1v3.5c0,0,0,.1-.1.2-.4,0-.5.1-.5-.2v-.8h-3.6v1.2s0,.1-.1.2c-.4,0-.5.1-.5-.2v-4.8ZM291.5,6v2.4h3.6v-2.4h-3.6Z"/>
        </g>
      </g>
    </g>
  </g>
</svg>