<?xml version="1.0" encoding="UTF-8"?>
<svg id="_圖層_2" data-name="圖層 2" xmlns="http://www.w3.org/2000/svg" viewBox="0 0 732.76 78.7">
  <defs>
    <style>
      .cls-1 {
        fill: #321d12;
      }

      .cls-2 {
        fill: none;
        stroke: #321d12;
        stroke-miterlimit: 10;
      }
    </style>
  </defs>
  <g id="_圖層_1-2" data-name="圖層 1">
    <path class="cls-1" d="M61.76,33.63v-11.11l5.22.53c-.07.53-.36.79-1.47.94v31.58c0,.45-1.61,1.43-3,1.43h-.75v-8.36c-1.68,1.28-3.93,2.86-6.83,4.71-.14.49-.5.87-.89,1.02l-2.29-4.89c1.82-.3,5.79-1.17,10.01-2.18v-12.91h-9.33l-.21-.75h9.55ZM83.81,46.32v5.61c1.39.6,1.57.87,1.57,1.47,0,1.69-1.14,2.52-4.79,2.52h-4.79c-4.11,0-4.93-1.09-4.93-5.46v-27.89l5.26.49c-.07.53-.36.83-1.47.98v12.23c2.29-2.26,4.72-5.35,6.01-7.42l4.75,3.05c-.11.19-.32.3-.61.3-.14,0-.36-.04-.57-.11-2.15,1.69-6.15,3.99-9.58,5.46v13.06c0,1.51.14,1.66,1.14,1.66h4.72c.5,0,.93-.08,1.29-.64.39-.56,1-2.82,1.68-5.31h.32Z"/>
    <path class="cls-1" d="M120.43,25.2l4.33,3.24c-.29.45-.71.64-1.75.64h-13.05l1.22.11c-.07.49-.29.75-1.25.87v5.31h6.58l1.54-2.15,4.15,3.16c-.21.26-.75.6-1.47.75v10.58c0,2.45-.46,4.18-5,4.71,0-3.01-1.29-3.54-3.58-3.8v-.49h4.11c.43,0,.61-.11.61-.53v-11.48h-6.94v19.54c0,.45-1.79,1.43-3.22,1.43h-.79v-20.97h-6.94v14.83c0,.11-.54,1.51-3.83,1.51v-18.82l4.08,1.73h6.69v-6.29h-14.55l-.18-.75h14.73v-6.59l5.51.53c-.04.57-.43.83-1.5.98v5.08h8.22l2.29-3.12Z"/>
    <path class="cls-1" d="M158.29,39.5l4.25,3.24c-.25.3-.79.68-1.57.83v12.08s-1.07,1.17-3.93,1.17v-2.52h-12.66v1.58c0,.26-1.18,1.2-3.11,1.2h-.72v-13.02c-2.93,1.51-6.19,2.79-9.76,3.8l-.21-.49c5.18-2.15,9.72-5.12,13.48-8.66-.54.08-1.07-.08-1.61-.56-.5-1.96-2.04-4.25-3.75-5.72-2.15,1.84-4.5,3.46-6.97,4.59l-.32-.38c4.43-3.35,8.58-9.45,10.4-14.98l5.51,1.35c-.14.41-.43.6-1.39.53-.57,1.02-1.18,2.03-1.9,3.01h8.08l2.54-2.45,3.79,3.84c-.29.38-.64.53-1.64.6-2.86,5.19-6.86,9.6-12.12,13.1l.18.08h11.8l1.64-2.22ZM143.49,27.27c-1.18,1.58-2.57,3.09-4.08,4.52,4.72.79,6.26,3.01,6.26,4.71,0,.23,0,.45-.07.68,2.82-2.97,5.08-6.32,6.69-9.9h-8.79ZM144.38,53.54h12.66v-11.07h-12.66v11.07Z"/>
    <path class="cls-1" d="M196.58,33.25c.46-1.2,1.04-3.43,1.32-5.01h-22.34c.25,3.16-1.14,5.61-3.47,5.61-1.11,0-2.11-.6-2.11-1.81,0-.9.68-1.66,1.5-2.11,1.39-.68,2.93-2.52,2.93-4.67h.54c.25.79.43,1.54.54,2.22h9.12v-5.91l5.43.53c-.07.56-.39.83-1.5,1.02v4.37h9.12l2.07-2.15,3.58,3.58c-.29.3-.68.41-1.39.45-1.22,1.32-3.32,3.12-4.97,4.14l-.36-.26ZM196.87,41.01l1.79-3.16,4.4,2.41c-.21.53-.68.79-1.57.9l-14.59,2.03v8.09c0,1.2.14,1.36,1.64,1.36h7.94c.82,0,1.32-.08,1.72-.68.43-.6,1.04-2.56,1.9-5.27h.29l-.07,5.5c1.54.56,1.75.83,1.75,1.39,0,1.62-1.14,2.45-5.65,2.45h-7.87c-4.4,0-5.47-.87-5.47-4.86v-7.45l-12.8,1.81-.29-.75,13.08-1.84v-7.34c-3.07.68-6.29,1.2-9.4,1.51l-.18-.56c6.51-1.62,14.12-4.78,17.91-7.34l3.97,3.39c-.18.19-.5.34-.93.34-.32,0-.71-.08-1.22-.26-1.54.6-3.33,1.21-5.29,1.73l.29.04c-.07.45-.29.71-1.32.9v7.08l9.97-1.39Z"/>
    <path class="cls-1" d="M222.83,48.88c-.14.26-.39.45-.82.45-.14,0-.32-.04-.54-.08-2.54,2.9-7.08,5.72-12.05,7.12l-.25-.56c4-2.3,7.69-6.14,9.37-9.37l4.29,2.45ZM212.46,25.24h-3.07l-.18-.75h14.3l1.97-2.56,3.72,2.64c-.29.53-.71.68-1.68.68h-2.61v14.15c0,.19-1.11.87-2.93.87h-.61v-3.09c-2.29.68-5.33,1.51-9.29,2.52-.21.49-.57.71-.93.79l-1.79-3.88c.79,0,1.82-.04,3.11-.08v-11.29ZM220.83,42.02c-.14.26-.36.38-.68.38-.18,0-.39-.04-.68-.11-2.18,1.58-5.79,3.35-9.22,4.33l-.32-.56c2.72-1.73,5.72-4.59,7.15-6.62l3.75,2.6ZM221.36,25.24h-5.4v3.24h5.4v-3.24ZM221.36,32.5v-3.27h-5.4v3.27h5.4ZM215.97,33.25v3.16c1.68-.08,3.5-.19,5.4-.3v-2.86h-5.4ZM234.27,40.97c-.18.23-.46.34-.86.34-.29,0-.64-.08-1.07-.19-.75.38-1.68.75-2.65,1.13.72,1.84,1.75,3.43,2.97,4.78,2-1.92,4.22-4.52,5.36-6.21l4.04,2.97c-.14.23-.36.38-.71.38-.18,0-.39-.04-.64-.11-1.86,1.17-4.68,2.6-7.33,3.69,2.5,2.45,5.79,4.03,9.3,5.04l-.04.41c-1.47.3-2.5,1.51-3,3.31-5.36-2.75-8.9-6.89-10.62-14-.75.26-1.5.49-2.32.75l1.86.15c-.04.3-.18.53-.79.64v11.93s-.75,1.09-3.83,1.09v-13.1c-1.39.3-2.82.56-4.25.75l-.18-.56c4.18-1.36,8.83-3.99,11.08-6.06l3.68,2.86ZM226.73,27.19l-.25-.75h9.4l1.97-2,3.4,2.97c-.29.38-.64.49-1.39.56-.71,1.66-1.72,3.2-2.93,4.56,2.97,1.69,4,3.61,4,4.97,0,1.13-.68,1.88-1.64,1.88-.36,0-.75-.11-1.18-.34-.68-1.17-1.93-2.67-3.65-4.25-2.25,1.73-5.04,3.05-8.4,4.03l-.18-.6c2.79-1.28,5.04-2.94,6.76-4.97-1.36-1.13-2.97-2.22-4.72-3.2l.18-.49c2.4.45,4.4,1.02,6.04,1.66.79-1.24,1.39-2.6,1.9-4.03h-9.3Z"/>
    <path class="cls-1" d="M248.54,36.53c4.54.08,6.04,1.81,6.04,3.27,0,1.17-.89,2.18-1.97,2.18-.43,0-.93-.19-1.39-.64-.25-1.69-1.47-3.54-2.86-4.48l.18-.34ZM275.1,30.84l3.43,3.28c-.25.38-.64.49-1.54.53-1.36,2.33-3.04,4.4-5.11,6.29,3.04,1.69,6.61,2.79,10.22,3.42l-.04.41c-1.47.34-2.47,1.51-2.9,3.31-.39-.11-.75-.26-1.14-.42-.14.08-.32.11-.54.15v7.98c0,.08-1.07.98-3.68.98v-2.15h-8.29v1.28c0,.26-1.11,1.17-2.93,1.17h-.64v-10.05c-1.47.6-3,1.13-4.61,1.58l-.18-.56c4.18-1.77,7.87-4.22,10.8-7.19-1.25-1.51-2.29-3.2-3.11-5.2-1.68,1.69-3.58,3.2-5.58,4.25l-.36-.34c2.72-2.52,5.22-7,6.36-10.88l3.72.79v-2.63h-7.72v3.01c0,.08-.43.98-3.75.98v-3.99h-8.79l-.18-.75h8.97v-4.4l5.11.41c-.07.53-.32.79-1.36.94v3.05h7.72v-4.4l5.15.41c-.04.56-.32.75-1.36.9v3.09h3.5l1.97-2.86,3.72,2.97c-.25.45-.64.64-1.61.64h-7.58v2.79c0,.15-.68,1.05-3.79,1.05v-.38h-.07c-.5.87-1.11,1.77-1.75,2.64h5.76l2.18-2.11ZM251.08,47.6c.54,0,.68,0,1.14-.68q.79-1.24,7.47-13.36l.57.19c-1.39,3.58-4.29,10.58-4.79,12.12-.29.98-.57,2.11-.57,2.94v.15c.04,1.51,1.22,2.67,1.22,5.16v.3c-.04,1.62-1.07,2.67-2.82,2.67-.75,0-1.5-.56-1.72-1.69.21-1.32.32-2.52.32-3.5,0-2.56-.43-3.43-2.5-3.54v-.75c1.29,0,1.68-.04,1.68-.04v.04ZM250.58,30.2c4.68,0,6.19,1.73,6.19,3.24,0,1.13-.86,2.15-1.89,2.15-.46,0-.89-.19-1.36-.56-.46-1.62-1.75-3.5-3.11-4.52l.18-.3ZM273.49,46.32l.39-.56c-1.5-.87-2.93-1.88-4.18-3.05-1.54,1.13-3.18,2.18-5,3.09l1.32.53h7.47ZM265.41,35.06c1.04,1.62,2.36,3.05,3.93,4.25,1.5-1.73,2.72-3.61,3.65-5.61h-6.4l-1.18,1.35ZM265.52,53.92h8.29v-6.85h-8.29v6.85Z"/>
    <path class="cls-1" d="M291.15,27.8l2.39-3.14c1.43-1.7,3.54-2.79,6.15-2.79,4.48,0,7.36,3.12,7.36,7.02,0,1.56-.58,2.89-1.48,3.98-.79.86-2.36,2.17-3.68,3.1,4.47.99,7.52,4.24,7.52,8.19,0,8.7-9.64,12.68-13.24,12.68-2.22,0-4.23-1.08-4.83-1.71-.62-.67-.86-1.16-.86-1.76.02-.84.63-1.53,1.1-1.88.35-.26.73-.29,1.11.02,1.3,1.33,3.39,2.84,6.2,2.84,3.62,0,6.5-2.59,6.5-8.42-.02-5.4-3.75-7.23-6.84-7.23-1.18,0-2.48.29-3.22.57l-.27-1.17c5.03-1.72,8.08-3.83,8.08-7.92,0-3.46-2.15-5.33-5.02-5.33s-4.69,1.77-6.2,3.79l-.77-.84Z"/>
    <path class="cls-1" d="M346.71,41.23l1.93-2.63,3.61,2.71c-.25.53-.71.68-1.68.68h-12.69c-.18,1.43-.43,2.86-.89,4.25h7.15l1.54-1.96,3.86,2.97c-.21.3-.64.53-1.29.64-.57,7.79-1.79,9.11-6.54,9.11,0-2.33-.43-2.94-3.79-3.58v-.53c1.25.04,3.58.11,4.29.11.57,0,.86,0,1.07-.23.54-.45.89-2.52,1.14-5.8h-7.69c-1.47,3.76-4.61,7.38-11.8,10.13l-.39-.53c7.87-4.67,8.76-9.98,9.01-14.61h-6.4c-.61,5.01-2.4,10.5-7.44,14.42l-.39-.34c3.93-6.06,4.4-13.59,4.4-19.99v-8.39l4.33,1.69h16.7l1.5-2.07,4.08,3.01c-.21.26-.71.64-1.39.75v5.83c0,.08-1.11.9-3.83.9v-1.51h-17.62c0,1.51-.04,3.16-.21,4.93h8.54v-4.67l4.9.49c-.07.41-.32.6-1.18.75v3.43h7.19ZM352.36,24.56c-.29.49-.72.68-1.72.68h-30.17l-.21-.75h26.28l2.04-2.79,3.79,2.86ZM345.1,30.09h-17.62v5.5h17.62v-5.5Z"/>
    <path class="cls-1" d="M405.67,33.37c-.29.45-.71.64-1.75.64h-13.62c1.25,7.11,5.33,14.27,15.59,18.75l-.07.45c-2,.38-3.22,1.54-3.58,3.92-8.87-5.57-11.55-14.98-12.51-22.66h-.04c-1.04,9.03-4.5,17.05-17.3,22.7l-.36-.56c9.94-6.47,12.8-14.08,13.62-22.59h-13.41l-.21-.75h13.66c.29-3.24.29-5.91.29-11.41l5.76.53c-.07.53-.32.87-1.47.98-.07,3.39-.11,6.7-.43,9.9h8.87l2.43-3.28,4.54,3.39Z"/>
    <path class="cls-1" d="M440.96,34.12l3.97,3.05c-.29.49-.71.64-1.75.64h-5.65c-1.04,4.25-2.36,7.64-4.43,10.39,7.11,2.07,9.51,5.16,9.51,7.08,0,1.09-.71,1.81-1.79,1.81-.36,0-.75-.08-1.14-.26-1.79-1.77-4.93-3.99-9.04-6.02-3.79,3.27-9.44,5.23-18.23,6.29l-.18-.56c7.01-1.66,11.87-3.88,15.27-7.19-2.07-.87-4.29-1.69-6.65-2.37-.32.71-.61,1.36-.89,1.92-.32.19-.79.26-1.32.26-.82,0-1.79-.23-2.75-.64,1.29-2.45,3.25-6.7,4.97-10.69h-9.3l-.18-.71h9.76c1.32-3.05,2.43-5.87,2.97-7.57l5.18.94c-.11.53-.46.79-1.5.83-.54,1.32-1.43,3.42-2.47,5.8h13.51l2.15-2.97ZM438.13,33.33c.46-1.2,1.04-3.39,1.32-5.01h-22.34c.29,3.39-1.32,5.61-3.5,5.61-1.18,0-2.07-.64-2.07-1.81,0-.9.68-1.66,1.5-2.11,1.39-.64,2.93-2.52,2.93-4.63l.54-.04c.25.79.43,1.54.54,2.22h9.12v-5.87l5.43.53c-.07.53-.39.83-1.5.98v4.37h9.12l2.07-2.15,3.58,3.58c-.29.3-.68.41-1.39.45-1.22,1.32-3.33,3.16-4.97,4.14l-.36-.26ZM424.98,37.81c-1.25,2.82-2.61,5.91-3.79,8.39,3.07.23,5.76.6,8.08,1.05,1.86-2.56,3.11-5.65,3.9-9.45h-8.19Z"/>
    <path class="cls-1" d="M450.29,41.91c2.79-4.55,5.79-12.61,7.44-20.21l5.4,1.73c-.14.49-.46.75-1.43.72-.93,2.63-2,5.12-3.18,7.42l1.43.57c-.11.34-.43.6-1.11.71v23c-.04.3-1.61,1.21-3.11,1.21h-.71v-19.69c-1.32,1.84-2.75,3.5-4.25,4.89l-.46-.34ZM480.57,27.15l3.83,3.05c-.29.49-.75.64-1.75.64h-21.31l-.18-.71h17.3l2.11-2.97ZM478.28,32.54l3.61,2.86c-.29.49-.75.68-1.68.68h-16.66l-.18-.75h12.98l1.93-2.79ZM463.56,41.23l-.18-.75h12.98l1.93-2.79,3.61,2.86c-.29.49-.75.68-1.68.68h-16.66ZM477,45.56l1.5-2.07,4.11,3.01c-.21.3-.71.64-1.43.79v8.17s-1.04,1.09-3.83,1.09v-2.37h-10.19v1.43c0,.08-.5,1.47-3.75,1.47v-13.21l4,1.69h9.58ZM481.18,24.82c-.29.49-.75.68-1.72.68h-15.19l-.18-.75h11.4l2-2.9,3.68,2.97ZM467.17,53.47h10.19v-7.19h-10.19v7.19Z"/>
    <path class="cls-1" d="M490.19,35.59h14.66v-3.69h-10.9l-.21-.71h11.12v-3.58h-12.62l-.18-.75h8.62c-.25-.11-.5-.3-.75-.56-.25-1.54-1.14-3.35-2.25-4.33l.21-.26c4.25.34,5.68,1.88,5.68,3.24,0,.83-.57,1.58-1.29,1.92h7.58c.68-1.51,1.47-3.76,1.9-5.31l5,1.88c-.14.3-.39.49-.86.49-.14,0-.32-.04-.54-.08-1.11.98-2.86,2.15-4.5,3.01h5.29l2-2.63,3.79,2.71c-.29.53-.71.68-1.68.68h-11.58v3.58h6.08l1.97-2.41,3.65,2.48c-.29.49-.72.64-1.68.64h-10.01v3.69h8.87l2.07-2.67,3.93,2.79c-.29.49-.71.64-1.72.64h-31.43l-.21-.75ZM522.76,49.48l-.36,4.03c.79.72,1.29,1.43,1.29,2.03,0,1.05-1.07,1.58-2.18,1.58-.96,0-5.25-.72-8.37-3.99-2.83,1.54-6.19,2.71-9.83,3.27l-.21-.6c3.22-1.05,6.11-2.67,8.54-4.56-1.36-2.03-2.22-4.37-2.79-6.85h-7.22v2.97c1.93-.11,4-.19,6.08-.3l.04.6c-1.64.45-3.68.9-6.11,1.43v3.43c0,2.52-.57,4.22-4.79,4.59,0-2.52-.82-3.09-3.47-3.43v-.49h3.97c.46,0,.61-.19.61-.6v-2.75c-1.5.3-3.15.6-4.93.94-.25.49-.61.71-1,.79l-1.61-3.88c1.61,0,4.29-.08,7.54-.19v-3.12h-7.58l-.18-.75h7.76v-2.9c-2.29.19-4.68.34-6.9.38l-.14-.64c4.47-.83,10.08-2.56,13.01-3.84l3.18,3.31c-.18.15-.43.23-.75.23-.36,0-.82-.11-1.32-.34l-2.18.34c-.18.19-.54.34-1.22.41v3.05h7.08c-.46-2.22-.68-4.52-.82-6.74l5.04.41c-.04.45-.36.68-1.25.79.07,1.73.29,3.65.71,5.53h5.11l1.57-2c-.29.23-.61.34-.97.34-.43,0-.86-.19-1.29-.56-.32-1.36-1.36-2.9-2.43-3.73l.18-.34c3.97.11,5.26,1.54,5.26,2.82,0,.3-.07.6-.21.87l3.86,2.67c-.25.53-.68.68-1.68.68h-9.22c.39,1.54,1,3.01,1.82,4.29,1.07-1.17,1.97-2.41,2.65-3.65l4.08,2.26c-.14.26-.36.45-.79.45-.18,0-.36-.04-.57-.08-.89,1.17-2.04,2.3-3.36,3.31,1.93,1.58,3.86,1.92,4.15,1.92.25,0,.39-.08.54-.3.39-.64,1.04-2.15,1.39-3.2l.29.08Z"/>
    <path class="cls-1" d="M538.89,22.19l3.47,3.73c-.25.38-.75.45-1.57.49-1.04,2.18-3.07,6.25-4.5,8.58,3.4,2.75,5.04,5.53,5.04,8.7,0,3.61-1.21,5.83-4.9,6.17,0-2.41-.5-2.94-1.89-3.24v-.53h1.89c1,0,1.32-.83,1.32-2.71,0-2.82-.5-5.68-2.14-8.28.5-2.41,1.22-7.08,1.64-9.98h-2.9v30.75c0,.3-1.11,1.24-2.9,1.24h-.61V22.75l3.97,1.62h2.14l1.93-2.18ZM543.89,48.5c.29,1.09.39,2.07.39,2.9,0,2.26-.93,4.59-3.07,4.59-1.22,0-1.68-.79-1.68-1.54s.54-1.43,1.22-1.84c1.07-.68,2.5-2.45,2.57-4.14l.57.04ZM560.34,24.86c-.18.15-.43.23-.72.23-.36,0-.79-.11-1.29-.3-3.07.53-7.61,1.02-11.8,1.13-1.61,2.82-3.68,5.27-5.83,6.81l-.5-.34c1.18-2.03,2.43-5.57,3.18-9l3.93,1.47c3.65-.87,7.58-2.22,9.8-3.31l3.22,3.31ZM560.7,39.65l2.5,2.03c-.29.49-.71.64-1.61.64h-2.4v3.88c0,.08-.89.9-3.47.9v-1.39h-12.37l-.21-.71h12.58v-2.67h-14.26l-.18-.75h14.44v-2.71h-12.37l-.21-.75h12.3l1.22-1.66,3.54,2.52c-.18.19-.54.41-1,.49v2.11h.21l1.29-1.92ZM541.61,35.25h8.08v-2.97h-5.86l-.21-.75h11.33l1.57-2.07,3.04,2.18c-.25.49-.71.64-1.61.64h-4.75v2.97h4.36l1.72-2.3,3.25,2.41c-.29.49-.75.64-1.68.64h-19.06l-.18-.75ZM556.01,51.74l.04,2c1.14.41,1.25.56,1.25,1.05,0,1.24-1.07,1.84-3.86,1.84h-3.9c-3.08,0-3.58-.72-3.58-3.46v-4.71l4.29.34c-.07.41-.25.6-1.07.71v3.65q0,.75.79.75h3.43c.89,0,1.22,0,2.32-2.18h.29ZM548.04,46.43c5-.26,6.69,1.69,6.69,3.24,0,.9-.61,1.66-1.43,1.66-.29,0-.61-.11-.93-.3-.86-1.62-2.75-3.35-4.43-4.22l.11-.38ZM549.54,25.8c2.86,1.17,3.83,2.56,3.83,3.65s-.97,1.88-1.93,1.88c-.61,0-1.22-.3-1.61-1.02.07-.34.11-.71.11-1.13,0-1.17-.29-2.37-.71-3.16l.32-.23ZM556.44,25.61c4.86.94,6.4,3.09,6.4,4.71,0,1.13-.75,2-1.64,2-.43,0-.86-.15-1.29-.56-.46-1.96-2.11-4.44-3.72-5.83l.25-.3ZM556.62,48.09c4.61,1.47,6.11,3.84,6.11,5.61,0,1.28-.82,2.26-1.79,2.26-.46,0-.93-.23-1.39-.72-.14-2.3-1.61-5.19-3.22-6.85l.29-.3Z"/>
    <path class="cls-1" d="M598.67,24.48l3.5,3.54c-.29.3-.68.38-1.36.45-1.11,1.2-2.97,2.86-4.43,3.73l-.36-.23.29-1.17c-.29.34-.71.45-1.5.45h-19.84l-.21-.75h16.34l1.86-2.37,3.43,2.41c.21-1.02.46-2.22.57-3.2h-22.52c.18,3.01-1.25,5.31-3.47,5.31-1.14,0-2.07-.6-2.07-1.81,0-.9.68-1.66,1.5-2.07,1.39-.6,2.97-2.33,2.97-4.33h.54c.25.75.39,1.47.46,2.15h9.08v-5.01l5.36.49c-.07.53-.36.79-1.43.98v3.54h9.29l2-2.11ZM593.81,43.87l1.47-2.07,4.11,3.05c-.21.3-.75.64-1.47.79v10.01c0,.11-1.07,1.02-3.75,1.02v-1.84h-17.38v.79c0,.08-.54,1.43-3.75,1.43v-14.83l4.04,1.66h16.73ZM594.77,40.89c-.04.23-1.97.94-3.15.94h-.61v-1.47h-11.15v.38c0,.11-.61,1.36-3.72,1.36v-9.45l3.93,1.69h10.58l1.43-1.96,4,2.86c-.21.26-.68.6-1.32.71v4.93ZM583.55,44.62h-6.76v4.29h6.76v-4.29ZM576.79,49.67v4.44h6.76v-4.44h-6.76ZM579.86,39.61h11.15v-4.55h-11.15v4.55ZM594.17,44.62h-6.94v4.29h6.94v-4.29ZM587.23,54.11h6.94v-4.44h-6.94v4.44Z"/>
    <path class="cls-1" d="M636.46,23.92l4.04,3.2c-.25.3-.75.6-1.47.79v27.22s-.96,1.28-3.83,1.28v-3.01h-21.02v1.84c0,.08-.43,1.62-3.75,1.62V24.33l4.08,1.81h20.34l1.61-2.22ZM614.19,52.64h21.02v-25.75h-21.02v25.75ZM628.92,31.97l3.86,2.82c-.25.26-.72.57-1.39.72v10.5c0,.08-.97,1.09-3.5,1.09v-2.33h-6.61v1.43s-.46,1.28-3.43,1.28v-15.17l3.61,1.58h6.08l1.39-1.92ZM621.27,44.02h6.61v-9.37h-6.61v9.37Z"/>
    <path class="cls-1" d="M677.54,44.21l3.68,2.94c-.29.49-.75.64-1.72.64h-7.04v8.02c0,.08-.61,1.2-3.75,1.2v-9.22h-8.51l-.14-.6v4.59c0,.08-.96,1.21-3.61,1.21v-3.24h-4.47v3.46c0,.11-.39,1.54-3.5,1.54v-31.02l3.65,1.69h3.97l1.54-2.11,3.93,3.05c-.25.3-.79.6-1.5.75v19.91h8.65v-6.66h-3.58c-1.07,2.33-2.4,4.29-3.9,5.72l-.5-.3c1-2.6,1.82-7.08,2.14-11.25l5.08,1.24c-.11.49-.43.75-1.32.79-.36,1.05-.75,2.11-1.18,3.09h3.25v-5.99l5.08.45c-.04.49-.32.75-1.32.9v4.63h2.11l1.86-2.71,3.5,2.79c-.29.49-.75.64-1.68.64h-5.79v6.66h3.07l2-2.82ZM656.45,26.18h-4.47v6.74h4.47v-6.74ZM656.45,40.89v-7.23h-4.47v7.23h4.47ZM651.98,48.99h4.47v-7.34h-4.47v7.34ZM673.15,26.51c5.97,1.36,7.9,4.1,7.9,6.1,0,1.32-.86,2.3-1.93,2.3-.46,0-.96-.19-1.47-.64-.29-1.09-.82-2.3-1.54-3.46-3.15.87-7.37,1.84-13.19,3.12-.21.49-.64.75-1.04.79l-1.68-4.67c1.04.04,2.5.04,4.29.04.71-2.3,1.47-5.57,2.04-8.51l5.58,1.77c-.14.49-.5.79-1.43.75-1.36,2.18-2.97,4.29-4.58,5.95,2.75,0,6.04-.08,9.47-.15-.82-1.17-1.75-2.3-2.68-3.09l.25-.3Z"/>
    <line class="cls-2" y1=".5" x2="732.76" y2=".5"/>
    <line class="cls-2" y1="78.2" x2="732.76" y2="78.2"/>
  </g>
</svg>