<?xml version="1.0" encoding="UTF-8"?>
<svg id="_圖層_2" data-name="圖層 2" xmlns="http://www.w3.org/2000/svg" viewBox="0 0 732.64 62.42">
  <defs>
    <style>
      .cls-1 {
        fill: #321d12;
      }
    </style>
  </defs>
  <g id="_圖層_1-2" data-name="圖層 1">
    <path class="cls-1" d="M33.98,49.71c-1,3.11-2.34,7.53-3.18,11.01H0v-1.59c4.68-4.89,9.55-10.37,13.54-15.38,5.17-6.57,10.32-13.96,10.32-21.68s-3.76-12.26-10.19-12.26c-5.91,0-9.21,4.69-11.3,7.71l-1.42-1.32,4.52-6.59c2.47-3.01,6.28-5.22,11.13-5.22,7.4,0,13.77,5.72,13.77,15.1,0,7.59-2.66,12.42-10.57,21.47-3.91,4.44-8.7,9.7-12.61,13.83h16.71c4.46,0,5.77-.39,8.59-5.64l1.5.56Z"/>
    <path class="cls-1" d="M75.95,6.41c-7.81,17.81-15.51,35.83-23.5,54.39l-5.32.77-.45-.83c8.49-15.14,17.62-33.9,24.37-49.36h-18.46c-5.24,0-5.77,1.09-7.95,6.95l-1.86-.05c.7-4.38,1.04-9.01,1.37-12.82h31.39l.41.96Z"/>
    <path class="cls-1" d="M95.5,36.19h-12.93l.25-3.12h13l-.32,3.12Z"/>
    <path class="cls-1" d="M105.92,14.2l3.91-5.15c2.35-2.79,5.81-4.56,10.08-4.56,7.34,0,12.07,5.11,12.07,11.5,0,2.56-.96,4.74-2.43,6.52-1.3,1.41-3.87,3.55-6.03,5.09,7.32,1.63,12.33,6.94,12.33,13.42,0,14.26-15.81,20.78-21.7,20.78-3.63,0-6.93-1.77-7.92-2.81-1.01-1.1-1.4-1.9-1.4-2.88.04-1.37,1.04-2.5,1.8-3.08.58-.43,1.2-.47,1.82.04,2.14,2.18,5.55,4.65,10.17,4.65,5.93,0,10.65-4.25,10.65-13.79-.04-8.85-6.15-11.85-11.22-11.85-1.94,0-4.06.48-5.27.93l-.45-1.92c8.25-2.82,13.24-6.27,13.24-12.98,0-5.68-3.53-8.74-8.23-8.74s-7.69,2.9-10.16,6.22l-1.25-1.38Z"/>
    <path class="cls-1" d="M158.91,28.02c1.86-.98,3.9-1.51,5.25-1.51,8.75,0,14.67,7.31,14.67,15.92,0,10.99-7.06,19.36-16.66,19.36s-16.92-8.31-16.92-22.03c0-18.23,12.95-29.41,22.08-33.2,2.46-1.1,6.3-2.08,9.71-2.7l.37,2.04c-2.74.57-6.28,1.77-9,3.21-5.14,2.73-13.06,8.78-15.38,21.92l5.88-3.02ZM160.89,30.93c-3.42,0-6.14,1.18-8.18,2.43-.38,1.79-.51,4.11-.51,6.62,0,10.69,3.87,19.35,11.17,19.35s8.74-7.57,8.74-13.66c0-7.31-3.37-14.75-11.23-14.75Z"/>
    <path class="cls-1" d="M203.64,20.81v21.27c3.13-.59,6.44-1.25,9.76-1.97l.19.72c-4,2.57-10.19,6.19-18.95,10.73-.31.79-1,1.45-1.69,1.65l-3.38-8.56c1.69-.26,4.32-.72,7.57-1.32v-22.52h-6.75l-.31-1.25h7.07V2.17l9.13.86c-.06.99-.75,1.45-2.63,1.71v14.81h1.31l2.94-5.27,5.38,5.4c-.5.86-1.31,1.12-2.94,1.12h-6.69ZM242.54,30.62l7.01,5.79c-.44.86-1.31,1.19-3.06,1.19h-13.89v22.78c-.06.46-2.13,1.97-5.5,1.97h-1.19v-24.76h-15.57l-.31-1.32h15.89V7.44h-14.14l-.31-1.32h26.52l3.63-5.4,6.69,5.53c-.5.86-1.31,1.19-3.06,1.19h-12.63v28.84h6.13l3.81-5.66ZM214.14,12.38c6.75,4.81,9.01,9.94,9.01,13.7,0,3.42-1.88,5.79-3.94,5.79-1,0-2.06-.53-2.94-1.78.06-.79.12-1.58.12-2.37,0-5.07-1.25-11.06-3-15.01l.75-.33ZM248.23,14.49c-.25.79-.81,1.25-2.44,1.32-2.81,6.12-6.5,12.31-10.19,16.46l-.88-.46c1.44-4.87,3.13-13.1,4.25-20.08l9.26,2.77Z"/>
    <path class="cls-1" d="M274.7,31.29c0,2.14-1.65,4.04-3.92,4.04s-3.92-1.9-3.92-4.04,1.65-4.04,3.92-4.04c2.39,0,3.92,1.96,3.92,4.04Z"/>
    <path class="cls-1" d="M350.23,18.17c-.5.79-1.25,1.12-3.06,1.12h-21.89c5.19,12.84,15.51,23.04,25.71,27.79l-.19.72c-2.63.46-4.88,2.7-5.94,6.12-9.69-6.85-16.7-18.5-20.58-34.24v39.97c0,.79-2.94,2.57-5.57,2.57h-1.31V27.92c-5.57,10.93-14.26,20.21-25.64,26.73l-.69-.92c10.13-8.56,17.95-21.99,21.77-34.44h-20.39l-.38-1.32h25.33V.46l9.38.92c-.12.92-.63,1.38-2.5,1.65v14.95h14.14l4.13-5.53,7.69,5.73Z"/>
    <path class="cls-1" d="M369.31,18.37v9.81c6,2.63,8.01,5.86,8.01,8.3,0,1.97-1.38,3.42-2.81,3.42-.81,0-1.63-.4-2.31-1.32-.19-2.7-1.38-6.39-2.88-9.02v30.68c0,.13-.75,1.98-6.07,1.98v-26.34c-2,3.88-4.44,7.51-7.32,10.8l-.81-.86c3.88-7.64,6.13-17.71,7.26-27.46h-6.57l-.31-1.32h7.76V.53l8.63.79c-.06.99-.62,1.45-2.56,1.71v14.02h.44l2.94-4.87,5.25,5c-.5.86-1.31,1.19-2.94,1.19h-5.69ZM411.03,25.02l4.19,4.41c-.44.79-1.19,1.12-2.81,1.12h-2.88v24.29c0,3.88-.56,6.72-6.38,7.44,0-3.82-.44-5.14-2.94-5.66v2.3c-.06.33-1.56,1.51-3.94,1.51h-.81v-29.89h-3.44v28.51c-.06.4-1.56,1.58-4,1.58h-.75v-30.09h-3.57v29.17c0,.13-.5,2.5-5.5,2.5v-31.67h-3.94l-.31-1.32h4.25V2.83l5.94,2.77h18.89l2.56-3.56,6.57,5.2c-.38.53-1.31,1.12-2.63,1.32v19.23l1.5-2.77ZM383.69,29.23h3.57V6.85h-3.57v22.39ZM392.01,29.23h3.44V6.85h-3.44v22.39ZM403.64,6.85h-3.44v22.39h3.44V6.85ZM403.14,55.7c.38,0,.5-.2.5-.92v-24.23h-3.44v25.15h2.94Z"/>
    <path class="cls-1" d="M470.57,1.78l6.88,5.4c-.44.53-1.38,1.05-2.63,1.38v50.83c0,.2-1.75,2.17-6.32,2.17v-4.35h-39.84v2.3c0,.13-.62,2.77-6.25,2.77V2.5l6.88,3.03h38.59l2.69-3.75ZM428.66,55.9h39.84V6.85h-39.84v49.05ZM430.04,42.93c3.44-.4,11.2-1.71,19.01-3.09l.19.92c-3.25,1.65-8.01,4.02-14.64,6.98-.31.86-.81,1.38-1.44,1.58l-3.13-6.39ZM467.25,17.97c-.44.92-1.25,1.19-2.88,1.19h-10.45c.25,4.94.75,9.74,1.75,13.96,1.38-3.16,2.56-6.65,3.5-10.4l7.19,2.63c-.31.79-.88,1.19-2.5,1.05-1.69,4.94-3.82,9.15-6.32,12.77,2,4.48,4.13,6.52,4.38,6.52.63,0,2.38-4.81,3.13-7.24l.56.13-.94,8.69c1.06,1.84,1.63,3.09,1.63,4.02,0,1.32-1.31,2.11-2.56,2.11-5.13,0-9.26-8.49-9.82-9.61-3.88,4.21-8.38,7.31-13.38,9.42l-.62-.86c4.57-2.76,8.82-7.04,12.26-12.64-2.13-5.99-3.06-12.97-3.5-20.54h-18.14l-.31-1.32h18.39c-.12-2.96-.19-5.99-.19-9.09l7.76.72c-.12.86-.62,1.18-2.31,1.45-.06,2.3,0,4.61.06,6.91h4.94l2.25-3.03c-.38-.2-.75-.46-1.06-.79-.31-1.65-1.5-3.49-2.81-4.48l.38-.59c5.25.13,7,1.91,7,3.49,0,1.05-.75,1.97-1.69,2.37l4.32,3.16ZM446.55,36.08c0,.53-2.25,1.65-3.82,1.65h-.69v-2.5h-4.88v2.37s-.63,1.51-4.44,1.51v-16.39l4.75,2.17h4.07l1.75-2.37,5.13,3.69c-.25.39-1,.79-1.88.99v8.89ZM437.17,33.91h4.88v-7.7h-4.88v7.7Z"/>
    <path class="cls-1" d="M482.77,48.06c6-8.23,9.82-20.81,11.32-29.69l9.57,3.75c-.25.72-.75,1.18-2.38,1.12-3.25,8.36-9.01,18.9-17.95,25.61l-.56-.79ZM509.1,1.05l9.57.86c-.06.92-.38,1.38-2.56,1.71v48.99c0,4.94-1.25,8.76-10.32,9.74,0-5.46-2.69-6.65-9.38-7.51v-.86h11.2c1.13,0,1.5-.46,1.5-1.51V1.05ZM524.11,19.36c13.51,7.31,17.83,16.07,17.83,21.86,0,3.62-1.81,6.06-4.07,6.06-1,0-2.13-.46-3.25-1.58-.5-8.56-5.5-19.42-11.2-25.88l.69-.46Z"/>
    <path class="cls-1" d="M597.92,51.49l7.82,5.86c-.5.79-1.31,1.12-3.13,1.12h-55.35l-.31-1.32h25.46v-19.75h-17.45l-.38-1.32h17.83v-18.04h-12.07c-3.19,5.86-6.94,10.67-11.32,14.22l-.75-.59c4-6.39,7.76-17.91,9.63-29.23l9.82,2.83c-.31.86-.81,1.32-2.5,1.32-1.25,3.62-2.63,7.04-4.19,10.14h11.38V.39l9.63.92c-.06.99-.75,1.51-2.63,1.78v13.63h10.82l4.13-5.46,7.63,5.6c-.5.92-1.31,1.18-3.07,1.18h-19.51v18.04h8.63l3.94-5.2,7.38,5.4c-.5.86-1.31,1.12-3.07,1.12h-16.89v19.75h14.32l4.19-5.66Z"/>
    <path class="cls-1" d="M610.93,18.5c8.63.53,11.45,3.88,11.45,6.65,0,2.04-1.56,3.75-3.44,3.75-.81,0-1.69-.33-2.5-1.05-.81-3.16-3.19-6.78-5.82-8.82l.31-.53ZM669.97,22.78c-.5.86-1.31,1.12-3.06,1.12h-15.26v13.56h5.38l2.69-3.69,7.26,5.4c-.44.53-1.31,1.12-2.63,1.38v19.23c0,.13-1.69,1.98-6.63,1.98v-4.61h-18.83v2.57c0,.13-1,2.5-6.57,2.5v-27.72l6.94,2.96h5.63v-13.56h-16.83l-.25-.99c-2.19,7.04-4.38,14.09-4.94,16.39-.56,2.11-1.06,4.28-1.06,6.06v.26c.12,3.23,2.31,5.6,2.31,10.8s-2.94,5.99-4.94,5.99c-1.44,0-2.75-.99-3.19-3.36.44-2.76.69-5.33.69-7.57,0-6.06-1.19-6.85-4.63-7.18v-1.32c2.19,0,2.88-.07,2.88-.07v.07c.94,0,1.19,0,1.88-1.38,1-1.58,1.38-2.5,13.51-30.29l1.06.26-3.5,11.06h17.01v-13.17c-5.19.59-10.57,1.05-15.64,1.25l-.25-.99c10.51-2.17,23.64-6.45,30.33-9.74l6.82,6.85c-.31.26-.81.46-1.44.46-.69,0-1.5-.2-2.5-.59-3,.66-6.63,1.32-10.57,1.91v14.02h7.76l3.69-5.4,6.88,5.53ZM613.99,1.51c9.01.53,11.95,4.08,11.95,7.04,0,2.11-1.56,3.88-3.44,3.88-.81,0-1.69-.33-2.5-1.05-1-3.29-3.63-7.18-6.32-9.35l.31-.53ZM657.71,38.78h-18.83v17.05h18.83v-17.05Z"/>
    <path class="cls-1" d="M725.7,1.58l6.94,5.4c-.44.59-1.38,1.12-2.63,1.45v50.76c0,.07-1.63,2.24-6.38,2.24v-3.95h-39.65v1.98c0,.2-.63,2.83-6.32,2.83V2.3l6.88,3.03h38.47l2.69-3.75ZM683.98,56.16h39.65V6.65h-39.65v49.51ZM722.26,26.93c-.44.86-1.19,1.12-2.81,1.12h-7.57c3.07,3.29,6.94,5.86,10.88,7.51l-.13.72c-1.94.33-3.38,2.04-4.07,4.61-1.88-1.38-3.63-2.96-5.19-4.81-.44.26-.94.4-1.63.53-.19,6.06-.75,8.76-7.07,8.76,0-3.09-1-3.42-3.69-4.15v-.99h4.19c.69,0,1.06,0,1.31-.2.31-.33.5-1.78.69-4.61h-8.94v10.93q0,1.45,2,1.45h10.38c2.25,0,2.81,0,4.82-5.53h.56l.06,5.07c2.13.79,2.38,1.05,2.38,1.84,0,2.17-1.81,3.42-7.63,3.42h-11.01c-5.82,0-6.88-1.25-6.88-6.32v-10.53c-2.31,2.11-4.94,3.95-7.94,5.53l-.62-.92c4.44-3.23,7.69-7.57,10.13-12.31h-8.94l-.38-1.32h10.01c.88-1.84,1.63-3.75,2.25-5.73h-5.32l-.31-1.32h6.07c1.13-3.62,1.88-7.37,2.38-11l8.19,1.78c-.25.92-.88,1.25-2.63,1.19-.56,2.7-1.38,5.4-2.38,8.03h4.57l2.63-3.29,4.5,3.09c-.44-2.83-2.31-6.32-4.25-8.36l.5-.46c6.5,1.78,8.57,4.81,8.57,7.18,0,1.78-1.25,3.16-2.69,3.16-.56,0-1.25-.26-1.81-.79-.5.59-1.25.79-2.56.79h-5.69c.88,2.11,2.13,4.02,3.5,5.73h3.5l2.81-3.49,5.25,3.69ZM687.05,21.4c1.94-2.57,4-6.91,5.44-11.46l6.32,2.7c-.31.72-.81,1.05-2.25.92-2.38,3.62-5.63,6.78-8.63,8.49l-.88-.66ZM708.75,31.54l2.75,2.17c-1.25-1.78-2.31-3.62-3.25-5.66h-8.94c-1,1.65-2.19,3.23-3.5,4.74l3.19,1.32h7.63l2.13-2.57ZM707.69,26.73c-.69-1.78-1.31-3.69-1.81-5.73h-2.94c-.81,1.98-1.75,3.88-2.81,5.73h7.57Z"/>
  </g>
</svg>