<?xml version="1.0" encoding="UTF-8"?>
<svg id="_圖層_2" data-name="圖層 2" xmlns="http://www.w3.org/2000/svg" viewBox="0 0 733.02 86.7">
  <defs>
    <style>
      .cls-1 {
        fill: #321d12;
      }
    </style>
  </defs>
  <g id="_圖層_1-2" data-name="圖層 1">
    <path class="cls-1" d="M20.09,42.39c4.07-.91,8.4-1.82,12.65-2.83l.26,1.09c-3.2,2.01-7.54,4.65-12.9,7.66v26.17c0,6.38-1.39,11.03-11.09,12.03,0-6.38-1.56-8.39-7.88-9.21v-1.28h8.92c1.04,0,1.39-.46,1.39-1.55v-21.52c-1.65.91-3.38,1.82-5.2,2.74-.43,1.18-1.3,2-2.34,2.37l-3.9-11.85c2.42-.36,6.5-1.09,11.43-2.1v-20.88H.78l-.43-1.82h11.09V.91l12.3,1.09c-.09,1.37-.52,2.01-3.64,2.46v16.96h1.21l4.07-6.56,7.45,6.75c-.69,1.19-1.73,1.64-4.07,1.64h-8.66v19.15ZM73.62,48.78c-.09.73-4.42,2.64-7.36,2.64h-1.56v-3.74h-7.88v11.76h6.67l4.76-6.75,8.83,7.02c-.69,1.09-1.91,1.55-4.16,1.55h-16.11v13.95c1.73.09,3.64.18,5.63.18,4.59,0,15.5,0,20.61-.18v1.09c-2.94.64-4.24,4.38-4.24,8.66h-16.72c-12.73,0-19.83-3.74-23.73-18.6-3.29,9.75-8.4,16.32-15.59,20.33l-1.04-1c6.06-6.38,9.61-18.69,10.05-33.46l12.21,2.19c-.26,1.19-.95,1.82-3.03,2.1-.52,2.64-1.13,5.11-1.82,7.38,2.25,4.83,5.02,7.66,8.66,9.3v-25.53h-13.42l-.52-1.82h13.94v-10.21h-18.97l-.43-1.73h19.4v-9.57h-13.42l-.52-1.82h13.94v-9.21h-18.97l-.43-1.73h19.4V1l12.56,1.19c-.17,1.37-1.13,2-3.55,2.37v7.02h9.61l4.94-7.11,9.09,7.29c-.69,1.19-1.73,1.55-4.07,1.55h-19.57v9.21h7.1l3.46-4.65,9.35,6.93c-.52.64-1.56,1.37-3.12,1.64v7.48h.35l3.38-5.74,6.32,5.93c-.69,1.19-1.73,1.55-3.98,1.55h-6.06v13.13ZM56.82,24.34v9.57h7.88v-9.57h-7.88ZM56.82,45.86h7.88v-10.21h-7.88v10.21Z"/>
    <path class="cls-1" d="M116.41,42.85c-.69.73-1.99,1.46-4.42,1.91v23.25c6.06,6.75,12.3,7.75,28.06,7.75,9.96,0,23.47-.09,34.21-.37v1.09c-3.55.82-5.63,3.65-6.06,8.02h-28.06c-16.46,0-23.3-2.55-29.27-14.95-3.38,4.83-8.57,11.12-11.87,14.77.09,1.19-.43,1.73-1.21,2.19l-5.2-10.67c2.69-1.09,6.67-3.01,10.74-5.01v-28.08h-10.39l-.35-1.91h9.44l4.5-6.38,9.87,8.39ZM95.01,3.74c12.73,2.73,16.89,8.57,16.89,13.04,0,3.37-2.43,6.02-5.2,6.02-1.3,0-2.68-.55-3.98-1.92-.69-5.65-4.24-12.49-8.31-16.5l.61-.64ZM160.32,16.14c.52-2.19.95-5.01,1.3-7.29h-36.03c.09.55.09,1.18.09,1.73,0,5.38-2.77,9.21-7.02,9.21-2.6,0-5.02-1.55-5.02-4.29,0-2.46,1.82-4.19,3.98-5.2,2.6-1.19,5.37-4.38,5.2-7.75l1.21-.09c.61,1.64,1.04,3.1,1.3,4.56h35.6l4.68-5.11,8.4,8.48c-.69.64-1.56.91-3.29,1-1.73,1.64-4.5,3.74-7.02,5.38l6.06,4.29c-.61,1.28-1.73,1.64-3.98,1.64h-18.71v7.66h8.83l3.55-4.92,9.79,7.2c-.61.73-1.82,1.55-3.64,1.91v18.23c0,.18-2.34,2.55-8.83,2.55v-3.01h-9.7v8.3h12.73l4.76-6.29,8.92,6.56c-.69,1.19-1.73,1.55-4.16,1.55h-22.26v8.75c0,.18-1.3,2.92-8.83,2.92v-11.67h-23.56l-.52-1.82h24.08v-8.3h-9.35v.82c0,.18-1.3,3.28-8.66,3.28v-30l9.27,3.92h8.75v-7.66h-20.44l-.52-1.82h20.96v-9.57l12.39,1.09c-.17,1.28-.87,2.01-3.55,2.37v6.11h9.61l3.64-4.74ZM138.23,32.09h-9.35v8.11h9.35v-8.11ZM128.88,50.51h9.35v-8.48h-9.35v8.48ZM156.77,32.09h-9.7v8.11h9.7v-8.11ZM147.06,50.51h9.7v-8.48h-9.7v8.48Z"/>
    <path class="cls-1" d="M258.21,6.95c-8.1,1.12-9.12,2.95-12.88,9.45-5.64,10.06-10.15,18.88-16.26,31.11-.95,1.94-1.3,3.41-1.3,5.61l-.06,16.88c-.06,9.86.92,10.73,11.26,12.11v2.35h-31.23v-2.35c10.1-1.54,10.79-2.27,10.79-12.11v-16.87c0-2.12-.4-3.29-1.82-6.1-2.59-5.39-9.8-19.96-14.81-29.25-4.62-8.69-5.65-9.9-13.07-10.82v-2.35h26.96v2.35c-8.14,1.16-7.74,2.83-5.97,6.52,5.23,10.48,12.4,24.82,16.13,32.12,3.88-7.75,11.5-23.26,14.71-30.29,2.55-5.73,2.2-7.1-6.82-8.35v-2.35h24.37v2.35Z"/>
    <path class="cls-1" d="M310.63,69.2c-1.39,4.3-3.24,10.43-4.41,15.25h-42.64v-2.2c6.48-6.77,13.23-14.36,18.75-21.29,7.16-9.09,14.29-19.33,14.29-30.02s-5.2-16.98-14.11-16.98c-8.18,0-12.75,6.5-15.65,10.67l-1.97-1.83,6.26-9.13c3.42-4.16,8.7-7.23,15.41-7.23,10.24,0,19.06,7.92,19.06,20.91,0,10.51-3.68,17.2-14.64,29.73-5.41,6.14-12.05,13.43-17.46,19.15h23.14c6.17,0,7.99-.55,11.89-7.81l2.07.78Z"/>
    <path class="cls-1" d="M365.87,84.45v-2.35c6.94-1.12,8.33-2.21,6.82-6.74-1.52-5.06-4.18-12.78-7.21-21.88h-24.24c-2.26,6.83-4.27,12.44-5.97,17.95-2.57,8.19-.87,9.1,8.31,10.67v2.35h-25.53v-2.35c6.9-1.12,8.83-1.98,13.05-13.31L355.32,3.34l2.57-.46c7.29,21.76,15.08,44.57,22.69,66.71,3.67,10.69,4.92,11.12,12.68,12.52v2.35h-27.4ZM353.68,17.88c-3.73,10.5-7.44,21.4-11.01,31.38h21.5l-10.49-31.38Z"/>
    <path class="cls-1" d="M486.21,23.8c-.69,1.18-1.91,1.64-4.16,1.64h-16.54v22.16h5.37l3.98-5.47,9.79,7.57c-.52.73-1.47,1.28-3.29,1.64v32.09c0,.46-3.21,2.46-8.05,2.46h-1.65v-7.38h-20.27v5.2c0,.73-2.86,2.92-7.62,2.92h-1.65v-26.99c-6.93,3.65-16.89,8.48-30.83,14.59-.43,1.09-1.3,1.92-2.25,2.19l-4.5-11.03c3.9-.55,11-1.92,19.49-3.56,1.47-10.39,2.94-23.8,3.81-33.28l12.56,2.46c-.26,1.19-1.13,1.73-3.38,1.82-2.43,7.84-6.41,19.05-10.39,28.45l15.5-3.19v-14.59l10.22,4.1h3.55V1.09l13.25,1.28c-.17,1.37-1.04,2.01-3.64,2.37v18.87h6.41l5.02-7.38,9.27,7.57ZM405.32,24.43l-.52-1.82h12.73V2.64l12.56,1.19c-.17,1.28-.95,1.92-3.55,2.28v16.5h2.68l4.68-7.57,8.57,7.84c-.69,1.19-1.82,1.55-4.24,1.55h-32.91ZM409.48,28.99c7.19,7.75,9.7,14.86,9.7,20.33,0,5.93-2.94,9.66-5.72,9.66-1.3,0-2.6-.82-3.46-2.73.26-2.37.43-5.47.43-8.84,0-5.83-.52-12.49-2.17-17.87l1.21-.55ZM471.67,49.42h-20.27v27.26h20.27v-27.26Z"/>
    <path class="cls-1" d="M504.11,20.02l5.42-7.13c3.25-3.86,8.04-6.32,13.95-6.32,10.17,0,16.72,7.07,16.72,15.93,0,3.55-1.32,6.57-3.36,9.02-1.8,1.95-5.36,4.91-8.35,7.04,10.14,2.25,17.08,9.61,17.08,18.58,0,19.75-21.89,28.77-30.05,28.77-5.03,0-9.6-2.46-10.97-3.89-1.4-1.53-1.95-2.63-1.95-3.99.05-1.9,1.44-3.47,2.49-4.26.8-.6,1.66-.66,2.52.05,2.96,3.02,7.69,6.44,14.08,6.44,8.21,0,14.75-5.88,14.75-19.1-.05-12.26-8.52-16.41-15.54-16.41-2.68,0-5.63.67-7.3,1.28l-.62-2.66c11.42-3.9,18.34-8.68,18.34-17.98,0-7.86-4.89-12.11-11.4-12.11s-10.65,4.01-14.07,8.61l-1.74-1.91Z"/>
    <path class="cls-1" d="M558.75,42.21c11.95-10.67,20.35-27.44,23.99-40.57l12.47,5.38c-.43,1.09-1.21,1.64-3.38,1.46-5.98,12.31-16.8,26.71-32.48,34.83l-.61-1.09ZM614.1,39.48l3.98-5.2,9.61,7.75c-.61.73-1.73,1.37-3.55,1.55-1.13,22.15-3.2,35.92-7.79,39.66-2.94,2.37-6.06,3.46-11.95,3.46,0-5.65-1.3-7.75-11.43-9.57l.09-1.28c4.24.27,11.09.46,13.34.46,1.65,0,2.34-.09,3.29-.91,2.6-2.37,4.24-15.23,5.28-34.19h-17.84c-1.56,14.77-6.41,32.55-33.52,45.31l-1.04-1.28c21.22-14.77,23.73-31.36,24.34-44.04h-15.5l-.52-1.73h43.22ZM641.55,33.92c-3.55.46-6.41,3.37-7.88,7.75-11.87-9.12-21.48-22.61-25.9-40.94l1.21-.73c5.63,15.41,20.01,26.8,32.91,32.91l-.35,1Z"/>
    <path class="cls-1" d="M719.59,81.78l4.68-6.56,8.66,6.75c-.69,1.19-1.82,1.55-4.16,1.55h-47.38l-.43-1.73h22.61v-10.58h-16.89l-.35-1.28c-6.15,3.01-15.16,7.02-28.32,12.22-.52,1.09-1.39,1.91-2.34,2.1l-4.68-11.03c2.86-.27,7.53-.82,13.16-1.46v-27.81h-12.47l-.43-1.82h12.9v-13.22h-7.88l-.35-1.37c-1.47,1.55-2.95,2.92-4.5,4.1l-.95-.64c5.37-7.75,9.96-20.88,11.78-30l12.82,1.09c-.17,1.19-.95,1.73-3.29,2.1,11.52,3.46,15.16,8.57,15.16,12.31,0,3.01-2.25,5.11-4.76,5.11-1.21,0-2.42-.46-3.55-1.64-.78-4.1-3.21-10.03-7.28-14.77-3.2,7.11-8.57,15.41-14.9,21.88h15.59l4.24-6.11,8.14,6.29c-.69,1.19-1.82,1.64-4.07,1.64h-7.79v13.22h2.08l4.33-6.11,7.88,6.38c-.61,1.19-1.73,1.55-3.98,1.55h-10.31v26.71c4.33-.64,9.01-1.28,13.68-1.91l.09.64h17.24v-9.12h-6.93v1c0,.64-2.6,2.55-6.76,2.55h-1.47v-30.63l9.18,3.83h20.96l3.64-4.92,8.92,6.93c-.52.73-1.39,1.28-3.21,1.55v20.51c0,.36-2.86,2.1-7.1,2.1h-1.56v-2.92h-7.27v9.12h5.54l4.42-5.74,8.4,5.93c-.61,1.28-1.73,1.64-3.98,1.64h-14.38v10.58h7.62ZM653.51,48.14c6.41,4.83,8.57,9.85,8.57,13.49,0,3.83-2.17,6.38-4.5,6.38-1.13,0-2.25-.64-3.21-2.1.17-1.37.35-2.74.35-4.29,0-4.56-.95-9.57-2.25-13.04l1.04-.46ZM687.29,50.51c-.26,1.09-.95,1.73-3.03,1.73-2.51,5.29-5.72,11.21-8.66,15.13l-1.47-.64c1.13-4.74,2.25-12.4,3.12-19.05l10.05,2.83ZM687.11,13.95l-.43-1.82h16.72V.91l11.95,1.18c-.09,1.19-.87,1.82-3.29,2.1v7.93h5.37l4.68-6.56,8.66,6.75c-.61,1.19-1.73,1.64-4.07,1.64h-10.31l10.91,3.65c-.26,1-1.21,1.37-3.29,1.19-2.51,2.83-6.32,6.66-9.7,9.75h5.28l4.59-6.02,8.83,6.2c-.69,1.28-1.82,1.64-4.07,1.64h-43.65l-.52-1.82h27.37c1.13-4.28,2.51-10.3,3.38-14.59h-28.41ZM694.65,13.95c7.62,2.92,10.22,6.56,10.22,9.48s-2.51,5.11-5.11,5.11c-1.56,0-3.12-.82-4.24-2.64.09-.82.17-1.64.17-2.46,0-3.28-.69-6.75-1.82-9.03l.78-.46ZM703.57,38.84h-6.93v8.93h6.93v-8.93ZM696.64,58.44h6.93v-8.84h-6.93v8.84ZM719.24,38.84h-7.27v8.93h7.27v-8.93ZM711.97,58.44h7.27v-8.84h-7.27v8.84Z"/>
  </g>
</svg>