<?xml version="1.0" encoding="UTF-8"?>
<svg id="_圖層_2" data-name="圖層 2" xmlns="http://www.w3.org/2000/svg" viewBox="0 0 732.62 230.27">
  <defs>
    <style>
      .cls-1 {
        fill: #3d3127;
      }
    </style>
  </defs>
  <g id="_圖層_1-2" data-name="圖層 1">
    <path class="cls-1" d="M175.84,217.03c1.28,0,2.31.24,3.03.84.7.58,1.17,1.49,1.17,2.81,0,2.57-1.77,3.82-3.51,4.08-.27.02-.61.02-.81,0l-1.33-.38v3.13c0,1.69.16,1.79,1.78,1.91v.56h-4.88v-.56c1.44-.12,1.59-.28,1.59-1.93v-7.96c0-1.75-.14-1.83-1.48-1.93v-.56h4.45ZM174.38,223.72c.23.1.72.24,1.32.24,1.17,0,2.61-.7,2.61-3.23,0-2.15-1.24-3.07-2.72-3.07-.5,0-.88.1-1.01.24-.14.14-.2.38-.2.94v4.88Z"/>
    <path class="cls-1" d="M195.66,230.13c-.22,0-.41,0-.63-.02-1.35-.08-2.11-.52-2.92-1.81-.63-.98-1.28-2.21-1.82-3.19-.31-.56-.61-.8-1.55-.8h-.58v3.17c0,1.69.16,1.81,1.6,1.93v.56h-4.74v-.56c1.48-.12,1.64-.24,1.64-1.93v-8c0-1.69-.14-1.75-1.55-1.89v-.56h4.47c1.32,0,2.2.18,2.88.68.72.52,1.19,1.41,1.19,2.61,0,1.71-.96,2.77-2.29,3.41.31.66,1.06,1.99,1.6,2.89.65,1.04,1.03,1.55,1.46,2.07.49.6.9.82,1.3.94l-.07.52ZM189.03,223.66c.92,0,1.51-.16,1.96-.56.7-.6.99-1.39.99-2.47,0-2.15-1.28-2.95-2.65-2.95-.52,0-.83.08-.97.2-.13.1-.2.34-.2.88v4.9h.87Z"/>
    <path class="cls-1" d="M209.14,226.83c-.11.66-.47,2.53-.63,3.15h-8.69v-.56c1.64-.14,1.78-.3,1.78-1.91v-7.93c0-1.79-.14-1.85-1.55-1.99v-.56h8.04c0,.5.09,1.85.14,2.87l-.52.1c-.16-.84-.34-1.27-.58-1.71-.25-.42-.74-.56-2.04-.56h-1.37c-.56,0-.59.04-.59.64v4.52h1.69c1.62,0,1.71-.16,1.95-1.49h.52v3.82h-.52c-.23-1.43-.36-1.55-1.93-1.55h-1.71v3.76c0,.94.11,1.35.43,1.61.34.24.97.26,1.87.26,1.37,0,1.87-.16,2.27-.68.31-.4.65-1.08.88-1.87l.54.08Z"/>
    <path class="cls-1" d="M220.13,220.05c-.32-1.27-.79-2.65-2.36-2.65-1.39,0-2,1.12-2,2.19,0,1.45.87,2.13,2.29,2.95,1.41.8,3.12,1.73,3.12,3.96,0,2.09-1.6,3.76-4,3.76-.74,0-1.32-.16-1.77-.3-.45-.18-.72-.32-.88-.42-.14-.42-.38-2.13-.49-3.09l.52-.14c.29,1.21,1.1,3.23,2.96,3.23,1.35,0,2.16-.94,2.16-2.39s-.99-2.17-2.34-2.97c-1.15-.68-2.97-1.67-2.97-3.92,0-1.91,1.39-3.54,3.71-3.54.83,0,1.59.22,2.27.46.07.72.16,1.49.31,2.75l-.52.12Z"/>
    <path class="cls-1" d="M235.2,226.83c-.11.66-.47,2.53-.63,3.15h-8.69v-.56c1.64-.14,1.78-.3,1.78-1.91v-7.93c0-1.79-.14-1.85-1.55-1.99v-.56h8.04c0,.5.09,1.85.14,2.87l-.52.1c-.16-.84-.34-1.27-.58-1.71-.25-.42-.74-.56-2.04-.56h-1.37c-.56,0-.59.04-.59.64v4.52h1.69c1.62,0,1.71-.16,1.95-1.49h.52v3.82h-.52c-.23-1.43-.36-1.55-1.93-1.55h-1.71v3.76c0,.94.11,1.35.43,1.61.34.24.97.26,1.87.26,1.37,0,1.87-.16,2.27-.68.31-.4.65-1.08.88-1.87l.54.08Z"/>
    <path class="cls-1" d="M252.3,217.59c-1.01.06-1.44.32-1.51,1.19-.07.6-.11,1.49-.11,3.35v8.02h-.56l-7.68-10.43h-.04v5c0,1.83.05,2.79.11,3.37.09,1.02.5,1.25,1.73,1.33v.56h-4.27v-.56c1.04-.06,1.5-.32,1.59-1.29.05-.62.11-1.57.11-3.4v-4.38c0-1.45-.04-1.53-.36-2.01-.36-.5-.76-.66-1.6-.74v-.56h2.67l7.51,10h.05v-4.9c0-1.83-.07-2.75-.13-3.31-.09-.9-.52-1.16-1.77-1.23v-.56h4.25v.56Z"/>
    <path class="cls-1" d="M266.62,220.11c-.2-.96-.36-1.45-.58-1.77-.29-.48-.59-.62-1.95-.62h-1.28v9.8c0,1.57.14,1.77,1.86,1.89v.56h-5.17v-.56c1.64-.12,1.78-.32,1.78-1.89v-9.8h-1.12c-1.5,0-1.86.16-2.09.62-.22.34-.36.9-.58,1.77h-.52c.09-1.19.18-2.49.22-3.58h.36c.25.46.49.5.99.5h7.12c.49,0,.63-.12.92-.5h.38c0,.92.09,2.37.18,3.52l-.52.06Z"/>
    <path class="cls-1" d="M281.18,226.83c-.11.66-.47,2.53-.63,3.15h-8.69v-.56c1.64-.14,1.78-.3,1.78-1.91v-7.93c0-1.79-.14-1.85-1.55-1.99v-.56h8.04c0,.5.09,1.85.14,2.87l-.52.1c-.16-.84-.34-1.27-.58-1.71-.25-.42-.74-.56-2.04-.56h-1.37c-.56,0-.59.04-.59.64v4.52h1.69c1.62,0,1.71-.16,1.95-1.49h.52v3.82h-.52c-.23-1.43-.36-1.55-1.93-1.55h-1.71v3.76c0,.94.11,1.35.43,1.61.34.24.97.26,1.87.26,1.37,0,1.87-.16,2.27-.68.31-.4.65-1.08.88-1.87l.54.08Z"/>
    <path class="cls-1" d="M291.14,217.03c2.29,0,3.98.52,5.1,1.69.88.96,1.51,2.41,1.51,4.28,0,2.39-.83,4.16-2.22,5.32-1.35,1.15-3.14,1.65-5.35,1.65h-4.27v-.54c1.55-.12,1.69-.24,1.69-1.93v-7.98c0-1.71-.14-1.79-1.53-1.91v-.58h5.06ZM289.16,227.36c0,1.51.59,1.89,1.91,1.89,3.37,0,4.92-2.79,4.92-5.97,0-2.05-.68-3.82-2.13-4.76-.81-.58-1.86-.82-3.06-.82-.76,0-1.23.1-1.41.24-.18.14-.23.36-.23,1.14v8.28Z"/>
    <path class="cls-1" d="M316.86,223c1.78.3,3.19,1.17,3.19,3.17,0,1.33-.67,2.35-1.73,3.01-.92.56-2.11.8-3.53.8h-3.98v-.56c1.55-.12,1.66-.24,1.66-1.91v-8.02c0-1.65-.07-1.77-1.51-1.89v-.56h4.63c1.35,0,2.14.24,2.7.68.65.48,1.01,1.35,1.01,2.27,0,1.89-1.42,2.67-2.43,2.97v.06ZM314.82,222.76c1.98,0,2.81-.88,2.81-2.55,0-1.35-.68-2.55-2.4-2.55-.45,0-.85.08-1.03.2-.16.12-.23.34-.23,1v3.9h.85ZM313.97,227.48c0,1.43.34,1.81,1.5,1.81,1.48-.02,2.79-.86,2.79-2.93s-1.26-2.95-3.46-2.95h-.83v4.06Z"/>
    <path class="cls-1" d="M335.67,217.59c-1.24.16-1.44.36-2.14,1.57-.81,1.45-1.42,2.61-2.29,4.36-.23.52-.29.74-.29,1.25v2.71c0,1.67.14,1.81,1.8,1.93v.56h-5.1v-.56c1.6-.12,1.77-.24,1.77-1.93v-2.65c0-.4-.07-.58-.38-1.17-.63-1.23-1.28-2.53-2.27-4.38-.72-1.35-.92-1.57-2-1.69v-.56h4.31v.56c-1.28.18-1.24.42-.9,1.08.76,1.59,1.64,3.23,2.41,4.72.67-1.31,1.64-3.27,2.14-4.48.41-1,.36-1.16-1.04-1.31v-.56h3.98v.56Z"/>
    <path class="cls-1" d="M360.64,217.59c-1.48.14-1.62.24-1.62,1.89v8.04c0,1.67.14,1.77,1.6,1.89v.56h-4.83v-.56c1.53-.12,1.69-.22,1.69-1.89v-3.98h-6.15v3.98c0,1.65.14,1.77,1.62,1.89v.56h-4.74v-.56c1.44-.12,1.59-.22,1.59-1.89v-8.04c0-1.67-.14-1.75-1.62-1.89v-.56h4.67v.56c-1.37.14-1.51.24-1.51,1.89v3.23h6.15v-3.23c0-1.65-.14-1.75-1.55-1.89v-.56h4.7v.56Z"/>
    <path class="cls-1" d="M372.1,229.97v-.56c1.13-.16,1.3-.32,1.06-1.1-.23-.78-.59-1.85-.99-3.07h-3.84c-.29.9-.56,1.73-.79,2.57-.4,1.25-.23,1.45,1.12,1.59v.56h-3.91v-.56c1.14-.18,1.39-.3,2.02-2.05l3.73-10.45.56-.18c1.12,3.43,2.32,7.21,3.48,10.67.58,1.71.81,1.89,1.98,2.01v.56h-4.42ZM370.34,219.32h-.04c-.58,1.71-1.15,3.44-1.69,5.08h3.32l-1.58-5.08Z"/>
    <path class="cls-1" d="M393.54,217.59c-1.01.06-1.44.32-1.51,1.19-.07.6-.11,1.49-.11,3.35v8.02h-.56l-7.68-10.43h-.04v5c0,1.83.05,2.79.11,3.37.09,1.02.5,1.25,1.73,1.33v.56h-4.27v-.56c1.04-.06,1.5-.32,1.59-1.29.05-.62.11-1.57.11-3.4v-4.38c0-1.45-.04-1.53-.36-2.01-.36-.5-.76-.66-1.6-.74v-.56h2.67l7.51,10h.05v-4.9c0-1.83-.07-2.75-.13-3.31-.09-.9-.52-1.16-1.77-1.23v-.56h4.25v.56Z"/>
    <path class="cls-1" d="M410.86,217.59c-1.48.14-1.62.24-1.62,1.89v8.04c0,1.67.14,1.77,1.6,1.89v.56h-4.83v-.56c1.53-.12,1.69-.22,1.69-1.89v-3.98h-6.14v3.98c0,1.65.14,1.77,1.62,1.89v.56h-4.74v-.56c1.44-.12,1.59-.22,1.59-1.89v-8.04c0-1.67-.14-1.75-1.62-1.89v-.56h4.67v.56c-1.37.14-1.51.24-1.51,1.89v3.23h6.14v-3.23c0-1.65-.14-1.75-1.55-1.89v-.56h4.7v.56Z"/>
    <path class="cls-1" d="M428.18,217.59c-1.08.08-1.5.36-1.58,1.17-.05.54-.09,1.39-.09,3.23v1.65c0,2.35-.32,4.04-1.37,5.26-.83.96-2.04,1.37-3.23,1.37-1.05,0-2.09-.28-2.88-.96-1.08-.92-1.59-2.41-1.59-4.74v-4.98c0-1.79-.14-1.87-1.57-2.01v-.56h4.67v.56c-1.42.1-1.57.22-1.57,2.01v4.54c0,3.21,1.15,5.04,3.39,5.04,2.59,0,3.41-2.39,3.41-5.68v-1.51c0-1.83-.05-2.67-.13-3.29-.11-.78-.49-1.02-1.75-1.12v-.56h4.29v.56Z"/>
    <path class="cls-1" d="M438.59,229.97v-.56c1.13-.16,1.3-.32,1.06-1.1-.23-.78-.59-1.85-.99-3.07h-3.84c-.29.9-.56,1.73-.79,2.57-.4,1.25-.23,1.45,1.12,1.59v.56h-3.91v-.56c1.14-.18,1.39-.3,2.02-2.05l3.73-10.45.56-.18c1.12,3.43,2.32,7.21,3.48,10.67.58,1.71.81,1.89,1.98,2.01v.56h-4.42ZM436.82,219.32h-.04c-.58,1.71-1.15,3.44-1.69,5.08h3.32l-1.58-5.08Z"/>
    <path class="cls-1" d="M460.03,217.59c-1.01.06-1.44.32-1.51,1.19-.07.6-.11,1.49-.11,3.35v8.02h-.56l-7.68-10.43h-.04v5c0,1.83.05,2.79.11,3.37.09,1.02.5,1.25,1.73,1.33v.56h-4.27v-.56c1.04-.06,1.5-.32,1.59-1.29.05-.62.11-1.57.11-3.4v-4.38c0-1.45-.04-1.53-.36-2.01-.36-.5-.76-.66-1.6-.74v-.56h2.67l7.51,10h.05v-4.9c0-1.83-.07-2.75-.13-3.31-.09-.9-.52-1.16-1.77-1.23v-.56h4.25v.56Z"/>
    <path class="cls-1" d="M476.56,224.52c-1.08.18-1.15.28-1.15,1.45v1.69c0,.7.02,1.33.13,1.87-1.12.3-2.6.74-4.04.74-3.96,0-6.61-2.73-6.61-6.67,0-4.62,3.35-6.87,6.88-6.87,1.5,0,2.88.44,3.46.58.05.7.14,1.79.29,3.11l-.5.12c-.43-2.43-1.8-3.09-3.51-3.09-2.76,0-4.78,2.23-4.78,5.91,0,2.87,1.53,6.21,5.01,6.21.61,0,1.17-.14,1.57-.36.36-.22.58-.46.58-1.29v-1.69c0-1.43-.13-1.55-1.89-1.71v-.54h4.58v.54Z"/>
    <path class="cls-1" d="M501.03,224.52c-1.08.18-1.15.28-1.15,1.45v1.69c0,.7.02,1.33.13,1.87-1.12.3-2.6.74-4.04.74-3.96,0-6.61-2.73-6.61-6.67,0-4.62,3.35-6.87,6.88-6.87,1.5,0,2.88.44,3.46.58.05.7.14,1.79.29,3.11l-.5.12c-.43-2.43-1.8-3.09-3.51-3.09-2.76,0-4.78,2.23-4.78,5.91,0,2.87,1.53,6.21,5.01,6.21.61,0,1.17-.14,1.57-.36.36-.22.58-.46.58-1.29v-1.69c0-1.43-.13-1.55-1.89-1.71v-.54h4.58v.54Z"/>
    <path class="cls-1" d="M516.49,230.13c-.22,0-.41,0-.63-.02-1.35-.08-2.11-.52-2.92-1.81-.63-.98-1.28-2.21-1.82-3.19-.31-.56-.61-.8-1.55-.8h-.58v3.17c0,1.69.16,1.81,1.6,1.93v.56h-4.74v-.56c1.48-.12,1.64-.24,1.64-1.93v-8c0-1.69-.14-1.75-1.55-1.89v-.56h4.47c1.32,0,2.2.18,2.88.68.72.52,1.19,1.41,1.19,2.61,0,1.71-.96,2.77-2.29,3.41.31.66,1.06,1.99,1.6,2.89.65,1.04,1.03,1.55,1.46,2.07.49.6.9.82,1.3.94l-.07.52ZM509.85,223.66c.92,0,1.51-.16,1.96-.56.7-.6.99-1.39.99-2.47,0-2.15-1.28-2.95-2.65-2.95-.52,0-.83.08-.97.2-.13.1-.2.34-.2.88v4.9h.86Z"/>
    <path class="cls-1" d="M532.65,223.34c0,4.3-2.72,6.93-6.02,6.93s-5.86-2.81-5.86-6.63c0-3.58,2.27-6.91,6.05-6.91,3.06,0,5.82,2.63,5.82,6.61ZM522.61,223.08c0,3.74,1.86,6.47,4.4,6.47,2,0,3.8-1.85,3.8-5.68,0-4.2-1.98-6.43-4.34-6.43-2.02,0-3.86,1.91-3.86,5.64Z"/>
    <path class="cls-1" d="M549.91,217.59c-1.08.08-1.5.36-1.58,1.17-.05.54-.09,1.39-.09,3.23v1.65c0,2.35-.32,4.04-1.37,5.26-.83.96-2.04,1.37-3.23,1.37-1.05,0-2.09-.28-2.88-.96-1.08-.92-1.59-2.41-1.59-4.74v-4.98c0-1.79-.14-1.87-1.57-2.01v-.56h4.67v.56c-1.42.1-1.57.22-1.57,2.01v4.54c0,3.21,1.15,5.04,3.39,5.04,2.59,0,3.41-2.39,3.41-5.68v-1.51c0-1.83-.05-2.67-.13-3.29-.11-.78-.49-1.02-1.75-1.12v-.56h4.29v.56Z"/>
    <path class="cls-1" d="M559.3,217.03c1.28,0,2.31.24,3.03.84.7.58,1.17,1.49,1.17,2.81,0,2.57-1.77,3.82-3.51,4.08-.27.02-.61.02-.81,0l-1.33-.38v3.13c0,1.69.16,1.79,1.78,1.91v.56h-4.88v-.56c1.44-.12,1.59-.28,1.59-1.93v-7.96c0-1.75-.14-1.83-1.48-1.93v-.56h4.45ZM557.84,223.72c.23.1.72.24,1.32.24,1.17,0,2.61-.7,2.61-3.23,0-2.15-1.24-3.07-2.72-3.07-.5,0-.88.1-1.01.24-.14.14-.2.38-.2.94v4.88Z"/>
    <path class="cls-1" d="M41.99,102.27c-6.15,19.6-6.68,20.9-23.37,63.43-1.05,5.18-1.23,6.29-2.11,6.29s-2.46-.37-3.16-.92l-13.35-9.43c8.43-9.43,24.77-40.32,34.96-65.65l7.03,6.29ZM4.74,51.78c10.54,4.07,23.89,10.91,34.08,18.12l-10.37,15.53c-3.87-5.18-10.19-13.5-28.11-27l4.39-6.66ZM12.47,1.66c7.55,3.51,24.95,13.87,32.33,20.16l-11.42,14.79C26.88,25.34,14.93,14.06,7.91,7.95L12.47,1.66ZM112.44,59.18h42.52v33.84h-42.52c0,5.18-.18,6.84-.53,10.73h46.21v8.32h-47.44c-1.23,5.36-2.46,9.06-3.51,12.21h55.17v8.32h-43.22c8.78,15.35,23.19,25.71,44.8,33.66l-4.22,7.03c-33.38-6.84-47.61-21.08-58.33-37.36-11.42,19.05-33.56,31.99-57.63,37.36l-5.1-7.21c25.3-9.06,39-22.01,46.03-33.47h-36.89v-8.32h40.94c1.23-2.77,2.46-6.29,3.87-12.21h-40.23v-8.32h41.64c.53-5.55.53-7.21.53-10.73h-39.18v-33.84h39.18v-8.88h-20.03v-24.23h-26.7v-8.14h26.7v-6.1c0-4.25,0-4.81-.7-10.36l16.16.74c1.05,0,2.99.74,2.99,2.4,0,1.11-.18,2.22-1.05,4.62v8.69h26.18v-6.84c0-2.22-.53-8.69-.53-9.62l15.81.74c1.05,0,2.99.19,2.99,2.4,0,.55-.7,3.14-1.05,4.62v8.69h27.06v8.14h-27.06v24.23h-22.84v8.88ZM94.52,67.32h-21.43v17.38h21.43v-17.38ZM118.06,26.08h-26.18v16.09h26.18v-16.09ZM112.44,84.7h24.6v-17.38h-24.6v17.38Z"/>
    <path class="cls-1" d="M280.93,126.87h52.71v8.14h-52.71v23.12h72.38v8.32h-162.16v-8.32h71.51v-23.12h-51.65v-8.14h51.65v-20.16h-60.44v-8.32h137.56v8.32h-58.86v20.16ZM336.97,21.82v62.32h-130.71V21.82h41.11c5.45-10.91,7.55-15.53,8.96-21.82l21.26,4.62c.7.19,1.23.74,1.23,1.66,0,2.22-2.64,3.51-3.69,3.88-2.81,3.51-6.68,8.32-9.84,11.65h71.68ZM225.06,48.64h93.29v-18.49h-93.29v18.49ZM318.35,56.78h-93.29v19.05h93.29v-19.05Z"/>
    <path class="cls-1" d="M424.81,12.02c0-4.99-.35-7.21-1.05-10.17l19.15.55c1.23,0,2.11.55,2.11,1.85s-1.05,3.14-2.11,4.62v10.73h38.83v-7.58c0-2.03-.18-4.62-1.41-10.17l19.15.55c.88,0,1.58.92,1.58,1.66,0,1.29-.88,2.96-1.76,4.62v10.91h43.92v8.14h-43.92v9.62h-17.57v-9.62h-38.83v13.69h-18.1v-13.69h-43.75v-8.14h43.75v-7.58ZM438.17,48.08v107.82h-32.85v9.06h-17.04V48.08h49.9ZM422,97.65v-41.24h-16.69v41.24h16.69ZM405.31,105.78v41.8h16.69v-41.8h-16.69ZM482.27,52.71c0-3.14-.17-6.66-1.23-10.17l19.33.74c.7,0,1.76.74,1.76,1.85s-.88,2.96-1.76,5.18v8.32h33.21v8.32h-33.21v19.97h39.88v8.32h-97.33v-8.32h39.35v-19.97h-29.16v-8.32h29.16v-5.92ZM495.44,104.49c0-3.51-.35-5.18-.53-7.03l18.8.74c1.41,0,2.28,1.29,2.28,2.4,0,1.48-1.05,2.59-1.93,3.51v9.99h26.88v8.32h-26.88v32.18c0,12.58-2.46,16.46-15.99,16.46h-20.38l-2.81-9.8c4.92.92,14.58,1.85,15.64,1.85,4.92,0,4.92-2.03,4.92-7.03v-33.66h-50.42v-8.32h50.42v-9.62ZM462.59,161.45c-4.04-12.39-8.26-22.56-13.35-30.51l6.15-4.81c11.07,10.36,17.22,17.75,22.31,24.04l-15.11,11.28Z"/>
    <path class="cls-1" d="M732.62,21.82v8.14h-130.71v55.67c0,36.62-8.43,60.66-27.41,83.41l-7.55-4.81c10.01-17.01,17.22-35.51,17.22-78.41V21.82h59.91v-10.36c0-1.66,0-5.36-1.05-10.36l20.03.37c.53,0,1.76.19,1.76,1.48,0,.92-.88,3.14-1.76,4.81v14.05h69.57ZM679.91,96.54h50.95c-9.14,13.5-19.33,26.82-37.07,43.09l-8.79-5.55c8.43-11.28,12.65-18.86,16.87-29.41h-26.35v52.52c0,14.98-8.61,14.98-18.8,14.98h-25.65l-2.28-10.54c7.55,1.29,15.29,2.59,22.66,2.59,4.74,0,5.45-1.29,5.45-6.66v-52.89h-51.13v-8.14h66.23c-5.97-6.1-18.62-15.9-35.31-23.3l5.1-8.32c8.43,2.77,15.81,5.55,24.6,9.62,11.6-12.58,16.16-19.23,18.45-22.56h-67.29v-8.32h95.4v7.21c-11.24,11.1-28.11,23.67-36.37,28.85,5.27,2.77,9.49,5.36,12.65,7.4l-9.31,9.43Z"/>
  </g>
</svg>