<?xml version="1.0" encoding="UTF-8"?>
<svg id="_圖層_2" data-name="圖層 2" xmlns="http://www.w3.org/2000/svg" viewBox="0 0 249.05 38.98">
  <defs>
    <style>
      .cls-1 {
        fill: #225baa;
      }
    </style>
  </defs>
  <g id="_內容" data-name="內容">
    <g>
      <path class="cls-1" d="M59.98,35.94c-.14-2.25-.23-4.14-.27-6.39-.05-2.95-.09-5.45-.11-8.4-.02-1.6-.18-2.94-.57-4.48-.51-2.02-1.67-3.56-3.45-4.58-1.07-.62-2.06-1-3.26-1.26-3.83-.84-7.21-.91-11.07-.23-1.08.2-1.98.46-3,.9-2.35.99-3.97,2.81-4.73,5.3-.28.95-.37,1.81-.26,2.8.02.18.07.34.15.5l8.93.22c-.02-.58.05-1.08.24-1.62.29-.84.87-1.43,1.68-1.73,1.21-.45,2.36-.47,3.58-.06.8.27,1.36.86,1.61,1.68.15.52.08,1.02-.22,1.46-.27.39-.59.64-1.02.82-.27.1-.49.18-.77.25-1.24.34-2.3.58-3.56.8-1,.17-1.85.33-2.85.53-1.35.28-2.48.58-3.79,1.02-1.2.4-2.14.96-3.07,1.83-1.21,1.13-1.89,2.47-2.12,4.13-.16,1.11-.12,2.07.12,3.17.62,2.84,2.54,4.93,5.27,5.74,3.03.9,5.86.75,8.78-.45,1.41-.59,2.5-1.4,3.48-2.61l-.63-4.67c-.45.72-1.01,1.2-1.77,1.54-.71.32-1.34.49-2.12.57-.64.07-1.2.02-1.82-.16-.5-.14-.9-.38-1.26-.78-.3-.34-.49-.69-.58-1.14-.14-.69.08-1.35.6-1.81.35-.3.69-.5,1.12-.67,1.04-.39,1.92-.69,2.99-.99,1.28-.38,2.35-.78,3.56-1.35.12,1,.11,1.85-.03,2.84-.1.72-.31,1.32-.7,1.93l.63,4.67c.19.66.37,1.22.6,1.87.12.36.29.64.53.93h9.84c-.41-.68-.63-1.35-.69-2.14Z"/>
      <path class="cls-1" d="M119.58,35.94c-.15-2.25-.23-4.14-.27-6.39-.06-2.95-.09-5.45-.12-8.4,0-1.6-.18-2.94-.57-4.48-.51-2.02-1.67-3.56-3.44-4.58-1.07-.62-2.06-1-3.27-1.26-3.82-.84-7.21-.91-11.06-.23-1.08.2-1.98.46-3,.9-2.36.99-3.97,2.81-4.72,5.3-.29.95-.37,1.81-.26,2.8.02.18.07.34.14.5l8.93.22c-.02-.58.05-1.08.24-1.62.3-.84.87-1.43,1.69-1.73,1.2-.45,2.35-.47,3.57-.06.8.27,1.37.86,1.62,1.68.15.52.07,1.02-.23,1.46-.26.39-.59.64-1.02.82-.27.1-.49.18-.77.25-1.24.34-2.3.58-3.57.8-1,.17-1.85.33-2.85.53-1.35.28-2.48.58-3.79,1.02-1.2.4-2.14.96-3.07,1.83-1.2,1.13-1.9,2.47-2.12,4.13-.16,1.11-.12,2.07.12,3.17.63,2.84,2.55,4.93,5.28,5.74,3.02.9,5.86.75,8.78-.45,1.42-.59,2.5-1.4,3.48-2.61l-.63-4.67c-.45.72-1,1.2-1.76,1.54-.71.32-1.36.49-2.13.57-.64.07-1.2.02-1.82-.16-.5-.14-.91-.38-1.26-.78-.29-.34-.49-.69-.58-1.14-.14-.69.08-1.35.6-1.81.35-.3.69-.5,1.12-.67,1.03-.39,1.93-.69,2.99-.99,1.29-.38,2.34-.78,3.56-1.35.12,1,.11,1.85-.02,2.84-.1.72-.31,1.32-.7,1.93l.63,4.67c.2.66.37,1.22.59,1.87.12.36.29.64.54.93h9.85c-.42-.68-.63-1.35-.69-2.14Z"/>
      <path class="cls-1" d="M166.16,10.35c-1.05-.17-1.95-.24-3.01-.24s-1.96.07-3.01.24c-3.05.49-5.52,1.75-7.75,3.94-2.38,2.34-3.68,5.12-3.98,8.49-.18,2.07-.02,3.85.52,5.85.83,3.07,2.39,5.44,4.85,7.38,1.63,1.27,3.25,2.04,5.25,2.49,1.42.32,2.65.45,4.11.45s2.68-.14,4.1-.45c2-.45,3.62-1.22,5.24-2.49l-5.7-6.37c-.9,2.07-3.27,2.99-5.29,2.06-.93-.43-1.59-1.1-2-2.06-.38-.88-.61-1.67-.76-2.62-.28-1.91-.24-3.57.12-5.47.18-.98.5-1.79,1.04-2.63,1.17-1.83,3.57-2.34,5.37-1.15.46.32.81.67,1.12,1.15.53.84.85,1.65,1.04,2.63.36,1.9.4,3.56.12,5.47-.14.96-.37,1.74-.75,2.62l5.7,6.37c2.47-1.94,4.04-4.31,4.87-7.38.54-2,.7-3.78.52-5.85-.3-3.37-1.61-6.15-3.98-8.49-2.23-2.19-4.7-3.45-7.75-3.94Z"/>
      <path class="cls-1" d="M18.09,26.35h-6.81v-8.93h4.43c.84,0,1.55-.02,2.39-.06,1.16-.07,2.13-.6,2.83-1.56.37-.51.58-1.03.66-1.66.07-.53.08-.99.04-1.51-.19-1.99-1.8-3.48-3.75-3.48h-6.6v28.93H0V0h18.44c.73,0,1.35.01,2.09.06,4.89.27,8.91,3.05,10.99,7.6,1.08,2.36,1.44,4.64,1.16,7.23-.58,5.47-4.31,9.72-9.56,10.9-1.74.39-3.24.56-5.02.56Z"/>
      <path class="cls-1" d="M134.31,28.07c.76.13,1.4.29,2.13.54.61.21,1.03.69,1.16,1.33.14.7-.05,1.36-.53,1.87-.5.51-1.07.81-1.77.92-.94.15-1.77.07-2.66-.26-.43-.15-.78-.35-1.13-.66-.46-.39-.75-.84-.93-1.43-.14-.5-.2-.93-.2-1.45h-9.72v.58c0,.94.14,1.73.46,2.61.49,1.32,1.16,2.34,2.16,3.3,1.32,1.26,2.69,2.05,4.42,2.56,3.59,1.05,6.83,1.25,10.52.68,1.73-.28,3.16-.75,4.72-1.58.69-.37,1.24-.74,1.83-1.25,2.62-2.25,3.6-5.71,2.55-9.05-.39-1.25-1.03-2.23-2-3.1-1.34-1.19-2.7-1.94-4.4-2.45-.37-.11-.69-.2-1.06-.31-2.08-.59-3.88-.98-6.01-1.31-.58-.09-1.06-.18-1.63-.32-.25-.06-.47-.13-.72-.25-.59-.28-.87-1-.59-1.61,0-.03.02-.06.04-.1.32-.59.79-.97,1.42-1.16,1.11-.33,2.13-.3,3.22.08,1.05.36,1.7,1.35,1.66,2.48h9.37c0-1.18-.19-2.17-.57-3.28-.4-1.12-.99-1.98-1.91-2.71-.8-.65-1.56-1.09-2.5-1.47-.93-.37-1.74-.6-2.71-.78-2.32-.41-4.32-.52-6.68-.38-1.34.08-2.48.25-3.79.57-1.76.43-3.19,1.13-4.62,2.27-1.22.98-2.01,2.12-2.53,3.61-.23.68-.34,1.27-.37,1.99-.05,1.19.12,2.21.55,3.31.77,1.99,2.14,3.4,4.08,4.19.99.4,1.85.67,2.89.88,2.05.44,3.78.77,5.84,1.13Z"/>
      <path class="cls-1" d="M71.74,13.75c1.3-1.17,2.54-2,4.12-2.74,2.56-1.22,5.13-1.41,7.84-.6,2.91.87,5.01,2.97,5.92,5.93.44,1.42.63,2.69.63,4.18v17.55h-10.55v-15.79c0-.53-.06-.98-.21-1.48-.27-.91-.86-1.57-1.72-1.95-1.87-.81-3.99-.09-5.01,1.7-.43.74-.62,1.48-.62,2.36v15.16h-10.21V10.88h9.58l.22,2.87Z"/>
      <path class="cls-1" d="M189.16,13.75c1.31-1.17,2.55-2,4.12-2.74,2.56-1.22,5.14-1.41,7.84-.6,2.91.87,5.01,2.97,5.92,5.93.44,1.42.63,2.69.63,4.18v17.55h-10.54v-15.79c0-.53-.07-.98-.22-1.48-.28-.91-.86-1.57-1.71-1.95-1.87-.81-3.99-.09-5.02,1.7-.42.74-.62,1.48-.62,2.36v15.16h-10.21V10.88h9.58l.22,2.87Z"/>
      <rect class="cls-1" x="209.72" y="10.88" width="9.93" height="27.2"/>
      <rect class="cls-1" x="209.72" width="9.93" height="7.18"/>
      <path class="cls-1" d="M246.31,34.53c-1.99,2.16-4.27,3.45-7.12,4.04-1.93.4-3.61.48-5.57.27-2.59-.27-4.73-1.12-6.82-2.72-1.7-1.3-2.93-2.71-4-4.6-.82-1.46-1.3-2.83-1.57-4.5-.37-2.31-.27-4.34.32-6.6,1.35-5.14,5.12-8.79,10.22-9.87,2.9-.62,5.48-.55,8.36.21,2.05.54,3.67,1.45,5.22,2.93.97.93,1.67,1.86,2.29,3.07.72,1.42,1.02,2.81.93,4.42h-9.07c-.2-1.25-.78-2.24-1.76-3-1.28-.99-2.91-1.07-4.27-.21-.92.59-1.54,1.39-1.86,2.46-.79,2.54-.82,4.9-.12,7.47.29,1.08.8,1.93,1.59,2.7.91.88,2.05,1.26,3.28,1.07.77-.12,1.39-.46,1.91-1.06.54-.62.86-1.28,1-2.1.1-.57.16-1.06.19-1.64h9.57c.18,2.96-.72,5.55-2.73,7.69Z"/>
    </g>
  </g>
</svg>