<?xml version="1.0" encoding="UTF-8"?>
<svg id="_圖層_2" data-name="圖層 2" xmlns="http://www.w3.org/2000/svg" viewBox="0 0 249.06 49.48">
  <defs>
    <style>
      .cls-1 {
        fill: #225baa;
        fill-rule: evenodd;
      }
    </style>
  </defs>
  <g id="_內容" data-name="內容">
    <g>
      <path class="cls-1" d="M0,.77h21.8s16.48.26,16.48,18.76-16.84,18.76-16.84,18.76h-8.68v10.72H0V.77h0ZM12.76,27.3h5.1s6.76-.64,6.76-8.04-7.27-7.91-7.27-7.91h-4.59v15.95h0Z"/>
      <path class="cls-1" d="M173.3.77h22.2s16.08,1.02,16.08,18.76c0,16.08-16.2,18.76-16.2,18.76h-9.31v10.72h-12.76V.77h0ZM186.06,27.3h5.1s6.76-.64,6.76-8.04-7.27-7.91-7.27-7.91h-4.59v15.95h0Z"/>
      <polygon class="cls-1" points="43.89 1.15 56.52 1.15 56.52 18.76 69.92 18.76 69.92 1.15 82.04 1.15 82.04 48.99 70.05 48.99 70.05 29.6 56.65 29.6 56.65 48.99 43.89 48.99 43.89 1.15 43.89 1.15 43.89 1.15"/>
      <polygon class="cls-1" points="93.97 1.02 106.03 1.02 106.03 48.99 93.97 48.99 93.97 1.02 93.97 1.02 93.97 1.02"/>
      <polygon class="cls-1" points="149.6 1.02 161.66 1.02 161.66 48.99 149.6 48.99 149.6 1.02 149.6 1.02 149.6 1.02"/>
      <polygon class="cls-1" points="117.89 1.15 130.01 1.15 130.01 37.64 143.16 37.64 143.16 48.99 117.89 48.99 117.89 1.15 117.89 1.15 117.89 1.15"/>
      <path class="cls-1" d="M243.7.64s-4.72-.64-9.06-.64c-6.63,0-18.25,1.79-18.37,15.57,0,0-.85,10.79,10.97,13.78,11.1,2.81,8.61,5.04,8.93,5.36,0,0,.26,3.44-8.17,3.44s-10.33-1.53-10.33-1.53h0v11.23h0s1.94.85,10.21,1.53c10.85.89,21.18-3.82,21.18-15.44,0-4.59-2.3-11.99-12.89-14.55-6.77-1.63-7.71-3.57-7.66-4.47,0,0-.3-3.87,7.4-3.7,7.14.16,7.91,1.15,7.91,1.15h0l-.13-11.74h0Z"/>
    </g>
  </g>
</svg>