<?xml version="1.0" encoding="UTF-8"?>
<svg id="_圖層_2" data-name="圖層 2" xmlns="http://www.w3.org/2000/svg" viewBox="0 0 280.99 82.43">
  <defs>
    <style>
      .cls-1 {
        fill: #3e3a39;
      }

      .cls-1, .cls-2 {
        fill-rule: evenodd;
      }

      .cls-2 {
        fill: #d22638;
      }
    </style>
  </defs>
  <g id="_內容" data-name="內容">
    <g>
      <path class="cls-2" d="M31.33,81.42H0l15.66-27.22h31.2l-15.53,27.22h0ZM62.53,81.42h31.3l-15.67-27.22h-31.3l15.67,27.22h0ZM62.53,27.12L46.86,0l-15.53,27.12,15.53,27.09,15.67-27.09h0Z"/>
      <path class="cls-1" d="M107.55,70.25h12.56v-4.56h-12.56v-5.64h14.11v-4.56h-19.55v26.38h19.98v-4.66h-14.53v-6.96h0ZM107.09,31.51l5.64,19.52h5.12l5.64-19.52v19.52h4.89v-26.38h-7.61l-5.51,18.57-5.44-18.57h-7.71v26.38h4.99v-19.52h0ZM228.44,24.65h-5.31v26.38h5.31v-26.38h0ZM232.8,55.49h-5.31v26.38h5.31v-26.38h0ZM280.99,24.65h-5.35v26.38h5.35v-26.38h0ZM135.86,24.65h-5.32v26.38h5.32v-26.38h0ZM268.3,34.99h-10.53v-10.33h-5.35v26.38h5.35v-11.48h10.53v11.48h5.18v-26.38h-5.18v10.33h0ZM143.67,51.03h5.44v-21.82h6.4v-4.56h-18.24v4.56h6.4v21.82h0ZM192.09,81.87h5.41v-21.82h6.53v-4.56h-18.34v4.56h6.4v21.82h0ZM188.51,51.82c6.73,0,10.53-3.05,10.53-9.02v-18.14h-5.31v18.7c0,2.26-1.97,4.1-5.22,4.1-4.04,0-5.22-2.26-5.22-4.1v-18.7h-5.22v18.14c0,6.4,4.04,9.02,10.43,9.02h0ZM148.36,70.25h12.56v-4.56h-12.56v-5.64h14.21v-4.56h-19.52v26.38h19.85v-4.66h-14.53v-6.96h0ZM206.43,51.03h7.58c4.89,0,7.94-2.92,7.94-7.05,0-3.35-2.49-6.26-5.12-6.92,2.3-.56,4.13-2.95,4.13-5.87,0-3.9-2.82-6.53-8.14-6.53h-11.94v26.38h5.54ZM212.4,47.03h-6.2v-7.61h6.2c2.17,0,4,1.31,4,3.81,0,2.17-1.64,3.81-4,3.81h0ZM212.82,28.92c1.41,0,3.05,1.28,3.05,3.12,0,1.54-1.11,3.28-3.38,3.28h-6.3v-6.4h6.63ZM221.19,69.17c2.26-.66,4.76-2.72,4.76-6.4,0-4.66-3.25-7.38-8.56-7.38h-12.04v26.38h5.31v-10.43h4.56c2.69,0,4.23,1.51,4.66,3.38.43,2.07.33,5.08.85,7.05h5.45c-.56-1.97-.89-4.79-.98-6.96-.23-3.58-2.07-4.98-4-5.64h0ZM210.66,67.2v-7.25h6.4c2.16,0,3.58,1.51,3.58,3.67,0,1.41-1.18,3.58-3.35,3.58h-6.63ZM129.14,55.49h-5.41v26.38h17.78v-4.66h-12.37v-21.72h0ZM164.53,39.98c4.23.66,6.59,1.51,6.59,4,0,1.74-1.61,3.38-5.18,3.38s-5.45-1.97-5.45-4.33h-5.09c0,4.56,3.02,8.66,10.73,8.66s10.53-3.9,10.53-8.33c0-4.13-2.72-6.76-7.48-7.71-4.79-.89-7.94-1.08-7.94-4.14,0-1.97,1.87-3.15,4.69-3.15,3.02,0,4.85,1.41,4.85,4h5.12c0-4.23-3.15-8.46-10.2-8.46-4.79,0-9.78,2.82-9.78,8.04,0,4.36,3.15,7.05,8.59,8.04h0ZM238.77,39.98c4.33.66,6.72,1.51,6.72,4,0,1.74-1.74,3.38-5.22,3.38s-5.45-1.97-5.45-4.33h-5.09c0,4.56,2.92,8.66,10.76,8.66,7.38,0,10.5-3.9,10.5-8.33,0-4.13-2.69-6.76-7.58-7.71-4.66-.89-7.81-1.08-7.81-4.14,0-1.97,1.84-3.15,4.66-3.15,3.05,0,4.76,1.41,4.76,4h5.22c0-4.23-3.15-8.46-10.2-8.46-4.76,0-9.87,2.82-9.87,8.04,0,4.36,3.25,7.05,8.6,8.04h0ZM174.93,77.73c-4.33,0-6.82-4.23-6.82-9.22s2.49-9.22,6.82-9.22c3.25,0,4.99,2.07,5.64,4.56h5.55c-.85-5.22-4.89-9.02-11.29-9.02-8.14,0-12.17,6.2-12.17,13.78s4.23,13.81,12.17,13.81c6.3,0,10.53-3.71,11.29-9.35h-5.55c-.75,2.59-2.39,4.66-5.64,4.66h0ZM246.35,77.73c-4.23,0-6.73-4.23-6.73-9.22s2.39-9.22,6.73-9.22c3.25,0,4.99,2.07,5.64,4.56h5.55c-.85-5.22-4.89-9.02-11.29-9.02-8.04,0-12.17,6.2-12.17,13.78s4.23,13.81,12.17,13.81c6.3,0,10.53-3.71,11.38-9.35h-5.64c-.66,2.59-2.39,4.66-5.64,4.66h0Z"/>
    </g>
  </g>
</svg>