<?xml version="1.0" encoding="UTF-8"?>
<svg id="_圖層_2" data-name="圖層 2" xmlns="http://www.w3.org/2000/svg" viewBox="0 0 234.95 48.23">
  <defs>
    <style>
      .cls-1 {
        fill: #3e3a39;
      }
    </style>
  </defs>
  <g id="_內容" data-name="內容">
    <g>
      <path class="cls-1" d="M109.28,24.15c0,13.65-10.99,24.08-27.55,24.08s-27.55-10.43-27.55-24.08S65.17,0,81.73,0s27.55,10.5,27.55,24.15ZM66.17,24.15c0,9.81,3.51,18.73,15.8,18.73s15.34-8.92,15.34-18.73-3.28-18.8-15.57-18.8-15.57,8.99-15.57,18.8Z"/>
      <path class="cls-1" d="M220.96,24.15c0,13.65-10.99,24.08-27.55,24.08s-27.55-10.43-27.55-24.08S176.85,0,193.41,0s27.55,10.5,27.55,24.15ZM177.84,24.15c0,9.81,3.51,18.73,15.8,18.73s15.34-8.92,15.34-18.73-3.28-18.8-15.57-18.8-15.57,8.99-15.57,18.8Z"/>
      <path class="cls-1" d="M221.25,40.42c0-3.81,2.96-6.81,6.85-6.81s6.85,3,6.85,6.81-2.94,6.79-6.85,6.79-6.85-2.98-6.85-6.79ZM233.55,40.42c0-3.15-2.34-5.83-5.46-5.83s-5.46,2.67-5.46,5.83,2.36,5.8,5.46,5.8,5.46-2.65,5.46-5.8ZM224.81,36.65h3.81c1.22,0,2.26.56,2.26,1.86,0,.91-.62,1.7-1.57,1.99l1.14,1.59c.46.64.99,1.26,1.37,1.6v.23h-1.59c-.62,0-1.18-1.65-2.23-3.21h-.72v2.01c0,.72-.02.79.91.85v.35h-3.41v-.35c.93-.06.91-.14.91-.85v-4.89c0-.7.02-.77-.91-.83v-.35ZM227.3,40.3h.68c.93,0,1.24-.83,1.24-1.72,0-1.12-.5-1.49-1.22-1.49h-.7v3.21Z"/>
      <path class="cls-1" d="M32.28,39.3V6.44c9.43,0,14.1,3.29,14.1,10.56v1.79h6.29V1.37H0v17.43h6.29v-1.79c0-7.27,4.67-10.56,14.1-10.56v32.86c0,1.78-.85,2.47-3.48,2.47h-6.46v5.08h31.77v-5.08h-6.46c-2.63,0-3.48-.69-3.48-2.47Z"/>
      <path class="cls-1" d="M143.27,39.3V6.44c9.43,0,14.1,3.29,14.1,10.56v1.79h6.28V1.37h-52.66v17.43h6.28v-1.79c0-7.27,4.67-10.56,14.1-10.56v32.86c0,1.78-.85,2.47-3.48,2.47h-6.46v5.08h31.77v-5.08h-6.46c-2.63,0-3.48-.69-3.48-2.47Z"/>
    </g>
  </g>
</svg>