<?xml version="1.0" encoding="UTF-8"?>
<svg id="_圖層_2" data-name="圖層 2" xmlns="http://www.w3.org/2000/svg" viewBox="0 0 248.02 68.56">
  <defs>
    <style>
      .cls-1 {
        fill: #6d6f71;
      }

      .cls-2 {
        fill: #002863;
      }
    </style>
  </defs>
  <g id="_內容" data-name="內容">
    <g>
      <path class="cls-2" d="M5.34.8H0v32.2h5.34V.8ZM63.92.8h-6.65l-15.5,19.46L26.33.8h-6.67v32.2h5.34V6.67h.13l16.59,21L58.45,6.67h.13v26.33h5.34V.8ZM78.24.8v32.2h5.34v-12.28h19.17c3.82,0,6.74-.85,8.74-2.54,2-1.69,3-4.14,3-7.34s-.96-5.49-2.89-7.32c-1.93-1.82-4.54-2.74-7.83-2.74h-25.53ZM83.58,15.92V5.6h18.9c4.36,0,6.54,1.78,6.54,5.34,0,3.32-2.06,4.98-6.18,4.98h-19.26ZM160.44.8h-5.34v20.51c0,2.52-1.09,4.45-3.27,5.78-2.18,1.33-5.37,2-9.58,2s-7.42-.67-9.63-2c-2.21-1.33-3.31-3.26-3.31-5.78V.8h-5.34v21.8c0,3.32,1.63,6.04,4.89,8.14,3.38,2.16,7.84,3.25,13.39,3.25s9.98-1.08,13.3-3.25c3.26-2.08,4.89-4.79,4.89-8.14V.8ZM204.74,28.2h-24.86V.8h-5.34v32.2h30.2v-4.81ZM246.06,4.76c-4.69-3.17-10.5-4.76-17.44-4.76-5.16,0-9.16.87-11.99,2.62-2.83,1.75-4.25,4.14-4.25,7.16s1.24,5.03,3.74,6.27c2.14,1.07,5.86,1.78,11.17,2.13,5.99.39,9.67.76,11.03,1.11,2.61.68,3.91,2.04,3.91,4.09,0,1.75-1,3.13-2.98,4.14-2.08,1.04-5,1.56-8.76,1.56-5.81,0-11.24-1.54-16.28-4.63l-2.94,3.87c4.57,3.62,10.96,5.43,19.17,5.43,5.66,0,10.01-.93,13.03-2.8,3.02-1.87,4.54-4.51,4.54-7.92,0-2.67-.96-4.73-2.89-6.18-1.93-1.45-4.91-2.45-8.94-2.98-1.42-.18-4.36-.42-8.81-.71-3.02-.18-5.2-.5-6.54-.98-1.87-.65-2.8-1.69-2.8-3.11s.87-2.43,2.62-3.2c1.75-.77,4.27-1.16,7.56-1.16,4.95,0,9.82,1.22,14.59,3.65l3.25-3.6Z"/>
      <rect class="cls-1" x="0" y="40.31" width="247.64" height="1.13"/>
      <path class="cls-1" d="M12.19,56.07l10.37-7.4h-5.61l-13.18,9.45v-9.45H0v19.32h3.78v-5.84l5.5-3.95,9.23,9.79h4.87l-11.18-11.92ZM66.28,48.67h-3.77v12.22c0,2.85-2.49,4.27-7.46,4.27s-7.49-1.42-7.49-4.27v-12.22h-3.77v12.97c0,2.03,1.02,3.69,3.05,4.98,2.04,1.29,4.77,1.93,8.21,1.93s6.15-.64,8.18-1.93c2.03-1.29,3.05-2.95,3.05-4.98v-12.97ZM101.51,48.05c-3.42,0-6.3.86-8.65,2.57-2.71,1.97-4.06,4.51-4.06,7.63s1.19,5.45,3.57,7.36c2.38,1.92,5.5,2.87,9.36,2.87,4.63,0,8.38-1.6,11.23-4.81l-3.24-1.73c-2.03,2.1-4.67,3.14-7.89,3.14-2.79,0-5-.63-6.64-1.88-1.64-1.25-2.45-2.91-2.45-4.98s.82-3.64,2.45-4.9c1.64-1.26,3.83-1.9,6.57-1.9,3.19,0,5.82,1.02,7.9,3.08l3.46-1.19c-2.94-3.52-6.8-5.28-11.61-5.28M158.19,48.67h-3.77v7.57h-14.94v-7.57h-3.77v19.32h3.77v-8.35h14.94v8.35h3.77v-19.32ZM202.92,64.6h-17.05v-4.96h11.36v-3.39h-11.36v-4.18h16.32v-3.39h-20.1v19.32h20.82v-3.39ZM247.65,48.67h-3.78v16.12l-13.15-16.12h-5.62v19.32h3.78v-16.11l13.15,16.11h5.63v-19.32Z"/>
      <path class="cls-1" d="M53.66,50.54c0,1.04-.84,1.88-1.89,1.88s-1.88-.84-1.88-1.88.84-1.88,1.88-1.88,1.89.84,1.89,1.88"/>
      <path class="cls-1" d="M60.25,50.54c0,1.04-.84,1.88-1.89,1.88s-1.88-.84-1.88-1.88.84-1.88,1.88-1.88,1.89.84,1.89,1.88"/>
    </g>
  </g>
</svg>