<?xml version="1.0" encoding="UTF-8"?>
<svg id="_圖層_2" data-name="圖層 2" xmlns="http://www.w3.org/2000/svg" viewBox="0 0 203.65 51.4">
  <defs>
    <style>
      .cls-1 {
        fill: #d22638;
      }
    </style>
  </defs>
  <g id="_內容" data-name="內容">
    <g>
      <path class="cls-1" d="M51.3,0c-3.13,0-5.66,2.54-5.66,5.67s2.54,5.67,5.66,5.67,5.66-2.54,5.66-5.67-2.53-5.67-5.66-5.67"/>
      <path class="cls-1" d="M55.61,13.85h-8.62c-.63,0-1.14.51-1.14,1.14v34.17c0,.63.51,1.15,1.14,1.15h8.62c.63,0,1.14-.51,1.14-1.15V14.99c0-.63-.51-1.14-1.14-1.14"/>
      <path class="cls-1" d="M85.41,12.95c-8.11,0-10.47,3.38-11.87,4.77v-2.72c0-.64-.51-1.16-1.13-1.16h-8.46c-.63,0-1.13.52-1.13,1.16v34.14c0,.64.51,1.16,1.13,1.16h8.65c.63,0,1.13-.52,1.13-1.16v-19.31c0-4.95,3-8.63,8.01-8.63,5.36,0,7.99,3.78,7.99,8.63v19.31c0,.64.51,1.16,1.13,1.16h8.65c.63,0,1.13-.52,1.13-1.16v-21.99c0-10.66-7.43-14.2-15.22-14.2"/>
      <path class="cls-1" d="M129.16,12.95c-8.11,0-10.47,3.38-11.87,4.77v-2.72c0-.64-.51-1.16-1.13-1.16h-8.46c-.63,0-1.13.52-1.13,1.16v34.14c0,.64.51,1.16,1.13,1.16h8.65c.63,0,1.13-.52,1.13-1.16v-19.31c0-4.95,3-8.63,8.01-8.63,5.36,0,7.99,3.78,7.99,8.63v19.31c0,.64.51,1.16,1.13,1.16h8.65c.63,0,1.13-.52,1.13-1.16v-21.99c0-10.66-7.43-14.2-15.22-14.2"/>
      <path class="cls-1" d="M197.99,11.33c3.13,0,5.66-2.54,5.66-5.67S201.12,0,197.99,0s-5.66,2.54-5.66,5.67,2.54,5.67,5.66,5.67"/>
      <path class="cls-1" d="M202.3,13.85h-8.62c-.63,0-1.14.51-1.14,1.14v34.17c0,.63.51,1.15,1.14,1.15h8.62c.63,0,1.14-.51,1.14-1.15V14.99c0-.63-.51-1.14-1.14-1.14"/>
      <path class="cls-1" d="M29.54,30.6c2.28-.79,8.59-2.91,8.59-13.59S31.1,2.42,18.69,2.42H1.14c-.63,0-1.14.5-1.14,1.11v45.67c0,.61.51,1.11,1.14,1.11h8.66c.63,0,1.14-.5,1.14-1.11v-17.59h6.77l12.01,17.33c.56.85,1.53,1.37,2.57,1.37h9.21c.72,0,1.16-.77.77-1.36l-12.73-18.34ZM17.47,24.01h-6.53v-13.99h6.53c5.31,0,9.72.92,9.72,7s-4.41,7-9.72,7"/>
      <path class="cls-1" d="M161.21,13.96c-7.4,2.04-10.16,6.64-11.15,9.55-.18.53.39.98.9.98l9.73-.06c.36,0,.74-.11.96-.39,2.04-2.62,5.11-3.15,7.95-2.99,7.03.4,6.46,6.09,6.46,6.56-23.56-2.14-29.47,8.37-26.48,16.11,3.43,8.88,20.69,9.92,26.3,3.72.69,1.96.84,2.84,2.39,2.84h7.31c.65,0,1.17-.52,1.17-1.15v-21.54c0-15.56-17.46-15.87-25.54-13.64M176.16,35.91c0,5.27-3.39,8.39-9.16,8.55-4.28.12-7.89-1.7-7.99-4.52-.23-6.4,13.07-6.13,16.05-5.94,1.04.07,1.09.07,1.09.6v1.31Z"/>
    </g>
  </g>
</svg>