<?xml version="1.0" encoding="UTF-8"?>
<svg id="_圖層_2" data-name="圖層 2" xmlns="http://www.w3.org/2000/svg" viewBox="0 0 249.06 40.33">
  <defs>
    <style>
      .cls-1 {
        fill: #3e3a39;
      }
    </style>
  </defs>
  <g id="_內容" data-name="內容">
    <g>
      <polygon class="cls-1" points="0 39.53 0 1.23 9.67 1.23 9.67 16.35 30.37 16.35 30.37 1.23 40.61 1.23 40.61 39.53 30.51 39.53 30.51 22.71 9.67 22.71 9.67 39.53 0 39.53"/>
      <rect class="cls-1" x="49" y="1.23" width="9.67" height="38.3"/>
      <polygon class="cls-1" points="62.39 1.23 103.86 1.23 103.86 7.59 88.39 7.59 88.39 39.53 78.29 39.53 78.29 7.59 62.39 7.59 62.39 1.23"/>
      <path class="cls-1" d="M95.25,39.53L112.98,1.23h12.51l17.91,38.3h-11.03l-3.53-8.12h-19l-3.24,8.12h-11.35ZM126.62,25.05l-7.16-17.2-7.34,17.2h14.5Z"/>
      <polygon class="cls-1" points="190.39 39.53 190.39 1.23 200.49 1.23 200.49 16.35 221.2 16.35 221.2 1.23 231 1.23 231 39.53 221.33 39.53 221.33 22.71 200.49 22.71 200.48 39.53 190.39 39.53"/>
      <rect class="cls-1" x="239.39" y="1.23" width="9.67" height="38.3"/>
      <path class="cls-1" d="M174.39,14.07c.06-4.03-2.34-7.81-10.39-7.84-10.41-.05-11.36,9.17-11.39,14.15-.08,10.69,4.49,13.86,11.97,14.01,7.32.14,9.87-4.53,9.81-8.56h10.78c-.48,9.6-7.01,14.39-20.59,14.5-16.22.14-23.18-8.75-23.18-19.95C141.4,9.19,148.22.04,164.15,0c11.28-.03,20.11,4.47,20.59,14.07h-10.34Z"/>
    </g>
  </g>
</svg>