<?xml version="1.0" encoding="UTF-8"?>
<svg id="_圖層_2" data-name="圖層 2" xmlns="http://www.w3.org/2000/svg" viewBox="0 0 249.9 37.26">
  <defs>
    <style>
      .cls-1 {
        fill: #d22638;
        fill-rule: evenodd;
      }
    </style>
  </defs>
  <g id="_內容" data-name="內容">
    <g>
      <path class="cls-1" d="M246.08,30.34c-1.74,0-3.14,1.4-3.14,3.12s1.4,3.14,3.14,3.14,3.12-1.4,3.12-3.14-1.39-3.12-3.12-3.12h0ZM246.08,36.23c-1.53,0-2.76-1.23-2.76-2.76s1.23-2.75,2.76-2.75,2.75,1.23,2.75,2.75-1.23,2.76-2.75,2.76h0Z"/>
      <path class="cls-1" d="M247.69,32.65c0-.3-.13-.61-.39-.75-.26-.16-.56-.17-.85-.17h-1.53v3.5h.43v-1.62h.79l1,1.62h.51l-1.06-1.62c.62-.02,1.11-.27,1.11-.96h0ZM246,33.27h-.66v-1.24h1c.43,0,.91.07.91.61,0,.71-.76.63-1.25.63h0Z"/>
      <path class="cls-1" d="M225.31.3c-3.66,0-13.97.38-20.77,1.37v34.2h10.91v-12.37c1.37.46,9.24,1.22,11.99,1.22s22.44-.84,22.44-12.52C249.9-.31,228.98.3,225.31.3h0ZM225.93,18.78c-3.51,0-7.56-.3-10.46-1.37V6.87c3.66-.31,9.47-.54,11.15-.54s10.38.38,10.46,6.03c.08,5.88-7.63,6.41-11.15,6.41h0Z"/>
      <path class="cls-1" d="M37.79,15.42c-2.95-.66-14.05-2.44-16.95-2.82-3.82-.46-6.03-1.15-6.03-3.28,0-2.9,5.64-2.4,10.23-2.21,5.65.23,16.26,3.74,19.31,5.04l3.59-7.86C42.06,1.37,30.77,0,23.59,0,18.4.08,1.05,1.3.84,10.53c-.15,6.57,5.6,8.95,12.9,10.76,6.26,1.3,13.21,1.91,17.94,2.9,6.06,1.27,6.03,5.57,1.22,6.03-8.3.61-22.37-3.51-28.78-6.72L0,31.91c8.93,4.35,22.75,5.4,27.48,5.35,6.11-.08,22.29-.69,22.29-10.38,0-6.38-5.5-10-11.98-11.45h0Z"/>
      <polygon class="cls-1" points="86.22 14.96 63.62 14.96 63.62 1.68 52.02 1.68 52.02 35.88 63.62 35.88 63.62 21.83 86.22 21.83 86.22 35.88 97.82 35.88 97.82 1.68 86.22 1.68 86.22 14.96 86.22 14.96"/>
      <path class="cls-1" d="M133.58,1.68h-14.28l-20.08,34.2h9.01l4.66-7.79h22.65l4.68,7.79h13.97L133.58,1.68h0ZM116.86,21.22l7.18-12.29,7.38,12.29h-14.56Z"/>
      <path class="cls-1" d="M201.17,11.68c-.08-12.52-21.3-11.37-24.96-11.37s-13.97.38-20.76,1.37v34.2h11.07V6.87c3.97-.31,9.61-.54,11.29-.54s10.31-.3,10.38,5.88c.07,5.88-8.02,5.95-11.53,5.95-2.21,0-4.05-.46-5.95-.92l-2.06,3.51,17.1,15.12h16.41l-14.89-13.09c6.32-1.27,13.95-4.22,13.9-11.11h0Z"/>
    </g>
  </g>
</svg>