<?xml version="1.0" encoding="UTF-8"?>
<svg id="_圖層_2" data-name="圖層 2" xmlns="http://www.w3.org/2000/svg" viewBox="0 0 249.05 38.33">
  <defs>
    <style>
      .cls-1 {
        fill: #18a388;
        fill-rule: evenodd;
      }
    </style>
  </defs>
  <g id="_內容" data-name="內容">
    <g id="layer1">
      <path id="path19" class="cls-1" d="M195.54,14.76c-2.01,0-3.72,1.28-4.28,2.95h8.57c-.54-1.71-2.26-2.95-4.3-2.95ZM187.19,19.71c0,4.8,3.71,8.69,8.29,8.69,3.53,0,6.54-2.29,7.74-5.55h-4.1c-.83,1.07-2.16,1.77-3.66,1.77-2.17,0-3.99-1.43-4.45-3.39h12.71c.08-.5.06-1,.06-1.52,0-4.8-3.71-8.69-8.29-8.69s-8.29,3.89-8.29,8.69ZM166.53,19.7c0-4.79-3.76-8.68-8.39-8.68s-8.39,3.88-8.39,8.68,3.76,8.68,8.39,8.68,8.39-3.89,8.39-8.68ZM148.92,14.68v-3.69c-1.92,0-3.53.76-4.24,1.82v-1.44h-3.63v16.7h3.95l.02-10.43c.06-1.6,1.77-2.89,3.9-2.96ZM136.9,11.37h-3.51v1.67c-1.19-1.29-2.89-2.04-5.01-2.04-4.43,0-8.17,4.08-8.17,8.52,0,4.7,3.66,8.52,8.17,8.52,1.88,0,3.7-1.06,5.05-2.57,0,0,0,.2,0,.31,0,2.86-2.3,5.17-5.14,5.17-1.54,0-2.92-.68-3.86-1.76l-4.02.02c1.06,3.04,4.24,5.25,8,5.25,4.28,0,8.48-4.02,8.48-7.48v-.16s.01-15.45.01-15.45ZM117.75,22.65c0-2.65-1.92-4.1-4.62-4.59l-2.56-.54c-1.1-.17-2.44-.5-2.44-1.64,0-.82,1.09-1.49,2.44-1.49s2.64,1.04,2.64,1.87h4.23c-.46-2.94-3.31-5.17-6.75-5.17-3.76,0-6.44,2.35-6.34,5.7.07,2.39,2.64,3.79,5.47,4.39l.93.18c2,.27,3.1.69,3.16,1.67.07,1.2-1.03,1.96-2.65,1.96-1.73,0-3.12-1.12-3.12-2.43h-4.03c.05,3.28,3.41,5.93,7.17,5.93s6.49-2.51,6.49-5.84ZM101.49,28.07l-.02-11.09c-.07-3.31-2.88-5.98-6.34-5.98-1.81,0-3.44.73-4.6,1.9v-1.54s-3.59,0-3.59,0v16.7s3.86,0,3.86,0l.02-9.81c0-1.76,1.54-3.19,3.44-3.19s3.43,1.43,3.43,3.19v9.81s3.81,0,3.81,0ZM82.95,28.07V11.37s-3.77,0-3.77,0v1.76c-1.47-1.29-2.62-2.07-4.69-2.07-4.62,0-8.49,3.9-8.49,8.69s3.87,8.67,8.49,8.67c2.06,0,3.22-.71,4.67-1.98v1.63s3.79.01,3.79.01ZM173.64,0h75.41v38.33S0,38.33,0,38.33V0h48.46s0,28.19,0,28.19h3.86v-9.99c.17-1.68,1.49-3.16,3.32-3.16s3.32,1.41,3.32,3.16v9.99s3.73,0,3.73,0v-11.61c-.42-3.24-2.71-5.57-6.01-5.57-1.72,0-3.27.64-4.37,1.72V.01h117.48s0,28.15,0,28.15h3.86v-9.99c.17-1.68,1.49-3.16,3.32-3.16s3.32,1.41,3.32,3.16v9.99h3.74v-11.61c-.42-3.24-2.72-5.57-6.02-5.57-1.71,0-3.26.64-4.37,1.72V0ZM158.11,14.89c-2.53,0-4.59,2.15-4.59,4.81s2.05,4.81,4.59,4.81,4.59-2.15,4.59-4.81-2.05-4.81-4.59-4.81ZM74.54,14.92c-2.56,0-4.63,2.15-4.63,4.8s2.07,4.8,4.63,4.8,4.63-2.15,4.63-4.8-2.07-4.8-4.63-4.8ZM133.23,19.63c0,2.62-2.05,4.73-4.59,4.73s-4.59-2.12-4.59-4.73,2.05-4.73,4.59-4.73,4.59,2.12,4.59,4.73"/>
    </g>
  </g>
</svg>