<?xml version="1.0" encoding="UTF-8"?>
<svg id="_圖層_2" data-name="圖層 2" xmlns="http://www.w3.org/2000/svg" viewBox="0 0 114.29 109.34">
  <defs>
    <style>
      .cls-1 {
        fill: #117eae;
      }
    </style>
  </defs>
  <g id="_內容" data-name="內容">
    <path id="CI" class="cls-1" d="M109.6,99.66c-2.2-2.23-5.76-2.23-7.98-.02-2.22,2.21-2.22,5.79-.02,8.02,2.2,2.23,5.76,2.23,7.98.02,1.07-1.07,1.68-2.51,1.65-4.02,0-1.51-.59-2.95-1.63-4ZM105.62,108.73c-2.78,0-5.05-2.27-5.05-5.07s2.26-5.07,5.05-5.07,5.05,2.27,5.05,5.07-2.26,5.05-5.05,5.07ZM108.42,107.2l-2.02-3.48c.46-.07.89-.26,1.24-.59.65-.72.65-1.84,0-2.56-.44-.39-1-.59-1.59-.57h-2.41v7.15h.74v-6.43h1.7c.39-.02.78.09,1.09.35.2.2.28.48.28.77,0,1.03-1,1.18-1.61,1.18h-.63l.33.55,2.09,3.61.8.02h0ZM55.63,109.06H17.1c-9.68,0-14.97-3.52-15.53-18.41-.48-12.53,5.55-16.62,11.46-18.41,10.05-3.04,22.56-.87,22.56-.68v12.29c-4.37-.63-11.9-.2-11.9-.2-3.94.48-5.85,2.47-5.72,6.19.17,4.2,2.2,5.49,4.44,5.82h16.97v-31.53c.04-1.68-.17-3.3-1.57-4.15-1.72-1.09-11.46-1.86-15.84.07-2.22.98-2.48,3.04-2.59,5.55l-15.97.04c.2-5.38-.63-14.96,9.16-18.3,4.81-1.62,26.52-4.46,36.31,1.25,5.07,2.97,6.72,7.37,6.72,13.14l.02,47.34h0ZM62.35,46.68h37.09c7.83.31,11.23,5.31,12.38,8.16,3.83,8.07,2.98,24.82-.98,30.52-2.65,4.2-7.29,6.71-12.25,6.65h-16.4v-12.94h9.25c4.81,0,7.51-.11,7.51-9.84,0-5.71-.24-9.47-5.42-9.47h-15.23v49.28h-15.95v-62.36h0ZM41.16,0h10.81v16.57L62.61,0h12.7l-11.4,16.77h2.74c4.16-.02,7.53,3.35,7.57,7.5v16.27h-10.55v-13.75c.02-.83-.63-1.53-1.46-1.55h-10.25v15.24h-10.81V0ZM0,0h11.75l8.83,16.73L29.39,0h11.77l-15.08,26.98v13.53h-10.72v-13.91L0,0ZM78.53,0h10.81v16.57L99.96,0h12.7l-11.4,16.77h2.74c4.16-.02,7.55,3.35,7.59,7.52v16.22h-10.57v-13.71c.02-.83-.63-1.51-1.44-1.55h-10.25v15.26h-10.81V0h0Z"/>
  </g>
</svg>