<?xml version="1.0" encoding="UTF-8"?>
<svg id="_圖層_2" data-name="圖層 2" xmlns="http://www.w3.org/2000/svg" viewBox="0 0 233.26 49.42">
  <defs>
    <style>
      .cls-1 {
        fill: #3e3a39;
        fill-rule: evenodd;
      }
    </style>
  </defs>
  <g id="_內容" data-name="內容">
    <g>
      <path class="cls-1" d="M232.54,43.8c-.48-.48-1.07-.72-1.75-.72s-1.26.24-1.74.72c-.48.48-.72,1.06-.72,1.75s.24,1.27.72,1.76c.48.49,1.06.73,1.75.73s1.27-.24,1.75-.73c.48-.48.72-1.07.72-1.76s-.24-1.26-.72-1.75h0ZM232.29,47.06c-.41.42-.92.63-1.51.63s-1.09-.21-1.51-.63c-.41-.42-.62-.92-.62-1.52s.21-1.09.62-1.51c.42-.42.92-.63,1.5-.63s1.09.21,1.51.63c.41.42.62.92.62,1.51s-.21,1.1-.62,1.52h0Z"/>
      <path class="cls-1" d="M231.89,46.86s-.02-.07-.02-.14c0-.07,0-.14,0-.2h0v-.2h0c0-.14-.05-.28-.15-.42-.1-.14-.26-.23-.47-.27.17-.03.3-.07.39-.13.18-.11.27-.29.27-.54,0-.34-.14-.57-.42-.69-.16-.07-.4-.1-.74-.1h-.95v2.72h.48v-1.07h.38c.25,0,.43.03.53.09.17.1.26.31.26.62h0v.3h.01s0,.02,0,.03c0,0,0,.02,0,.03h.45l-.02-.03h0ZM231.15,45.43c-.1.04-.25.06-.45.06h-.43v-.98h.41c.27,0,.46.03.58.1.12.07.18.2.18.4,0,.21-.09.35-.28.42h0Z"/>
      <polygon class="cls-1" points="112.56 18.51 99.78 18.51 99.78 .37 86.11 .37 86.11 48.41 99.78 48.41 99.78 30.27 112.56 30.27 112.56 48.41 126.23 48.41 126.23 .37 112.56 .37 112.56 18.51 112.56 18.51 112.56 18.51"/>
      <polygon class="cls-1" points="159.32 48.41 185.51 48.41 185.51 37.17 172.99 37.17 172.99 30.27 184.49 30.27 184.49 19.02 172.99 19.02 172.99 12.12 185.51 12.12 185.51 .37 159.32 .37 159.32 48.41 159.32 48.41 159.32 48.41"/>
      <polygon class="cls-1" points="142.97 .37 129.3 .37 129.3 48.41 156.64 48.41 156.64 37.17 142.97 37.17 142.97 .37 142.97 .37 142.97 .37"/>
      <path class="cls-1" d="M59.79,0c-13.65,0-24.76,10.21-24.71,24.71.05,14.88,11.06,24.71,24.71,24.71s24.76-10.21,24.71-24.71c-.05-14.88-11.06-24.71-24.71-24.71h0ZM59.79,36.54c-6.09,0-11.05-5.13-11.02-11.83.03-7.47,4.93-11.83,11.02-11.83s10.99,4.36,11.02,11.83c.03,7.47-4.93,11.83-11.02,11.83h0Z"/>
      <polygon class="cls-1" points="41.78 .88 24.91 .88 13.67 15.7 13.67 .88 0 .88 0 48.41 13.67 48.41 13.67 31.8 26.32 48.41 43.82 48.41 24.4 23.62 41.78 .88 41.78 .88 41.78 .88"/>
      <path class="cls-1" d="M213.75,29.37c1.53-.89,8.82-5.62,7.79-15.46-1.02-9.84-8.69-13.03-14.69-13.03h-18.65v47.53h13.67v-15.2l10.09,15.2h15.33l-13.54-19.04h0ZM204.93,20.68h-3.07v-8.56h3.32c2.17,0,3.83,1.53,3.83,4.09s-.89,4.47-4.09,4.47h0Z"/>
    </g>
  </g>
</svg>