<?xml version="1.0" encoding="UTF-8"?>
<svg id="_圖層_2" data-name="圖層 2" xmlns="http://www.w3.org/2000/svg" viewBox="0 0 258.03 34.94">
  <defs>
    <style>
      .cls-1 {
        fill: #004876;
      }
    </style>
  </defs>
  <g id="_內容" data-name="內容">
    <g>
      <g>
        <path class="cls-1" d="M252.53,0c-3.06,0-5.52,2.46-5.52,5.51s2.47,5.52,5.52,5.52,5.5-2.48,5.5-5.52-2.46-5.51-5.5-5.51M252.53,10.22c-2.62,0-4.71-2.11-4.71-4.71s2.09-4.71,4.71-4.71,4.7,2.11,4.7,4.71-2.09,4.71-4.7,4.71"/>
        <path class="cls-1" d="M253.45,6.16c-.09-.07-.23-.17-.43-.25.51-.08.87-.24,1.1-.51.24-.26.36-.58.34-.95,0-.29-.08-.56-.21-.79-.16-.23-.36-.39-.58-.49-.27-.1-.61-.15-1.08-.12l-2.31.04.08,5.24h.7s-.04-2.33-.04-2.33h.79c.19-.01.31,0,.39.01.11.03.22.06.32.12.1.08.23.19.36.35.13.18.3.4.52.72l.7,1.07h.86s-.93-1.43-.93-1.43c-.18-.26-.35-.51-.57-.69M252.49,5.37l-1.48.03-.04-1.74,1.65-.03c.38,0,.66.08.85.23.18.15.27.36.27.6.02.17-.04.32-.12.47-.09.15-.22.26-.39.32-.18.06-.42.11-.74.11"/>
      </g>
      <path class="cls-1" d="M243.61,27.19h-16.06l9.89-23.81h-11.07l-9.89,23.81h-16.07l9.9-23.81h-11.07l-4.67,11.24c.43-2.91.04-5.31-1.19-7.18-1.77-2.74-5.2-4.11-10.3-4.11s-9.34,1.4-13.12,4.16c-.72.54-1.39,1.11-2.04,1.71-.1-.74-.27-1.41-.57-2.02-.62-1.26-1.69-2.2-3.18-2.83-1.51-.65-3.83-.97-7-.97h-16.83l-1.29,2.99-2.42,5.58h18.04c.19.02.36.03.54.05.33.05.68.08.96.3.65.47.57,1.44.22,2.08-.22.41-.52.77-.87,1.09-.52.5-1.21.85-1.9,1.07-.19.05-.38.11-.58.16-.02,0-.03.01-.05.01-1,.22-2.08.35-3.13.35h-15.39l-6.74,15.66-.03-.02c.74-4.17-3.56-9.07-5.53-11.05,3.81-.52,6.75-1.7,8.76-3.53,2.05-1.83,3.28-3.98,3.72-6.45.39-2.27-.07-4.22-1.4-5.84-1.33-1.62-3.73-2.44-7.22-2.44h-20.15l-10.12,24.38h-20.31l2.57-6.16h17.27l2.73-6.39h-17.33l2.09-5.03h18.02l2.81-6.8h-36.61l-16.72,22.71,1.69-22.71H12.86L0,34.94h30.33l2.91-7.17H14.04l2.54-6.22h17.32l2.61-6.41h-17.33l2.05-5.01h18.7v-.02h1.16l-.16,24.83h11.26l19.28-24.01-10.01,24.01h42.34l5.35-12.85h.55c.93,0,1.66.2,2.22.65.58.44,1.27,2,2.09,4.72.81,2.71,1.5,5.2,2.07,7.49h22.25l5.03-11.66h5.04c4.03,0,7.25-.4,9.67-1.2,1.08-.36,2.12-.85,3.1-1.43-.87,2.92-1.06,5.41-.58,7.44.56,2.37,1.77,4.11,3.65,5.21,1.87,1.1,4.54,1.64,7.98,1.64s6.47-.64,9.19-1.9c2.73-1.27,5.1-3.05,7.11-5.34.46-.52.89-1.06,1.31-1.64l-1,2.44-.83,1.97h0s-1.86,4.48-1.86,4.48h59.58l3.22-7.75h-5.31ZM113.67,16.17h-2.08l2.48-5.99h6.48s2.35-.18,3.05.36c.07.06.14.13.18.19.32.43.42.96.32,1.61-.12.63-.49,1.28-1.11,1.97-.6.67-1.46,1.15-2.53,1.43-1.07.29-3.33.43-6.8.43ZM184.03,18.79c-1.21,3.41-2.61,5.79-4.19,7.11-1.58,1.31-3.39,1.96-5.43,1.96s-3.28-.67-3.96-2c-.66-1.35-.46-3.58.64-6.65,1.1-3.11,2.47-5.34,4.11-6.69,1.63-1.34,3.41-2.02,5.31-2.02,2,0,3.33.66,4.02,2,.7,1.32.53,3.41-.5,6.29Z"/>
    </g>
  </g>
</svg>