<?xml version="1.0" encoding="UTF-8"?>
<svg id="_圖層_2" data-name="圖層 2" xmlns="http://www.w3.org/2000/svg" viewBox="0 0 151.15 21.07">
  <defs>
    <style>
      .cls-1 {
        fill: #aa8743;
      }

      .cls-2 {
        fill: #fff;
      }
    </style>
  </defs>
  <g id="_圖層_1-2" data-name="圖層 1">
    <g>
      <rect class="cls-2" width="151.15" height="21.07"/>
      <g>
        <g>
          <path class="cls-1" d="M21.46,8.82v6.9h-1.17c0-10.5,0-4.32,0-8.07l-3.17-3.2v.93c0,1.21,0,9.26,0,10.34h-1.42V6.76l-2.89,2.96v7.18h.93s0-.94,0-6.61l1.04-1.05c0,9.08,0,5.87,0,7.65h3.28V6.89l1.26,1.21v8.79h3.05v-7.18l-.9-.9Z"/>
          <g>
            <path class="cls-1" d="M41.31,10.18h-3.76c.4.47.97.86,1.7,1.18.73.32,1.46.53,2.21.65v.17c-.61.26-.94.63-1.01,1.08-.68-.3-1.31-.72-1.89-1.25-.57-.54-1.03-1.15-1.39-1.83h-3.85c-.48.59-1.01,1.11-1.59,1.56,1.07.16,1.71.49,1.93,1.01.12.31.07.56-.16.75-.27.19-.56.18-.89-.05-.05-.26-.18-.53-.38-.83-.2-.3-.41-.56-.65-.77-.8.61-1.7,1.11-2.71,1.49l-.12-.15c1.35-.8,2.44-1.81,3.27-3.01h-3.03l-.11-.39h3.39c.3-.45.56-.93.79-1.45h-2.85l-.11-.39h3.14c.2-.52.35-.99.47-1.4h-4.07l-.11-.38h4.28c.13-.46.25-1.03.36-1.71l1.39.4c-.15.8-.24,1.24-.26,1.31h5.52v.38h-5.64c-.15.5-.33.96-.54,1.4h5.21v.39h-5.39c-.24.47-.54.95-.89,1.45h7.7v.39ZM37.21,11.5l.86.87c-.52.47-1.03.83-1.52,1.08,1.56.48,2.53,1.06,2.91,1.76.21.38.19.67-.05.88-.22.19-.49.19-.82.01-.23-.32-.62-.71-1.17-1.19-.55-.48-1.15-.93-1.82-1.38v1.87c0,.47-.1.81-.31,1.02-.21.22-.65.36-1.33.41-.03-.37-.12-.62-.27-.74-.22-.19-.57-.31-1.05-.38v-.19c.83.06,1.33.09,1.5.09s.26-.08.26-.22v-1.67c-.9.66-1.91,1.36-3.04,2.1,0,.17-.09.29-.23.37l-1.1-1.15c.73-.22,2.19-.79,4.38-1.71v-2.83l1.21.16v2.54c.12.03.28.07.5.12.24-.34.62-.95,1.12-1.84Z"/>
            <path class="cls-1" d="M46.04,10.05v3.35c.14-.05.4-.14.77-.26.38-.13.67-.23.88-.31l.07.16c-1.22.88-2.39,1.67-3.5,2.37-.04.18-.13.29-.27.36l-.79-1.42c.32-.09.88-.26,1.67-.51v-3.73h-1.29l-.11-.38h1.4v-3.39h-1.48l-.11-.38h4.92v.38h-2.14v3.39h1.85v.38h-1.85ZM55.41,11.46v3.91c0,.45-.1.78-.28.99-.19.21-.6.34-1.23.4-.02-.36-.09-.62-.22-.77-.2-.19-.5-.32-.9-.37v-.2c.64.04,1.04.07,1.22.07.16,0,.24-.08.24-.24v-3.41h-1.99v1.67l.81-.09c-.14-.39-.3-.77-.5-1.14l.17-.07c.84.58,1.29,1.19,1.35,1.81.03.34-.06.56-.27.66-.16.07-.33.02-.5-.15,0-.21-.06-.49-.16-.85-.51.19-1.41.52-2.71.98-.06.15-.16.25-.31.3l-.66-1.16c.22-.02.79-.07,1.7-.17v-1.8h-2.02v4.65s-.04.08-.12.13c-.07.06-.18.12-.34.17-.15.06-.32.09-.5.09h-.2v-5.05h-.59l-.12-.38h3.89v-1.43h-1.4v.3c0,.06-.11.14-.32.23s-.42.13-.63.13h-.16v-3.27h2.52v-1.3c-.99.08-1.97.12-2.95.12l-.04-.23c1-.13,2.06-.33,3.18-.61,1.12-.27,2.02-.54,2.69-.81l1.25,1.1c-.14.13-.4.14-.77.01-.59.11-1.36.22-2.29.32v1.39h2.63v2.76c-.01.05-.13.12-.35.2-.22.08-.41.12-.58.12h-.19v-.48h-1.51v1.43h3.15ZM49.78,9.65h1.4v-1.84h-1.4v1.84ZM53.77,7.81h-1.51v1.84h1.51v-1.84Z"/>
            <path class="cls-1" d="M61.11,7.3l1.09.91c-.3.48-.67.97-1.09,1.48v6.81c0,.06-.13.14-.36.23-.22.09-.45.13-.67.13h-.24v-6.06c-.69.59-1.39,1.1-2.09,1.52l-.15-.15c.67-.65,1.33-1.44,1.98-2.35.65-.93,1.17-1.77,1.53-2.53ZM60.98,4.6l1.04.91c-.49.58-1.1,1.14-1.82,1.67-.71.52-1.43.96-2.17,1.31l-.13-.16c.57-.5,1.15-1.11,1.74-1.81.58-.71,1.03-1.35,1.35-1.92ZM70.39,8.9v.37h-2.45v5.83c0,.52-.13.91-.4,1.18-.26.27-.8.44-1.62.49-.03-.42-.16-.72-.4-.9-.3-.22-.82-.38-1.56-.48v-.19c1.3.09,2.07.13,2.32.13s.36-.09.36-.28v-5.79h-4.1l-.11-.37h7.96ZM69.85,6.23h-6.57l-.11-.37h6.68v.37Z"/>
            <path class="cls-1" d="M77.58,14.16l.04.19c-1.44.65-2.89,1.26-4.36,1.83-.05.18-.16.29-.34.33l-.61-1.43c.42-.05,1.13-.16,2.13-.33v-3.98h-1.98l-.11-.38h2.09v-1.86h-1.2l-.05-.17c-.3.32-.59.59-.89.82l-.15-.11c.4-.57.78-1.31,1.14-2.21.37-.9.62-1.7.77-2.39l1.8.4c-.04.16-.22.25-.52.28,1.29.46,2.03,1,2.25,1.63.12.34.05.61-.22.81-.26.19-.53.18-.81-.03-.24-.68-.68-1.4-1.33-2.16-.47,1-1.08,1.91-1.85,2.75h3.82v.39h-1.63v1.86h2.24v.38h-2.24v3.77c1.07-.19,1.73-.32,1.99-.37ZM72.64,11.33l.17-.07c.83.66,1.25,1.34,1.27,2.04.02.41-.1.68-.35.81-.21.1-.41.04-.62-.19.04-.74-.11-1.6-.47-2.59ZM76.06,14.03l-.22-.09c.18-.73.33-1.64.46-2.72l.96.38c-.39,1.11-.79,1.92-1.2,2.43ZM82.64,8.7h1.35v6.57c0,.48-.1.84-.31,1.07-.21.23-.65.38-1.32.45-.04-.43-.13-.72-.27-.86-.22-.21-.56-.35-1.02-.41v-.2c.76.05,1.24.08,1.44.08.18,0,.27-.08.27-.25v-2.65c-.78.49-1.67.99-2.67,1.48-.05.18-.14.29-.3.36l-.6-1.24c-.25,1.65-.95,2.9-2.1,3.74l-.16-.14c.51-.72.84-1.52,1-2.39.15-.88.23-1.91.23-3.08v-2.52h2.39v-4.15l1.18.15v4.01h.9ZM77.77,5.47l.13-.08c1.04.39,1.67.9,1.9,1.55.14.4.1.71-.15.94-.23.21-.5.2-.8-.03-.08-.77-.44-1.56-1.09-2.38ZM79.33,10.66v.57c0,.67-.03,1.24-.09,1.72,1.05-.19,2.23-.47,3.54-.86v-3h-3.45v1.23c1.49-.19,2.5-.05,3.02.44.26.24.32.47.19.7-.11.2-.3.27-.59.23-.61-.42-1.48-.76-2.61-1.02ZM83.29,5.22l.97.87c-.1.19-.28.43-.54.71-.25.27-.49.53-.73.77-.22.24-.44.45-.65.63l-.18-.13c.49-1.06.87-2.01,1.12-2.86Z"/>
          </g>
        </g>
        <g>
          <path class="cls-1" d="M115.66,4.67l1.34.72c-1.09,2.63-2.64,4.55-4.64,5.75l-.15-.14c.72-.73,1.39-1.65,2.01-2.77.63-1.13,1.11-2.31,1.45-3.56ZM120.16,11.53l.18-.1c1.57.89,2.6,1.91,3.1,3.08.32.74.36,1.34.11,1.8-.18.36-.46.47-.82.32-.12-.05-.24-.12-.36-.22-.06-.51-.21-1.08-.45-1.7-2.16.58-4.65,1.11-7.49,1.59-.13.19-.27.32-.42.37l-.6-1.76c.25-.06.41-.12.49-.21.56-.57,1.18-1.5,1.87-2.77.69-1.28,1.17-2.36,1.43-3.27l1.41.8c-.45.96-1.06,1.94-1.84,2.94-.78,1-1.55,1.85-2.29,2.56,1.87-.09,4.3-.3,7.29-.62-.41-1.01-.95-1.94-1.61-2.81ZM120.31,4.51v.5c.31,1.03.85,1.98,1.63,2.84.77.85,1.72,1.49,2.83,1.93l-.03.14c-.27.09-.52.25-.74.48s-.36.48-.44.76c-1.91-1.29-3.12-3.38-3.62-6.25h-1.5l-.12-.4h1.99Z"/>
          <path class="cls-1" d="M136.09,7.09v.4h-8.89l-.11-.4h9ZM138.34,4.78v10.22c0,.55-.13.95-.4,1.21-.25.27-.81.44-1.67.53-.07-.47-.22-.79-.44-.95-.31-.23-.84-.41-1.58-.53v-.19c1.33.09,2.12.14,2.38.14s.4-.12.4-.35V5.18h-9.45l-.12-.4h10.89ZM134.27,9.92v4.14c0,.06-.14.15-.4.25-.25.1-.47.15-.67.15h-.21v-1.15h-3.42v1.26c0,.07-.11.16-.34.26-.22.1-.45.15-.7.15h-.19v-5.69h5.91v.62ZM129.59,12.91h3.42v-3.21h-3.42v3.21Z"/>
        </g>
        <path class="cls-1" d="M89.94,16.98l-.13.08c-.83-.89-1.45-1.85-1.85-2.89-.42-1.08-.63-2.25-.63-3.51s.21-2.44.63-3.52c.4-1.04,1.02-2,1.85-2.87l.13.07c-.53.99-.93,2.01-1.2,3.08-.28,1.07-.42,2.15-.42,3.25s.14,2.17.42,3.24c.27,1.06.67,2.09,1.2,3.08Z"/>
        <path class="cls-1" d="M95.74,11.65h-1.81c-.02,1.08-.1,1.91-.24,2.49-.21.83-.68,1.7-1.38,2.62l-.15-.11c.35-.94.57-1.79.67-2.55.08-.6.12-1.56.12-2.86v-6.66h.98v.52h1.77l.36-.57,1.03.74-.39.47v9.63c0,.53-.11.89-.32,1.08-.2.19-.55.29-1.07.31-.05-.33-.18-.57-.38-.71-.16-.11-.43-.2-.8-.25v-.18h1.19c.28,0,.42-.15.42-.44v-3.53ZM95.74,8.15v-2.63h-1.81v2.63h1.81ZM95.74,11.24v-2.68h-1.81v2.68h1.81ZM102.3,10.26l.39-.48,1.13.92-.58.5c-.72,1.21-1.39,2.14-1.98,2.79.74.58,1.76,1.17,3.06,1.78v.06c-.27.22-.45.53-.55.93-1.32-.68-2.37-1.4-3.15-2.17-.94.83-2.21,1.55-3.82,2.17l-.08-.17c1.46-.94,2.57-1.82,3.33-2.63-.71-.84-1.32-1.93-1.84-3.29h-.7v-.41h4.8ZM101.59,5.52h-2.21v.4c0,1.02-.12,1.79-.36,2.31-.29.65-.91,1.25-1.84,1.81l-.12-.13c.52-.57.87-1.14,1.06-1.71.16-.5.24-1.18.24-2.02v-1.53h1.02v.47h2.16l.36-.57,1.13.74-.42.47v2.34c0,.21.09.31.27.31h1.39v.06c-.17.22-.27.52-.31.89h-1.27c-.39,0-.68-.1-.86-.3-.16-.2-.24-.51-.24-.93v-2.59ZM102.3,10.68h-3.87c.75,1.15,1.46,2.05,2.13,2.69.63-.79,1.22-1.69,1.74-2.69Z"/>
        <path class="cls-1" d="M109.13,10.67c0,1.26-.21,2.43-.63,3.5-.4,1.02-1.01,1.98-1.85,2.88l-.13-.08c.52-.97.92-1.99,1.2-3.07.28-1.07.41-2.15.41-3.23s-.14-2.2-.41-3.25c-.27-1.06-.67-2.08-1.2-3.07l.13-.08c.83.89,1.45,1.85,1.85,2.88.42,1.08.63,2.25.63,3.52Z"/>
      </g>
    </g>
  </g>
</svg>